<svg width="30" height="25" viewBox="0 0 30 25" fill="none" xmlns="http://www.w3.org/2000/svg">
<g clip-path="url(#clip0)">
<path d="M29.9 24.8C20 24.9 9.99998 24.9 -2.08337e-05 25C-2.08337e-05 24.5 -0.600021 18.7 5.69998 15C6.19998 14.7 6.69998 14.4 7.29998 14.2C8.89998 16.7 11.8 18.4 15 18.4C18.3 18.4 21.3 16.6 22.9 14C23.4 14.2 23.8 14.4 24.3 14.7C30.7 18.3 30 24.5 29.9 24.8Z" fill="#860000"/>
<path d="M15 16.6C19.6392 16.6 23.4 12.884 23.4 8.3C23.4 3.71604 19.6392 0 15 0C10.3608 0 6.59998 3.71604 6.59998 8.3C6.59998 12.884 10.3608 16.6 15 16.6Z" fill="#860000"/>
</g>
<defs>
<clipPath id="clip0">
<rect width="30" height="25" fill="white"/>
</clipPath>
</defs>
</svg>
