<svg width="372" height="56" viewBox="0 0 372 56" fill="none" xmlns="http://www.w3.org/2000/svg">
<path d="M0.200195 54.2001C43.7002 45.3001 87.7002 37.3001 133.7 31.3001C138.7 30.3001 143.7 28.3001 148.7 28.3001C153.7 28.3001 157.7 27.3001 162.7 27.3001C232.7 18.3001 301.7 11.3001 371.8 8.90015" stroke="black" stroke-width="2" stroke-miterlimit="10"/>
<path d="M107.9 34.9001C107 34.4001 106.6 29.4001 107.3 25.4001C108.1 21.0001 110.2 19.1001 110.7 18.6001C111 20.2001 111.5 23.7001 110.9 27.6001C110.2 31.3001 108.8 35.4001 107.9 34.9001Z" stroke="black" stroke-width="2" stroke-miterlimit="10"/>
<path d="M120.1 32.9C119.3 32.3 119.8 27.2 121.2 23.5C122.8 19.3 125.2 17.8 125.8 17.5C125.8 19.1 125.6 22.6 124.3 26.4C123.1 29.8 120.9 33.5 120.1 32.9Z" stroke="black" stroke-width="2" stroke-miterlimit="10"/>
<path d="M121.5 32.9999C122.4 32.4999 126.8 34.9999 129.7 37.7999C132.9 40.9999 133.3 43.7 133.4 44.4C131.9 43.7 128.8 42.1999 125.9 39.4999C123.1 36.9999 120.6 33.4999 121.5 32.9999Z" stroke="black" stroke-width="2" stroke-miterlimit="10"/>
<path d="M108.1 34.8999C109.1 34.7999 112.1 38.9999 113.5 42.6999C115.1 46.8999 114.3 49.5999 114.1 50.1999C113 48.9999 110.8 46.2999 109.3 42.5999C107.9 39.1999 107.1 34.9999 108.1 34.8999Z" stroke="black" stroke-width="2" stroke-miterlimit="10"/>
<path d="M233 19.1C232.1 18.6 231.7 13.6 232.4 9.60005C233.2 5.20005 235.3 3.30005 235.8 2.80005C236.1 4.40005 236.6 7.90005 236 11.8C235.4 15.5 233.9 19.6 233 19.1Z" stroke="black" stroke-width="2" stroke-miterlimit="10"/>
<path d="M233.2 19.2C234.2 19.1 237.2 23.3 238.6 27C240.2 31.2 239.4 33.9 239.2 34.5C238.1 33.3 235.9 30.6 234.4 26.9C233 23.5 232.2 19.2 233.2 19.2Z" stroke="black" stroke-width="2" stroke-miterlimit="10"/>
<path d="M139.4 29C138.9 28.1 141.6 23.7 144.4 21C147.6 17.9 150.4 17.5 151.1 17.5C150.4 19 148.8 22.1 146 24.9C143.4 27.5 139.9 29.9 139.4 29Z" stroke="black" stroke-width="2" stroke-miterlimit="10"/>
<path d="M159.1 27.1C158.3 26.5 158.8 21.4 160.2 17.7C161.8 13.5 164.2 12 164.8 11.7C164.8 13.3 164.6 16.8 163.3 20.6C162.1 24 159.9 27.7 159.1 27.1Z" stroke="black" stroke-width="2" stroke-miterlimit="10"/>
<path d="M159.1 27.1999C160.1 27.0999 163.4 30.8999 165.1 34.4999C167 38.5999 166.5 41.2999 166.3 41.9999C165.1 40.8999 162.7 38.2999 160.9 34.7999C159.2 31.4999 158.1 27.2999 159.1 27.1999Z" stroke="black" stroke-width="2" stroke-miterlimit="10"/>
<path d="M175.2 24.8C174.8 23.9 177.6 19.6 180.6 17C184 14.1 186.8 13.9 187.5 13.8C186.7 15.2 184.9 18.2 182 20.9C179.3 23.5 175.6 25.7 175.2 24.8Z" stroke="black" stroke-width="2" stroke-miterlimit="10"/>
<path d="M176 24.7C176.9 25.2 177.5 30.2 176.9 34.1C176.3 38.6 174.3 40.5 173.8 41C173.5 39.4 172.8 36 173.3 32C173.8 28.3 175.1 24.2 176 24.7Z" stroke="black" stroke-width="2" stroke-miterlimit="10"/>
<path d="M193.9 23.8001C193.3 23.0001 195.1 18.2001 197.5 15.0001C200.1 11.4001 202.8 10.5001 203.5 10.4001C203.1 12.0001 202 15.3001 199.8 18.6001C197.6 21.6001 194.5 24.6001 193.9 23.8001Z" stroke="black" stroke-width="2" stroke-miterlimit="10"/>
<path d="M195.7 22.2001C196.7 22.0001 200.4 25.5001 202.4 28.9001C204.7 32.7001 204.5 35.5001 204.4 36.2001C203.1 35.2001 200.5 32.9001 198.3 29.6001C196.3 26.5001 194.7 22.5001 195.7 22.2001Z" stroke="black" stroke-width="2" stroke-miterlimit="10"/>
<path d="M214.7 19.9C214.1 19.1 215.9 14.3 218.3 11.1C220.9 7.5 223.6 6.6 224.3 6.5C223.9 8.1 222.8 11.4 220.6 14.7C218.4 17.8 215.3 20.8 214.7 19.9Z" stroke="black" stroke-width="2" stroke-miterlimit="10"/>
<path d="M215.1 20.9001C216 21.3001 216.8 26.3001 216.4 30.3001C215.9 34.8001 214 36.8001 213.5 37.3001C213.1 35.7001 212.4 32.3001 212.7 28.4001C213 24.7001 214.2 20.5001 215.1 20.9001Z" stroke="black" stroke-width="2" stroke-miterlimit="10"/>
<path d="M139.8 29.1001C140.8 29.0001 143.8 33.2001 145.2 36.9001C146.8 41.1001 146 43.8001 145.8 44.4001C144.7 43.2001 142.5 40.5001 141 36.8001C139.6 33.4001 138.8 29.1001 139.8 29.1001Z" stroke="black" stroke-width="2" stroke-miterlimit="10"/>
</svg>
