<svg width="30" height="25" viewBox="0 0 30 25" fill="none" xmlns="http://www.w3.org/2000/svg">
<g clip-path="url(#clip0)">
<path d="M12.5 25V20.1H17.7V25H25.9V19.7C25.9 19.6 25.9 19.5 25.8 19.4L15.1 7.60002C15 7.50002 14.8 7.50002 14.7 7.60002L4.19998 19.3C4.09998 19.4 4.09998 19.5 4.09998 19.6V25H12.5Z" fill="#860000"/>
<path d="M13.6 21.1V21.2L13.5 21.1H13.6Z" fill="#860000"/>
<path d="M28.3 19.2C27.9 19.2 27.5 19 27.2 18.7L16.1 6.29998C15.5 5.59998 14.5 5.59998 13.9 6.29998L2.8 18.7C2.5 19 2.1 19.2 1.7 19.2C0.7 19.2 0 18.1 0 17C0 16.4 0.2 15.8 0.6 15.4L13.9 0.499976C14.5 -0.200024 15.5 -0.200024 16.1 0.499976L20.1 4.99998V2.99998C20.1 1.79998 20.8 0.899976 21.7 0.899976C22.2 0.899976 22.6 1.09998 22.9 1.49998C23.2 1.89998 23.4 2.39998 23.4 2.99998V7.99998C23.4 8.19998 23.4 8.39998 23.3 8.59998L29.4 15.4C30.6 16.7 29.9 19.2 28.3 19.2Z" fill="#860000"/>
</g>
<defs>
<clipPath id="clip0">
<rect width="30" height="25" fill="white"/>
</clipPath>
</defs>
</svg>
