<svg width="171" height="230" viewBox="0 0 171 230" fill="none" xmlns="http://www.w3.org/2000/svg">
<path d="M152.581 82.8196L151.525 82.4157L162.588 53.4621C163.429 51.2614 163.829 48.9167 163.763 46.5618C163.698 44.2069 163.17 41.8878 162.208 39.7371C161.247 37.5864 159.871 35.6462 158.16 34.0271C156.449 32.408 154.435 31.1419 152.234 30.301L90.8921 6.86054C86.4478 5.16222 81.5107 5.29898 77.1672 7.24074C72.8236 9.1825 69.4294 12.7702 67.731 17.2146L7.03346 176.057C6.19254 178.257 5.7933 180.602 5.85853 182.957C5.92377 185.312 6.45221 187.631 7.41368 189.782C8.37514 191.932 9.75081 193.873 11.4621 195.492C13.1734 197.111 15.1869 198.377 17.3875 199.218L78.7298 222.658C83.1741 224.356 88.1112 224.22 92.4547 222.278C96.7983 220.336 100.193 216.749 101.891 212.304L143.649 103.025L144.706 103.429L152.581 82.8196Z" fill="#BCB3B3"/>
<path d="M151.245 34.9189L143.237 31.8591C143.261 32.9026 143.027 33.9358 142.557 34.8677C142.087 35.7996 141.395 36.6016 140.542 37.203C139.688 37.8044 138.701 38.1868 137.665 38.3165C136.629 38.4461 135.578 38.3192 134.603 37.9467L99.4604 24.5179C98.4855 24.1453 97.6171 23.5386 96.9318 22.7513C96.2466 21.964 95.7655 21.0203 95.5308 20.0032C95.2962 18.9862 95.3153 17.9271 95.5865 16.9191C95.8576 15.9112 96.3725 14.9854 97.0857 14.2234L89.6069 11.3656C87.9635 10.7376 86.2125 10.4394 84.4539 10.4881C82.6952 10.5369 80.9634 10.9315 79.3573 11.6495C77.7512 12.3675 76.3022 13.3948 75.0931 14.6728C73.884 15.9508 72.9385 17.4545 72.3105 19.0979L11.702 177.707C11.074 179.35 10.7758 181.101 10.8246 182.86C10.8733 184.619 11.2679 186.35 11.9859 187.956C12.7039 189.563 13.7312 191.012 15.0092 192.221C16.2872 193.43 17.7909 194.375 19.4343 195.003L81.072 218.557C82.7154 219.185 84.4664 219.483 86.225 219.434C87.9836 219.385 89.7155 218.991 91.3216 218.273C92.9277 217.555 94.3767 216.527 95.5858 215.249C96.7949 213.971 97.7404 212.468 98.3684 210.824L158.977 52.2153C159.605 50.5719 159.903 48.8209 159.854 47.0623C159.806 45.3036 159.411 43.5718 158.693 41.9657C157.975 40.3596 156.948 38.9106 155.67 37.7015C154.392 36.4924 152.888 35.5469 151.245 34.9189Z" fill="white"/>
<circle cx="83.5324" cy="119.575" r="38.7585" transform="rotate(20.9131 83.5324 119.575)" fill="#BCB3B3"/>
<path d="M86.966 127.085C78.7203 128.714 76.2883 124.878 77.8802 120.712C79.4721 116.546 85.1005 116.478 87.6217 118.083C90.138 119.684 93.4642 123.514 91.019 128.634C89.6314 131.54 85.14 133.531 80.1749 132.71C75.2098 131.889 71.7503 127.768 72.0496 123.403C72.3489 119.039 74.9399 116.129 76.349 114.71C78.6526 112.391 83.778 109.083 87.0592 106.892C91.9361 103.634 94.3174 102.479 94.728 99.4859C95.0624 97.0479 93.4691 93.4431 90.1354 95.516C81.9293 100.618 83.2399 129.55 83.2399 129.55C83.2399 129.55 82.685 143.021 79.1034 144.851C77.6562 145.591 76.6908 146.303 75.1038 145.981C72.6797 145.489 70.3002 142.89 71.5383 140.73C72.6682 138.759 76.0911 139.302 77.5258 141.049" stroke="white" stroke-width="4"/>
</svg>
