<svg width="209" height="189" viewBox="0 0 209 189" fill="none" xmlns="http://www.w3.org/2000/svg">
<path d="M209 162.405L176.156 176L138 44.0581L146.951 33.5217L163.354 31L209 162.405Z" fill="#B9B9B9"/>
<path opacity="0.2" d="M209 162.405L176.156 176L138 44.0581L146.951 33.5217L163.354 31L209 162.405Z" fill="#8D7AFF"/>
<path d="M147.203 34L91 41.2594L119.809 181L176 176.602L147.203 34Z" fill="#B9B9B9"/>
<path opacity="0.07" d="M147.203 34L91 41.2594L119.809 181L176 176.602L147.203 34Z" fill="#C5C5C7"/>
<path d="M121.677 39L120.736 38.886C120.736 38.5441 124.657 5.11557 103 0.899015L103.183 0C125.768 4.39383 121.755 38.6581 121.677 39Z" fill="#848282"/>
<path d="M149 186.279L114 189L119.388 51.2469L131.047 44L147.2 46.7207L149 186.279Z" fill="#B9B9B9"/>
<path opacity="0.2" d="M149 186.279L114 189L119.388 51.2469L131.047 44L147.2 46.7207L149 186.279Z" fill="#FF0909"/>
<path d="M131 43.891L75.2006 33L59 175.399L113.903 189L131 43.891Z" fill="#FF7B7B"/>
<path d="M24.3072 39H16.2006L0 181L36 179.198L24.3072 39Z" fill="#B9B9B9"/>
<path opacity="0.2" d="M24.3072 39H16.2006L0 181L36 179.198L24.3072 39Z" fill="#FF7D05"/>
<path d="M21.8681 38L12 180.01L98.1319 189L108 50.5833L21.8681 38Z" fill="#FFE76B"/>
<path opacity="0.2" d="M45.5 52C46.3284 52 47 51.1046 47 50C47 48.8954 46.3284 48 45.5 48C44.6716 48 44 48.8954 44 50C44 51.1046 44.6716 52 45.5 52Z" fill="black"/>
<path opacity="0.2" d="M83.5 57C84.3284 57 85 56.1046 85 55C85 53.8954 84.3284 53 83.5 53C82.6716 53 82 53.8954 82 55C82 56.1046 82.6716 57 83.5 57Z" fill="black"/>
<path d="M83.9961 55H83.0876C83.0876 54.6048 83.7311 15.7319 61.636 12.1493C57.2826 11.4481 53.7241 12.4426 51.0616 15.1072C41.9384 24.2485 45.7113 50.066 45.7492 50.321L44.8533 50.4612C44.6892 49.3775 40.9793 23.917 50.4307 14.457C53.3077 11.5629 57.1438 10.4792 61.7874 11.2314C84.6523 14.9287 84.0087 54.6048 83.9961 55Z" fill="#848282"/>
<mask id="path-15-inside-1" fill="white">
<path d="M108.445 44L107.586 43.6047C107.731 43.2986 122.454 12.5279 103 1.80339L103.476 1C123.683 12.1453 108.604 43.6812 108.445 44Z"/>
</mask>
<path d="M108.445 44L107.586 43.6047C107.731 43.2986 122.454 12.5279 103 1.80339L103.476 1C123.683 12.1453 108.604 43.6812 108.445 44Z" fill="#848282"/>
<path d="M108.445 44L108.027 44.9084L108.908 45.314L109.34 44.4454L108.445 44ZM107.586 43.6047L106.683 43.1756L106.248 44.09L107.168 44.5131L107.586 43.6047ZM103 1.80339L102.14 1.29379L101.614 2.18119L102.517 2.67913L103 1.80339ZM103.476 1L103.959 0.124362L103.11 -0.344011L102.615 0.490399L103.476 1ZM108.863 43.0916L108.004 42.6963L107.168 44.5131L108.027 44.9084L108.863 43.0916ZM108.489 44.0337C108.572 43.8586 112.344 35.9769 113.633 26.7493C114.916 17.5633 113.778 6.60331 103.483 0.927647L102.517 2.67913C111.675 7.72795 112.903 17.5156 111.652 26.4726C110.407 35.388 106.745 43.0447 106.683 43.1756L108.489 44.0337ZM103.86 2.31299L104.336 1.5096L102.615 0.490399L102.14 1.29379L103.86 2.31299ZM102.993 1.87564C112.534 7.13839 113.854 17.2308 112.607 26.4255C111.987 30.995 110.74 35.2459 109.634 38.3814C109.082 39.9469 108.566 41.229 108.185 42.1274C107.995 42.5764 107.838 42.9292 107.727 43.1731C107.672 43.295 107.628 43.3896 107.597 43.4552C107.564 43.5242 107.549 43.5557 107.55 43.5546L109.34 44.4454C109.441 44.2439 113.303 36.1675 114.588 26.6944C115.869 17.2551 114.624 6.00693 103.959 0.124362L102.993 1.87564Z" fill="#848282" mask="url(#path-15-inside-1)"/>
<path d="M103 1C97.128 1.20904 85.9712 8.90169 88.32 38" stroke="#848282"/>
</svg>
