<svg width="202" height="119" viewBox="0 0 202 119" fill="none" xmlns="http://www.w3.org/2000/svg">
<path d="M13.8527 84.7226C13.8527 84.7226 19.8273 83.7681 23.412 87.9838C23.412 87.9838 20.7832 90.0519 15.1273 87.1884L13.8527 84.7226Z" fill="#B9B9B9"/>
<path d="M13.2267 84.6292C13.2267 84.6292 9.41441 89.3136 11.2921 94.5292C11.2921 94.5292 14.3989 93.2878 14.7374 86.9643L13.2267 84.6292Z" fill="#B9B9B9"/>
<path d="M9.80139 76.9278C9.80139 76.9278 12.1912 72.5502 21.7505 78.6777C21.7505 78.6777 20.4759 81.6208 16.2539 81.3821C12.0319 81.1435 10.9166 79.2345 9.80139 76.9278Z" fill="#B9B9B9"/>
<path d="M9.18399 76.6124C9.18399 76.6124 4.22513 76.0442 3.74432 87.3789C3.74432 87.3789 6.88806 88.0295 9.1214 84.4444C11.3547 80.8593 10.4386 78.8481 9.18399 76.6124Z" fill="#B9B9B9"/>
<path d="M2.68317 71.5529L73.9566 58.5791L168.397 73.6011L109.738 94.6881L2.68317 71.5529Z" fill="#B9B9B9"/>
<path d="M2.68317 71.5529L73.9566 58.5791L168.397 73.6011L109.738 94.6881L2.68317 71.5529Z" fill="#B9B9B9"/>
<path d="M2.68314 71.5503C2.68314 71.5503 -3.98274 84.1605 3.69881 95.8076L109.391 118.676C109.391 118.676 102.831 108.631 109.73 94.6884L2.68314 71.5503Z" fill="#B9B9B9"/>
<path opacity="0.1" d="M2.68314 71.5503C2.68314 71.5503 -3.98274 84.1605 3.69881 95.8076L109.391 118.676C109.391 118.676 102.831 108.631 109.73 94.6884L2.68314 71.5503Z" fill="black"/>
<path opacity="0.1" d="M104.555 97.228C104.555 97.228 98.8647 104.046 104.555 114.273Z" fill="black"/>
<path opacity="0.1" d="M132.102 97.1129L106.58 105.615L106.67 105.884L132.192 97.3823L132.102 97.1129Z" fill="black"/>
<path opacity="0.1" d="M137.214 96.2665L106.572 107.901L106.673 108.167L137.315 96.532L137.214 96.2665Z" fill="black"/>
<path opacity="0.1" d="M141.909 96.2256L106.743 110.598L106.851 110.861L142.017 96.4885L141.909 96.2256Z" fill="black"/>
<path opacity="0.1" d="M147.014 94.9949L107.153 112.974L107.27 113.233L147.131 95.2538L147.014 94.9949Z" fill="black"/>
<path opacity="0.1" d="M151.303 95.0008L107.469 114.132L107.583 114.392L151.417 95.2611L151.303 95.0008Z" fill="black"/>
<path opacity="0.1" d="M160.685 93.4101L108.13 116.075L108.243 116.336L160.798 93.6709L160.685 93.4101Z" fill="black"/>
<path opacity="0.3" d="M29.1617 72.9393L79.2341 62.4285L109.738 68.252L68.7075 81.4616L29.1617 72.9393Z" fill="white"/>
<path d="M168.397 73.6013C168.397 73.6013 170.986 74.6439 169.467 76.2546C167.947 77.8653 109.73 94.6883 109.73 94.6883L168.397 73.6013Z" fill="#B9B9B9"/>
<path d="M193.544 49.3101C193.544 49.3101 187.097 57.1676 192.218 69.0534L140.723 91.3535L135.782 92.3932L133.506 82.4505L135.051 69.9056V63.0395L193.544 49.3101Z" fill="#D5D6DB"/>
<path d="M30.9341 44.2278L102.205 31.2568L196.648 46.2789L137.989 67.3659L30.9341 44.2278Z" fill="#3A3768"/>
<path d="M30.9228 44.2275C30.9228 44.2275 24.2541 56.8377 31.9356 68.4849L137.628 91.3531C137.628 91.3531 131.07 81.2996 137.978 67.3628L30.9228 44.2275Z" fill="#3A3768"/>
<path opacity="0.1" d="M30.9228 44.2275C30.9228 44.2275 24.2541 56.8377 31.9356 68.4849L137.628 91.3531C137.628 91.3531 131.07 81.2996 137.978 67.3628L104.555 60.1387L30.9228 44.2275Z" fill="black"/>
<path opacity="0.1" d="M34.0807 48.5996C34.0807 48.5996 30.2741 57.8236 34.0807 63.7977Z" fill="black"/>
<path d="M137.639 91.3532L196.648 66.2124C196.648 66.2124 199.945 66.9226 197.812 69.3372C195.678 71.7519 138.777 93.7679 138.777 93.7679L31.947 68.485L137.639 91.3532Z" fill="#3A3768"/>
<path opacity="0.1" d="M137.639 91.3532L196.648 66.2124C196.648 66.2124 199.945 66.9226 197.812 69.3372C195.678 71.7519 138.777 93.7679 138.777 93.7679L31.947 68.485L137.639 91.3532Z" fill="black"/>
<path opacity="0.1" d="M132.803 69.9055C132.803 69.9055 127.113 76.7234 132.803 86.9501Z" fill="black"/>
<path opacity="0.1" d="M160.353 69.7932L134.83 78.2954L134.92 78.5649L160.443 70.0627L160.353 69.7932Z" fill="black"/>
<path opacity="0.1" d="M165.468 68.9457L134.826 80.5806L134.927 80.8461L165.569 69.2112L165.468 68.9457Z" fill="black"/>
<path opacity="0.1" d="M170.159 68.9009L134.993 83.2734L135.1 83.5363L170.267 69.1638L170.159 68.9009Z" fill="black"/>
<path opacity="0.1" d="M175.267 67.6707L135.406 85.6501L135.523 85.909L175.385 67.9296L175.267 67.6707Z" fill="black"/>
<path opacity="0.1" d="M179.552 67.6729L135.718 86.8042L135.832 87.0645L179.666 67.9332L179.552 67.6729Z" fill="black"/>
<path opacity="0.1" d="M188.936 66.0825L136.381 88.7476L136.494 89.0083L189.049 66.3433L188.936 66.0825Z" fill="black"/>
<path opacity="0.45" d="M57.4127 45.6168L107.485 35.106L137.989 40.9295L96.9585 54.1391L57.4127 45.6168Z" fill="white"/>
<path d="M196.648 46.2788C196.648 46.2788 199.234 47.3214 197.718 48.9293C196.201 50.5371 137.989 67.363 137.989 67.363L196.648 46.2788Z" fill="#3A3768"/>
<path d="M196.218 18.053C196.218 18.053 189.769 32.1631 194.89 44.046L143.395 60.0963L138.465 61.1388L136.189 51.1962L137.711 38.6485V31.7824L196.218 18.053Z" fill="#D5D6DB"/>
<path d="M33.617 12.9738L104.89 0L199.334 15.022L140.672 36.1091L33.617 12.9738Z" fill="#B9B9B9"/>
<path d="M33.617 12.9707C33.617 12.9707 26.9398 25.5809 34.6213 37.228L140.314 60.0962C140.314 60.0962 133.753 50.0427 140.661 36.1088L33.617 12.9707Z" fill="#B9B9B9"/>
<path opacity="0.1" d="M33.617 12.9707C33.617 12.9707 26.9398 25.5809 34.6213 37.228L140.314 60.0962C140.314 60.0962 133.753 50.0427 140.661 36.1088L33.617 12.9707Z" fill="black"/>
<path opacity="0.1" d="M36.7665 17.3428C36.7665 17.3428 32.957 26.5696 36.7665 32.5409Z" fill="black"/>
<path d="M140.325 60.0963L199.331 41.2051C199.331 41.2051 202.631 41.9153 200.497 44.33C198.364 46.7446 141.463 62.511 141.463 62.511L34.6326 37.228L140.325 60.0963Z" fill="#B9B9B9"/>
<path opacity="0.1" d="M140.325 60.0963L199.331 41.2051C199.331 41.2051 202.631 41.9153 200.497 44.33C198.364 46.7446 141.463 62.511 141.463 62.511L34.6326 37.228L140.325 60.0963Z" fill="black"/>
<path opacity="0.1" d="M135.489 38.6484C135.489 38.6484 129.799 45.4663 135.489 55.6931Z" fill="black"/>
<path opacity="0.1" d="M163.039 38.5357L137.517 47.0378L137.607 47.3073L163.129 38.8051L163.039 38.5357Z" fill="black"/>
<path opacity="0.1" d="M168.153 37.6894L137.51 49.3242L137.611 49.5897L168.254 37.9549L168.153 37.6894Z" fill="black"/>
<path opacity="0.1" d="M172.841 37.6465L137.675 52.019L137.782 52.2819L172.949 37.9094L172.841 37.6465Z" fill="black"/>
<path opacity="0.1" d="M177.953 36.4136L138.092 54.3931L138.209 54.652L178.07 36.6725L177.953 36.4136Z" fill="black"/>
<path opacity="0.1" d="M182.24 36.4186L138.405 55.5498L138.519 55.8101L182.354 36.6789L182.24 36.4186Z" fill="black"/>
<path opacity="0.1" d="M191.622 34.8297L139.067 57.4949L139.18 57.7557L191.735 35.0905L191.622 34.8297Z" fill="black"/>
<path opacity="0.3" d="M60.0957 14.36L110.168 3.84912L140.672 9.67271L99.6414 22.8823L60.0957 14.36Z" fill="white"/>
<path d="M199.331 15.0217C199.331 15.0217 201.92 16.0643 200.401 17.675C198.881 19.2857 140.672 36.1087 140.672 36.1087L199.331 15.0217Z" fill="#B9B9B9"/>
<path opacity="0.1" d="M159.885 38.9923C159.885 38.9923 165.765 35.1744 173.256 38.8673" stroke="black" stroke-miterlimit="10"/>
<path opacity="0.1" d="M120.521 38.1259C120.521 38.1259 122.99 32.5636 129.585 36.8049" stroke="black" stroke-miterlimit="10"/>
<path opacity="0.1" d="M145.725 17.4792C146.752 16.7093 147.845 16.0315 148.991 15.4538C150.698 14.6328 153.828 12.5022 153.828 12.5022" fill="black"/>
</svg>
