<svg width="520" height="520" viewBox="0 0 520 520" fill="none" xmlns="http://www.w3.org/2000/svg">
<rect width="520" height="520" fill="white"/>
<path d="M229.596 272.735C236.3 272.735 241.734 267.3 241.734 260.597C241.734 253.893 236.3 248.459 229.596 248.459C222.893 248.459 217.458 253.893 217.458 260.597C217.458 267.3 222.893 272.735 229.596 272.735Z" fill="#FA5C5C"/>
<path d="M229.597 216.694C233.162 216.694 236.053 213.803 236.053 210.237C236.053 206.671 233.162 203.781 229.597 203.781C226.031 203.781 223.14 206.671 223.14 210.237C223.14 213.803 226.031 216.694 229.597 216.694Z" fill="#FA5C5C"/>
<path d="M208.937 207.913C212.502 207.913 215.393 205.022 215.393 201.456C215.393 197.891 212.502 195 208.937 195C205.371 195 202.48 197.891 202.48 201.456C202.48 205.022 205.371 207.913 208.937 207.913Z" stroke="#FA5C5C" stroke-width="5" stroke-miterlimit="10"/>
<path d="M249.999 207.913C253.565 207.913 256.455 205.022 256.455 201.456C256.455 197.891 253.565 195 249.999 195C246.433 195 243.542 197.891 243.542 201.456C243.542 205.022 246.433 207.913 249.999 207.913Z" stroke="#FA5C5C" stroke-width="5" stroke-miterlimit="10"/>
<path d="M229.597 260.597L229.597 210.237" stroke="#FA5C5C" stroke-width="5" stroke-miterlimit="10"/>
<path d="M209.453 207.655L209.453 226.249L229.597 234.255" stroke="#FA5C5C" stroke-width="5" stroke-miterlimit="10"/>
<path d="M249.999 207.655L249.999 226.249L229.597 234.255" stroke="#FA5C5C" stroke-width="5" stroke-miterlimit="10"/>
<path d="M279.956 267.311C283.522 267.311 286.413 264.421 286.413 260.855C286.413 257.289 283.522 254.398 279.956 254.398C276.391 254.398 273.5 257.289 273.5 260.855C273.5 264.421 276.391 267.311 279.956 267.311Z" fill="#FA5C5C"/>
<path d="M288.737 246.651C292.303 246.651 295.193 243.76 295.193 240.195C295.193 236.629 292.303 233.738 288.737 233.738C285.171 233.738 282.281 236.629 282.281 240.195C282.281 243.76 285.171 246.651 288.737 246.651Z" stroke="#FA5C5C" stroke-width="5" stroke-miterlimit="10"/>
<path d="M288.737 287.713C292.303 287.713 295.193 284.823 295.193 281.257C295.193 277.691 292.303 274.801 288.737 274.801C285.171 274.801 282.281 277.691 282.281 281.257C282.281 284.823 285.171 287.713 288.737 287.713Z" stroke="#FA5C5C" stroke-width="5" stroke-miterlimit="10"/>
<path d="M229.597 260.855L279.956 260.855" stroke="#FA5C5C" stroke-width="5" stroke-miterlimit="10"/>
<path d="M282.539 240.453L263.944 240.453L255.939 260.855" stroke="#FA5C5C" stroke-width="5" stroke-miterlimit="10"/>
<path d="M282.539 281.257L263.944 281.257L255.939 260.855" stroke="#FA5C5C" stroke-width="5" stroke-miterlimit="10"/>
<path d="M229.596 317.413C233.162 317.413 236.053 314.522 236.053 310.956C236.053 307.39 233.162 304.5 229.596 304.5C226.031 304.5 223.14 307.39 223.14 310.956C223.14 314.522 226.031 317.413 229.596 317.413Z" fill="#FA5C5C"/>
<path d="M250.257 325.935C253.822 325.935 256.713 323.044 256.713 319.479C256.713 315.913 253.822 313.022 250.257 313.022C246.691 313.022 243.8 315.913 243.8 319.479C243.8 323.044 246.691 325.935 250.257 325.935Z" stroke="#FA5C5C" stroke-width="5" stroke-miterlimit="10"/>
<path d="M209.194 325.935C212.76 325.935 215.651 323.044 215.651 319.479C215.651 315.913 212.76 313.022 209.194 313.022C205.628 313.022 202.738 315.913 202.738 319.479C202.738 323.044 205.628 325.935 209.194 325.935Z" stroke="#FA5C5C" stroke-width="5" stroke-miterlimit="10"/>
<path d="M229.596 260.597L229.596 310.956" stroke="#FA5C5C" stroke-width="5" stroke-miterlimit="10"/>
<path d="M249.998 313.281L249.998 294.945L229.596 286.939" stroke="#FA5C5C" stroke-width="5" stroke-miterlimit="10"/>
<path d="M209.194 313.281L209.194 294.945L229.596 286.939" stroke="#FA5C5C" stroke-width="5" stroke-miterlimit="10"/>
<path d="M179.237 267.053C182.803 267.053 185.693 264.162 185.693 260.597C185.693 257.031 182.803 254.14 179.237 254.14C175.671 254.14 172.781 257.031 172.781 260.597C172.781 264.162 175.671 267.053 179.237 267.053Z" fill="#FA5C5C"/>
<path d="M170.456 287.972C174.022 287.972 176.913 285.081 176.913 281.515C176.913 277.95 174.022 275.059 170.456 275.059C166.891 275.059 164 277.95 164 281.515C164 285.081 166.891 287.972 170.456 287.972Z" stroke="#FA5C5C" stroke-width="5" stroke-miterlimit="10"/>
<path d="M170.456 246.909C174.022 246.909 176.913 244.019 176.913 240.453C176.913 236.887 174.022 233.996 170.456 233.996C166.891 233.996 164 236.887 164 240.453C164 244.019 166.891 246.909 170.456 246.909Z" stroke="#FA5C5C" stroke-width="5" stroke-miterlimit="10"/>
<path d="M229.597 260.597L179.237 260.597" stroke="#FA5C5C" stroke-width="5" stroke-miterlimit="10"/>
<path d="M176.655 280.999L195.249 280.999L203.255 260.597" stroke="#FA5C5C" stroke-width="5" stroke-miterlimit="10"/>
<path d="M176.655 240.453L195.249 240.453L203.255 260.597" stroke="#FA5C5C" stroke-width="5" stroke-miterlimit="10"/>
<path d="M135.745 275.664C134.635 276.688 133.121 277.733 131.201 278.8C129.281 279.867 127.083 280.784 124.609 281.552C122.134 282.277 119.489 282.64 116.673 282.64C113.217 282.64 109.995 282.107 107.009 281.04C104.022 279.931 101.398 278.373 99.1365 276.368C96.9178 274.363 95.1898 271.952 93.9525 269.136C92.7152 266.277 92.0965 263.099 92.0965 259.6C92.0965 256.315 92.7365 253.285 94.0165 250.512C95.3392 247.739 97.1525 245.328 99.4565 243.28C101.761 241.232 104.406 239.653 107.393 238.544C110.379 237.392 113.537 236.816 116.865 236.816C119.595 236.816 122.219 237.2 124.737 237.968C127.254 238.693 129.494 239.632 131.457 240.784C133.462 241.936 135.062 243.131 136.257 244.368L131.969 249.936C129.878 248.101 127.553 246.608 124.993 245.456C122.433 244.261 119.553 243.664 116.353 243.664C114.177 243.664 112.065 244.027 110.017 244.752C107.969 245.477 106.113 246.544 104.449 247.952C102.827 249.317 101.526 250.981 100.545 252.944C99.6058 254.907 99.1365 257.125 99.1365 259.6C99.1365 263.184 99.9898 266.192 101.697 268.624C103.403 271.013 105.643 272.827 108.417 274.064C111.233 275.259 114.219 275.856 117.377 275.856C119.681 275.856 121.75 275.557 123.585 274.96C125.419 274.32 127.062 273.552 128.513 272.656C129.963 271.76 131.265 270.864 132.417 269.968L135.745 275.664Z" fill="#7C1313"/>
<path d="M342.579 236.2C346.547 236.2 350.024 236.797 353.011 237.992C355.997 239.144 358.493 240.765 360.499 242.856C362.504 244.904 364.019 247.293 365.043 250.024C366.067 252.712 366.579 255.571 366.579 258.6C366.579 262.696 365.661 266.451 363.827 269.864C362.035 273.235 359.368 275.944 355.827 277.992C352.285 279.997 347.869 281 342.579 281H321.331V236.2H342.579ZM342.259 274.344C346.269 274.344 349.512 273.64 351.987 272.232C354.504 270.824 356.339 268.925 357.491 266.536C358.685 264.147 359.283 261.501 359.283 258.6C359.283 255.784 358.685 253.181 357.491 250.792C356.339 248.403 354.504 246.483 351.987 245.032C349.512 243.581 346.269 242.856 342.259 242.856H328.243V274.344H342.259ZM383.393 236.2H418.081V242.856H390.305V254.696H414.561V261.352H390.305V274.344H418.081V281H383.393V236.2Z" fill="#7C1313"/>
</svg>
