<svg width="520" height="520" viewBox="0 0 520 520" fill="none" xmlns="http://www.w3.org/2000/svg">
<g id="Code">
<rect id="Rectangle 18" width="520" height="520" fill="white"/>
<g id="Text">
<g id="Flower">
<g id="Group">
<path id="Vector" d="M229.596 272.735C236.3 272.735 241.734 267.3 241.734 260.597C241.734 253.893 236.3 248.459 229.596 248.459C222.893 248.459 217.458 253.893 217.458 260.597C217.458 267.3 222.893 272.735 229.596 272.735Z" fill="#FA5C5C"/>
</g>
<g id="Group_2">
<path id="Vector_2" d="M229.597 216.694C233.162 216.694 236.053 213.803 236.053 210.237C236.053 206.671 233.162 203.781 229.597 203.781C226.031 203.781 223.14 206.671 223.14 210.237C223.14 213.803 226.031 216.694 229.597 216.694Z" fill="#FA5C5C"/>
<path id="Vector_3" d="M208.937 207.913C212.502 207.913 215.393 205.022 215.393 201.456C215.393 197.891 212.502 195 208.937 195C205.371 195 202.48 197.891 202.48 201.456C202.48 205.022 205.371 207.913 208.937 207.913Z" stroke="#FA5C5C" stroke-width="5" stroke-miterlimit="10"/>
<path id="Vector_4" d="M249.999 207.913C253.565 207.913 256.455 205.022 256.455 201.456C256.455 197.891 253.565 195 249.999 195C246.433 195 243.542 197.891 243.542 201.456C243.542 205.022 246.433 207.913 249.999 207.913Z" stroke="#FA5C5C" stroke-width="5" stroke-miterlimit="10"/>
<path id="Vector_5" d="M229.597 260.597L229.597 210.237" stroke="#FA5C5C" stroke-width="5" stroke-miterlimit="10"/>
<path id="Vector_6" d="M209.453 207.655L209.453 226.249L229.597 234.255" stroke="#FA5C5C" stroke-width="5" stroke-miterlimit="10"/>
<path id="Vector_7" d="M249.999 207.655L249.999 226.249L229.597 234.255" stroke="#FA5C5C" stroke-width="5" stroke-miterlimit="10"/>
</g>
<g id="Group_3">
<path id="Vector_8" d="M279.956 267.311C283.522 267.311 286.413 264.421 286.413 260.855C286.413 257.289 283.522 254.398 279.956 254.398C276.391 254.398 273.5 257.289 273.5 260.855C273.5 264.421 276.391 267.311 279.956 267.311Z" fill="#FA5C5C"/>
<path id="Vector_9" d="M288.737 246.651C292.303 246.651 295.193 243.76 295.193 240.195C295.193 236.629 292.303 233.738 288.737 233.738C285.171 233.738 282.281 236.629 282.281 240.195C282.281 243.76 285.171 246.651 288.737 246.651Z" stroke="#FA5C5C" stroke-width="5" stroke-miterlimit="10"/>
<path id="Vector_10" d="M288.737 287.713C292.303 287.713 295.193 284.823 295.193 281.257C295.193 277.691 292.303 274.801 288.737 274.801C285.171 274.801 282.281 277.691 282.281 281.257C282.281 284.823 285.171 287.713 288.737 287.713Z" stroke="#FA5C5C" stroke-width="5" stroke-miterlimit="10"/>
<path id="Vector_11" d="M229.597 260.855L279.956 260.855" stroke="#FA5C5C" stroke-width="5" stroke-miterlimit="10"/>
<path id="Vector_12" d="M282.539 240.453L263.944 240.453L255.939 260.855" stroke="#FA5C5C" stroke-width="5" stroke-miterlimit="10"/>
<path id="Vector_13" d="M282.539 281.257L263.944 281.257L255.939 260.855" stroke="#FA5C5C" stroke-width="5" stroke-miterlimit="10"/>
</g>
<g id="Group_4">
<path id="Vector_14" d="M229.596 317.413C233.162 317.413 236.053 314.522 236.053 310.956C236.053 307.39 233.162 304.5 229.596 304.5C226.031 304.5 223.14 307.39 223.14 310.956C223.14 314.522 226.031 317.413 229.596 317.413Z" fill="#FA5C5C"/>
<path id="Vector_15" d="M250.257 325.935C253.822 325.935 256.713 323.044 256.713 319.479C256.713 315.913 253.822 313.022 250.257 313.022C246.691 313.022 243.8 315.913 243.8 319.479C243.8 323.044 246.691 325.935 250.257 325.935Z" stroke="#FA5C5C" stroke-width="5" stroke-miterlimit="10"/>
<path id="Vector_16" d="M209.194 325.935C212.76 325.935 215.651 323.044 215.651 319.479C215.651 315.913 212.76 313.022 209.194 313.022C205.628 313.022 202.738 315.913 202.738 319.479C202.738 323.044 205.628 325.935 209.194 325.935Z" stroke="#FA5C5C" stroke-width="5" stroke-miterlimit="10"/>
<path id="Vector_17" d="M229.596 260.597L229.596 310.956" stroke="#FA5C5C" stroke-width="5" stroke-miterlimit="10"/>
<path id="Vector_18" d="M249.998 313.281L249.998 294.945L229.596 286.939" stroke="#FA5C5C" stroke-width="5" stroke-miterlimit="10"/>
<path id="Vector_19" d="M209.194 313.281L209.194 294.945L229.596 286.939" stroke="#FA5C5C" stroke-width="5" stroke-miterlimit="10"/>
</g>
<g id="Group_5">
<path id="Vector_20" d="M179.237 267.053C182.803 267.053 185.693 264.162 185.693 260.597C185.693 257.031 182.803 254.14 179.237 254.14C175.671 254.14 172.781 257.031 172.781 260.597C172.781 264.162 175.671 267.053 179.237 267.053Z" fill="#FA5C5C"/>
<path id="Vector_21" d="M170.456 287.972C174.022 287.972 176.913 285.081 176.913 281.515C176.913 277.95 174.022 275.059 170.456 275.059C166.891 275.059 164 277.95 164 281.515C164 285.081 166.891 287.972 170.456 287.972Z" stroke="#FA5C5C" stroke-width="5" stroke-miterlimit="10"/>
<path id="Vector_22" d="M170.456 246.909C174.022 246.909 176.913 244.019 176.913 240.453C176.913 236.887 174.022 233.996 170.456 233.996C166.891 233.996 164 236.887 164 240.453C164 244.019 166.891 246.909 170.456 246.909Z" stroke="#FA5C5C" stroke-width="5" stroke-miterlimit="10"/>
<path id="Vector_23" d="M229.597 260.597L179.237 260.597" stroke="#FA5C5C" stroke-width="5" stroke-miterlimit="10"/>
<path id="Vector_24" d="M176.655 280.999L195.249 280.999L203.255 260.597" stroke="#FA5C5C" stroke-width="5" stroke-miterlimit="10"/>
<path id="Vector_25" d="M176.655 240.453L195.249 240.453L203.255 260.597" stroke="#FA5C5C" stroke-width="5" stroke-miterlimit="10"/>
</g>
</g>
<text id="C" fill="#7C1313" xml:space="preserve" style="white-space: pre" font-family="Lexend Peta" font-size="64" letter-spacing="0em"><tspan x="85.3125" y="282">C</tspan></text>
<text id="DE" fill="#7C1313" xml:space="preserve" style="white-space: pre" font-family="Lexend Peta" font-size="64" letter-spacing="0em"><tspan x="311.219" y="281">DE</tspan></text>
</g>
</g>
</svg>
