<svg width="579" height="579" viewBox="0 0 579 579" fill="none" xmlns="http://www.w3.org/2000/svg">
<rect width="579" height="579" fill="white"/>
<path d="M159.103 298.566L170.906 347.322L401.787 291.431L389.984 242.675C389.842 242.079 389.551 241.528 389.139 241.075C388.726 240.621 388.206 240.279 387.626 240.08C387.198 239.929 386.746 239.861 386.292 239.879L252.833 170.777C252.051 170.378 251.152 170.271 250.298 170.476C249.444 170.681 248.692 171.185 248.177 171.896L183.857 261.59L159.609 295.413C159.565 295.472 159.534 295.54 159.519 295.612C159.504 295.684 159.504 295.759 159.52 295.831C159.027 296.652 158.877 297.635 159.103 298.566V298.566Z" fill="white"/>
<path d="M159.52 295.831C159.532 295.894 159.555 295.955 159.59 296.009C159.625 296.063 159.67 296.11 159.723 296.147C159.786 296.19 159.857 296.22 159.931 296.234C160.006 296.249 160.082 296.248 160.157 296.232C160.277 296.2 160.383 296.127 160.456 296.025L160.539 295.91L161.801 294.144L184.73 262.18L249.031 172.507C249.398 171.999 249.935 171.639 250.544 171.493C251.154 171.347 251.796 171.424 252.353 171.711L384.778 240.277L385.967 240.894C386.015 240.914 386.064 240.931 386.114 240.946C386.204 240.929 386.294 240.921 386.386 240.92C386.51 240.878 386.613 240.79 386.675 240.675C386.708 240.614 386.727 240.547 386.734 240.479C386.74 240.41 386.733 240.341 386.713 240.275C386.693 240.209 386.659 240.148 386.615 240.095C386.571 240.042 386.517 239.998 386.456 239.966L386.292 239.879L252.833 170.777C252.051 170.378 251.152 170.271 250.298 170.476C249.444 170.681 248.692 171.185 248.177 171.896L183.857 261.59L159.609 295.413C159.565 295.472 159.534 295.54 159.519 295.612C159.504 295.684 159.504 295.759 159.52 295.831V295.831Z" fill="#3F3D56"/>
<path d="M228.861 300.803L234 301.373L272.143 305.598L297.429 308.397L298.922 308.563L330.475 283.919L331.683 282.975L339.136 277.154L365.649 256.448L365.808 254.994L375.239 169.88C375.367 168.708 375.026 167.532 374.289 166.612C373.553 165.691 372.481 165.1 371.31 164.968L245.454 151.026C244.282 150.898 243.107 151.24 242.186 151.976C241.266 152.713 240.675 153.784 240.542 154.956L233.892 214.993L230.203 248.279L226.903 278.057L225.373 291.887L224.927 295.892C224.799 297.065 225.142 298.24 225.879 299.16C226.617 300.081 227.689 300.671 228.861 300.803V300.803Z" fill="#E6E6E6"/>
<path d="M263.446 226.196L317.963 232.235L337.296 234.375C338.15 234.47 339.014 234.395 339.839 234.156C340.663 233.917 341.433 233.517 342.103 232.98C342.774 232.444 343.332 231.78 343.746 231.028C344.16 230.275 344.422 229.449 344.516 228.595C344.611 227.742 344.536 226.878 344.297 226.053C344.058 225.228 343.658 224.459 343.121 223.788C342.585 223.118 341.921 222.56 341.169 222.146C340.416 221.732 339.59 221.47 338.736 221.375L314.689 218.712L264.89 213.19C263.166 213 261.436 213.502 260.082 214.586C258.728 215.67 257.86 217.248 257.668 218.972C257.477 220.696 257.978 222.426 259.061 223.78C260.145 225.135 261.722 226.004 263.446 226.196Z" fill="white"/>
<path d="M260.342 250.313C260.483 250.338 260.623 250.363 260.767 250.377L324.052 257.388L334.618 258.561C336.343 258.751 338.072 258.249 339.427 257.165C340.781 256.08 341.649 254.502 341.84 252.777C342.031 251.053 341.529 249.323 340.444 247.969C339.359 246.614 337.781 245.746 336.057 245.556L320.778 243.865L270.648 238.31L262.212 237.376C260.525 237.187 258.83 237.663 257.487 238.701C256.144 239.739 255.258 241.259 255.015 242.939C254.772 244.619 255.192 246.328 256.186 247.704C257.18 249.08 258.671 250.015 260.342 250.313V250.313Z" fill="white"/>
<path d="M253.18 271.696C253.698 272.557 254.408 273.287 255.255 273.829C256.101 274.371 257.061 274.711 258.06 274.822L283.999 277.695L330.196 282.813L330.206 282.81L331.683 282.975L339.136 277.155C339.182 276.712 339.182 276.267 339.137 275.825C338.98 274.34 338.32 272.953 337.268 271.894C336.216 270.835 334.834 270.167 333.35 270.001L326.933 269.288L301.476 266.471L283.159 264.439L259.498 261.817C258.286 261.683 257.06 261.89 255.959 262.416C254.859 262.942 253.927 263.766 253.27 264.793C252.612 265.821 252.255 267.012 252.24 268.232C252.224 269.452 252.549 270.652 253.18 271.696L253.18 271.696Z" fill="white"/>
<path d="M289.613 196.718L303.177 198.221L309.168 198.886L318.218 199.887C319.943 200.078 321.673 199.576 323.027 198.492C324.381 197.407 325.249 195.829 325.44 194.104C325.631 192.38 325.129 190.65 324.044 189.296C322.96 187.941 321.381 187.073 319.657 186.882L291.058 183.717C289.333 183.525 287.604 184.027 286.249 185.11C284.895 186.194 284.026 187.771 283.834 189.495C283.643 191.219 284.144 192.949 285.228 194.303C286.311 195.658 287.889 196.527 289.613 196.718V196.718Z" fill="white"/>
<path d="M178.698 232.931L195.235 301.244L222.836 306.493L248.368 311.354L275.762 316.566L284.515 318.232C285.027 318.328 285.554 318.315 286.061 318.192C286.568 318.07 287.043 317.841 287.454 317.52L294.476 312.036L298.922 308.564L330.475 283.919L310.412 201.045C310.214 200.221 309.782 199.471 309.168 198.886C308.63 198.369 307.97 197.995 307.249 197.8C306.528 197.604 305.769 197.594 305.043 197.769L181.974 227.562C180.828 227.84 179.839 228.561 179.225 229.568C178.61 230.575 178.421 231.784 178.698 232.931V232.931Z" fill="#FFD0E5"/>
<path d="M216.618 287.277C217.027 288.962 218.089 290.416 219.569 291.319C221.049 292.222 222.828 292.501 224.514 292.095L296.728 274.613C298.413 274.203 299.866 273.141 300.769 271.661C301.672 270.181 301.952 268.403 301.546 266.717C301.528 266.634 301.504 266.551 301.475 266.471C301.014 264.845 299.942 263.462 298.483 262.609C297.024 261.757 295.292 261.503 293.65 261.899L221.436 279.381C219.751 279.79 218.297 280.852 217.393 282.332C216.49 283.812 216.211 285.591 216.618 287.277Z" fill="white"/>
<path d="M222.836 306.493L248.368 311.353L302.453 298.261C304.139 297.853 305.593 296.791 306.497 295.311C307.4 293.83 307.679 292.051 307.271 290.365C306.862 288.679 305.801 287.224 304.321 286.321C302.84 285.417 301.061 285.139 299.375 285.547L227.161 303.029C225.651 303.391 224.322 304.282 223.413 305.54C223.194 305.841 223.001 306.159 222.836 306.493Z" fill="white"/>
<path d="M275.762 316.566L284.515 318.232C285.027 318.328 285.554 318.315 286.061 318.192C286.568 318.07 287.043 317.84 287.454 317.52L294.476 312.035L275.762 316.566Z" fill="white"/>
<path d="M231.169 250.645C231.578 252.33 232.639 253.784 234.12 254.688C235.6 255.591 237.378 255.87 239.064 255.463L267.035 248.692C268.719 248.282 270.173 247.22 271.076 245.74C271.979 244.26 272.258 242.482 271.853 240.797C271.635 239.891 271.224 239.043 270.648 238.31C269.874 237.32 268.832 236.574 267.645 236.161C266.459 235.747 265.178 235.684 263.957 235.978L235.987 242.75C234.301 243.158 232.846 244.219 231.943 245.7C231.039 247.18 230.761 248.959 231.169 250.645V250.645Z" fill="white"/>
<path d="M248.366 311.353L275.764 316.567L284.514 318.233C285.027 318.329 285.553 318.315 286.06 318.192C286.566 318.07 287.041 317.841 287.453 317.522L294.48 312.036L292.014 312.633L286.808 316.694C286.514 316.922 286.175 317.085 285.813 317.173C285.451 317.26 285.075 317.27 284.709 317.202L278.23 315.97L250.832 310.756L248.366 311.353ZM330.204 282.814L330.47 283.916L331.686 282.971L330.204 282.814ZM248.366 311.353L275.764 316.567L284.514 318.233C285.027 318.329 285.553 318.315 286.06 318.192C286.566 318.07 287.041 317.841 287.453 317.522L294.48 312.036L292.014 312.633L286.808 316.694C286.514 316.922 286.175 317.085 285.813 317.173C285.451 317.26 285.075 317.27 284.709 317.202L278.23 315.97L250.832 310.756L248.366 311.353ZM248.366 311.353L275.764 316.567L284.514 318.233C285.027 318.329 285.553 318.315 286.06 318.192C286.566 318.07 287.041 317.841 287.453 317.522L294.48 312.036L292.014 312.633L286.808 316.694C286.514 316.922 286.175 317.085 285.813 317.173C285.451 317.26 285.075 317.27 284.709 317.202L278.23 315.97L250.832 310.756L248.366 311.353ZM159.103 298.566L190.019 426.276C190.248 427.22 190.843 428.034 191.672 428.54C192.501 429.046 193.497 429.202 194.441 428.975L418.202 374.807C419.146 374.577 419.96 373.983 420.466 373.154C420.972 372.325 421.128 371.329 420.9 370.385L389.984 242.675C389.842 242.078 389.551 241.528 389.139 241.074C388.726 240.621 388.206 240.278 387.626 240.08C387.198 239.929 386.746 239.861 386.292 239.879C385.764 239.894 385.246 240.03 384.778 240.277C384.562 240.38 384.359 240.506 384.171 240.654L365.807 254.994L339.137 275.827L330.202 282.806L330.204 282.814L330.196 282.816L297.43 308.394L292.014 312.633L286.808 316.694C286.514 316.922 286.175 317.085 285.813 317.173C285.451 317.26 285.075 317.27 284.709 317.202L278.23 315.97L250.832 310.756L223.41 305.54L163.349 294.111C162.837 294.009 162.309 294.021 161.801 294.144C161.118 294.311 160.498 294.671 160.013 295.18C159.828 295.38 159.662 295.598 159.52 295.831C159.027 296.652 158.877 297.635 159.103 298.566V298.566ZM248.366 311.353L275.764 316.567L284.514 318.233C285.027 318.329 285.553 318.315 286.06 318.192C286.566 318.07 287.041 317.841 287.453 317.522L294.48 312.036L292.014 312.633L286.808 316.694C286.514 316.922 286.175 317.085 285.813 317.173C285.451 317.26 285.075 317.27 284.709 317.202L278.23 315.97L250.832 310.756L248.366 311.353ZM248.366 311.353L275.764 316.567L284.514 318.233C285.027 318.329 285.553 318.315 286.06 318.192C286.566 318.07 287.041 317.841 287.453 317.522L294.48 312.036L292.014 312.633L286.808 316.694C286.514 316.922 286.175 317.085 285.813 317.173C285.451 317.26 285.075 317.27 284.709 317.202L278.23 315.97L250.832 310.756L248.366 311.353ZM248.366 311.353L275.764 316.567L284.514 318.233C285.027 318.329 285.553 318.315 286.06 318.192C286.566 318.07 287.041 317.841 287.453 317.522L294.48 312.036L292.014 312.633L286.808 316.694C286.514 316.922 286.175 317.085 285.813 317.173C285.451 317.26 285.075 317.27 284.709 317.202L278.23 315.97L250.832 310.756L248.366 311.353Z" fill="white"/>
<path d="M248.366 311.353L275.764 316.567L284.514 318.233C285.027 318.329 285.553 318.315 286.06 318.192C286.566 318.07 287.041 317.841 287.453 317.522L294.48 312.036L292.014 312.633L286.808 316.694C286.514 316.922 286.175 317.085 285.813 317.173C285.451 317.26 285.075 317.27 284.709 317.202L278.23 315.97L250.832 310.756L248.366 311.353ZM330.204 282.814L330.47 283.916L331.686 282.971L330.204 282.814ZM248.366 311.353L275.764 316.567L284.514 318.233C285.027 318.329 285.553 318.315 286.06 318.192C286.566 318.07 287.041 317.841 287.453 317.522L294.48 312.036L292.014 312.633L286.808 316.694C286.514 316.922 286.175 317.085 285.813 317.173C285.451 317.26 285.075 317.27 284.709 317.202L278.23 315.97L250.832 310.756L248.366 311.353ZM248.366 311.353L275.764 316.567L284.514 318.233C285.027 318.329 285.553 318.315 286.06 318.192C286.566 318.07 287.041 317.841 287.453 317.522L294.48 312.036L292.014 312.633L286.808 316.694C286.514 316.922 286.175 317.085 285.813 317.173C285.451 317.26 285.075 317.27 284.709 317.202L278.23 315.97L250.832 310.756L248.366 311.353ZM160.539 295.91L160.675 296.012C160.697 295.974 160.737 295.941 160.767 295.902C161.07 295.587 161.447 295.351 161.863 295.217C162.279 295.083 162.722 295.055 163.152 295.134L222.838 306.488L248.366 311.353L275.764 316.567L284.514 318.233C285.027 318.329 285.553 318.315 286.06 318.192C286.566 318.07 287.041 317.841 287.453 317.522L294.48 312.036L292.014 312.633L286.808 316.694C286.514 316.922 286.175 317.085 285.813 317.173C285.451 317.26 285.075 317.27 284.709 317.202L278.23 315.97L250.832 310.756L223.41 305.54L163.349 294.111C162.837 294.009 162.309 294.021 161.801 294.144L160.539 295.91ZM159.103 298.566L190.019 426.276C190.248 427.22 190.843 428.034 191.672 428.54C192.501 429.046 193.497 429.202 194.441 428.975L418.202 374.807C419.146 374.577 419.96 373.983 420.466 373.154C420.972 372.325 421.128 371.329 420.9 370.385L389.984 242.675C389.842 242.078 389.551 241.528 389.139 241.074C388.726 240.621 388.206 240.278 387.626 240.08C387.198 239.929 386.746 239.861 386.292 239.879C385.764 239.894 385.246 240.03 384.778 240.277C384.562 240.38 384.359 240.506 384.171 240.654L365.807 254.994L339.137 275.827L330.202 282.806L330.204 282.814L330.196 282.816L297.43 308.394L292.014 312.633L286.808 316.694C286.514 316.922 286.175 317.085 285.813 317.173C285.451 317.26 285.075 317.27 284.709 317.202L278.23 315.97L250.832 310.756L223.41 305.54L163.349 294.111C162.837 294.009 162.309 294.021 161.801 294.144C161.118 294.311 160.498 294.671 160.013 295.18C159.828 295.38 159.662 295.598 159.52 295.831C159.027 296.652 158.877 297.635 159.103 298.566V298.566ZM160.123 298.319C160.031 297.943 160.025 297.551 160.105 297.172C160.185 296.793 160.349 296.436 160.584 296.129C160.605 296.084 160.636 296.044 160.675 296.012C160.697 295.974 160.737 295.941 160.767 295.902C161.07 295.587 161.447 295.351 161.863 295.217C162.279 295.083 162.722 295.055 163.152 295.134L222.838 306.488L248.366 311.353L275.764 316.567L284.514 318.233C285.027 318.329 285.553 318.315 286.06 318.192C286.566 318.07 287.041 317.841 287.453 317.522L294.48 312.036L298.924 308.564L330.47 283.916L331.686 282.971L339.132 277.153L365.65 256.444L384.822 241.473C385.113 241.245 385.45 241.083 385.809 240.996C385.909 240.971 386.011 240.954 386.114 240.945C386.204 240.929 386.294 240.92 386.385 240.919C386.692 240.917 386.997 240.966 387.286 241.066C387.699 241.21 388.07 241.455 388.365 241.779C388.659 242.103 388.868 242.495 388.972 242.92L419.888 370.63C419.97 370.964 419.984 371.312 419.931 371.652C419.878 371.992 419.758 372.319 419.579 372.613C419.4 372.907 419.164 373.163 418.886 373.365C418.607 373.568 418.292 373.714 417.957 373.795L194.196 427.963C193.521 428.125 192.809 428.013 192.217 427.65C191.625 427.288 191.201 426.705 191.039 426.03L160.123 298.319ZM248.366 311.353L275.764 316.567L284.514 318.233C285.027 318.329 285.553 318.315 286.06 318.192C286.566 318.07 287.041 317.841 287.453 317.522L294.48 312.036L292.014 312.633L286.808 316.694C286.514 316.922 286.175 317.085 285.813 317.173C285.451 317.26 285.075 317.27 284.709 317.202L278.23 315.97L250.832 310.756L248.366 311.353ZM248.366 311.353L275.764 316.567L284.514 318.233C285.027 318.329 285.553 318.315 286.06 318.192C286.566 318.07 287.041 317.841 287.453 317.522L294.48 312.036L292.014 312.633L286.808 316.694C286.514 316.922 286.175 317.085 285.813 317.173C285.451 317.26 285.075 317.27 284.709 317.202L278.23 315.97L250.832 310.756L248.366 311.353ZM248.366 311.353L275.764 316.567L284.514 318.233C285.027 318.329 285.553 318.315 286.06 318.192C286.566 318.07 287.041 317.841 287.453 317.522L294.48 312.036L292.014 312.633L286.808 316.694C286.514 316.922 286.175 317.085 285.813 317.173C285.451 317.26 285.075 317.27 284.709 317.202L278.23 315.97L250.832 310.756L248.366 311.353Z" fill="#3F3D56"/>
<path d="M359.883 349.716C359.379 347.624 359.725 345.416 360.847 343.579C361.968 341.741 363.772 340.424 365.864 339.915L394.105 333.078C396.195 332.58 398.397 332.931 400.229 334.053C402.061 335.175 403.373 336.978 403.879 339.066C404.384 341.154 404.042 343.357 402.926 345.193C401.81 347.029 400.012 348.347 397.926 348.86L369.684 355.697C367.591 356.201 365.384 355.854 363.547 354.733C361.709 353.612 360.392 351.808 359.883 349.716Z" fill="#FFD0E5"/>
</svg>
