<svg width="201" height="181" viewBox="0 0 201 181" fill="none" xmlns="http://www.w3.org/2000/svg">
<path d="M142.815 48.3798C141.4 46.0474 136.461 46.1076 136.461 46.1076C131.964 52.7896 121.153 45.6917 121.153 45.6917C113.124 49.2839 108.225 37.8364 108.225 37.8364C97.4207 36.2209 99.0898 24.8741 99.0898 24.8741C93.7147 23.7949 95.2229 14.0767 95.2229 14.0767C95.2229 14.0767 98.2055 11.6305 96.7377 9.84095C95.8046 8.70327 95.7467 5.43814 95.8282 3.20919C88.814 1.07602 81.5222 -0.00545885 74.1908 2.07181e-05C33.2164 2.07181e-05 0 33.2164 0 74.1908C0 115.165 33.2164 148.382 74.1908 148.382C115.165 148.382 148.382 115.165 148.382 74.1908C148.39 65.2892 146.794 56.4589 143.668 48.1241C143.287 48.5539 142.992 48.672 142.815 48.3798Z" fill="#FF9838"/>
<path d="M151.579 85.0635C156.383 85.0599 161.16 85.7592 165.756 87.1384C178.656 91.5022 189.911 97.9408 197.099 116.178C199.147 121.567 200.193 127.276 200.187 133.032C200.187 159.524 178.425 181 151.579 181C124.734 181 102.972 159.524 102.972 133.032C102.972 106.54 124.734 85.0635 151.579 85.0635Z" fill="#F0A662"/>
<path opacity="0.1" d="M29.4205 86.3428L31.0195 89.1481L34.2172 94.7583L35.2833 98.6855L33.1514 102.052L35.8162 108.784L36.8823 112.711L34.7504 114.955L39.0142 118.322" fill="black"/>
<path opacity="0.1" d="M122.799 141.346L123.758 143.142L125.677 146.732L126.316 149.246L125.037 151.4L126.636 155.709L127.276 158.222L125.997 159.658L128.555 161.813" fill="black"/>
<path opacity="0.1" d="M109.794 62.6787V66.9833L107.129 73.978L105.53 77.7443L108.195 82.5869L109.261 85.8152L113.525 87.4294L115.124 90.1198V96.5762" fill="black"/>
<path opacity="0.1" d="M174.249 124.717V127.641L172.472 132.392L171.406 134.951L173.183 138.24L173.894 140.433L176.736 141.529L177.802 143.357V147.742" fill="black"/>
<path opacity="0.1" d="M137.509 67.1553L132.819 69.9534C132.819 69.9534 130.474 71.0727 130.474 71.6323V76.1093" fill="black"/>
<path opacity="0.1" d="M192.512 128.555L189.954 130.353C189.954 130.353 188.675 131.073 188.675 131.433V134.311" fill="black"/>
<path opacity="0.1" d="M118.322 52.4453L118.961 57.7123L118.322 61.3994" fill="black"/>
<path opacity="0.1" d="M179.721 118.321L180.36 121.707L179.721 124.077" fill="black"/>
<path opacity="0.1" d="M122.799 101.053L119.256 105.849L115.124 109.047V111.179L117.485 113.844V117.042L115.714 120.24" fill="black"/>
<path opacity="0.1" d="M182.279 150.94L180.213 153.978L177.802 156.003V157.353L179.18 159.041V161.067L178.146 163.092" fill="black"/>
<path opacity="0.1" d="M90.8198 8.31445H85.3716L81.0128 12.1518L73.9302 15.9892L70.6612 18.7304V19.827L63.5785 23.6643L61.3993 27.5017" fill="black"/>
<path opacity="0.1" d="M161.813 90.1802H158.378L155.63 92.4826L151.165 94.785L149.104 96.4298V97.0877L144.639 99.3901L143.265 101.693" fill="black"/>
<path opacity="0.1" d="M31.9788 17.9082L27.0948 27.6028L25.4668 31.373L21.6681 36.2203C21.6681 36.2203 18.9547 41.0676 18.412 41.6062C17.8694 42.1448 14.0707 43.2219 14.0707 43.2219L19.4974 48.6078" fill="black"/>
<path opacity="0.1" d="M124.078 95.9365L120.938 102.198L119.891 104.633L117.449 107.763C117.449 107.763 115.705 110.894 115.356 111.241C115.007 111.589 112.565 112.285 112.565 112.285L116.054 115.763" fill="black"/>
<path opacity="0.1" d="M10.6269 55.6431L9.64278 62.5538L10.6269 66.8067V74.2489L7.67493 88.0704L10.6269 91.7915L14.0707 96.5759" fill="black"/>
<path opacity="0.1" d="M18.5477 58.2017L21.6875 59.8463L23.7806 66.9729L27.967 65.8764L30.0601 69.714" fill="black"/>
<path opacity="0.1" d="M115.124 122.798L117.391 123.803L118.903 128.159L121.926 127.488L123.438 129.834" fill="black"/>
<path opacity="0.1" d="M90.1802 99.7739L93.9506 96.9756L95.5664 92.4985L98.7979 91.939L100.413 86.3428" fill="black"/>
<path opacity="0.1" d="M161.813 149.021L164.169 147.155L165.179 144.171L167.199 143.798L168.209 140.067" fill="black"/>
<path d="M83.4647 130.473C85.4074 130.473 86.9824 128.898 86.9824 126.956C86.9824 125.013 85.4074 123.438 83.4647 123.438C81.5219 123.438 79.947 125.013 79.947 126.956C79.947 128.898 81.5219 130.473 83.4647 130.473Z" fill="#8E5B2B"/>
<path d="M157.656 170.127C158.892 170.127 159.894 169.125 159.894 167.888C159.894 166.652 158.892 165.65 157.656 165.65C156.419 165.65 155.417 166.652 155.417 167.888C155.417 169.125 156.419 170.127 157.656 170.127Z" fill="#F8BB84"/>
<path d="M187.716 148.381C188.952 148.381 189.954 147.379 189.954 146.143C189.954 144.907 188.952 143.904 187.716 143.904C186.479 143.904 185.477 144.907 185.477 146.143C185.477 147.379 186.479 148.381 187.716 148.381Z" fill="#8E5B2B"/>
<path d="M32.9382 62.0387C34.881 62.0387 36.4559 60.3206 36.4559 58.2012C36.4559 56.0819 34.881 54.3638 32.9382 54.3638C30.9954 54.3638 29.4205 56.0819 29.4205 58.2012C29.4205 60.3206 30.9954 62.0387 32.9382 62.0387Z" fill="#8E5B2B"/>
<path d="M84.424 58.2014C90.0757 58.2014 94.6572 53.763 94.6572 48.2879C94.6572 42.8129 90.0757 38.3745 84.424 38.3745C78.7724 38.3745 74.1908 42.8129 74.1908 48.2879C74.1908 53.763 78.7724 58.2014 84.424 58.2014Z" fill="#C78446"/>
<path d="M157.336 122.799C160.868 122.799 163.731 119.792 163.731 116.083C163.731 112.374 160.868 109.368 157.336 109.368C153.803 109.368 150.94 112.374 150.94 116.083C150.94 119.792 153.803 122.799 157.336 122.799Z" fill="#F8BB84"/>
<path d="M31.6589 106.809C35.3678 106.809 38.3745 104.232 38.3745 101.053C38.3745 97.874 35.3678 95.2969 31.6589 95.2969C27.95 95.2969 24.9434 97.874 24.9434 101.053C24.9434 104.232 27.95 106.809 31.6589 106.809Z" fill="#C46C1B"/>
<path d="M62.0388 95.9363C70.5163 95.9363 77.3886 88.7776 77.3886 79.9469C77.3886 71.1162 70.5163 63.9575 62.0388 63.9575C53.5613 63.9575 46.689 71.1162 46.689 79.9469C46.689 88.7776 53.5613 95.9363 62.0388 95.9363Z" fill="#8B6D52"/>
<path d="M134.311 151.58C139.963 151.58 144.544 146.855 144.544 141.027C144.544 135.198 139.963 130.474 134.311 130.474C128.659 130.474 124.078 135.198 124.078 141.027C124.078 146.855 128.659 151.58 134.311 151.58Z" fill="#FFCB9B"/>
</svg>
