<svg width="520" height="520" viewBox="0 0 520 520" fill="none" xmlns="http://www.w3.org/2000/svg">
<rect width="520" height="520" fill="white"/>
<path d="M132.28 250.908L130.858 249.501L130.858 249.501L132.28 250.908ZM124.216 256.164L124.946 258.026L124.954 258.023L124.216 256.164ZM94.588 258H92.588V260H94.588V258ZM94.588 206.412V204.412H92.588V206.412H94.588ZM124.216 208.284L123.473 210.141L123.482 210.144L123.49 210.148L124.216 208.284ZM132.28 213.54L130.851 214.939L130.858 214.947L132.28 213.54ZM137.464 221.676L139.33 220.955L139.33 220.955L137.464 221.676ZM121.408 213.432L120.658 215.286L120.658 215.286L121.408 213.432ZM101.572 212.064V210.064H99.572V212.064H101.572ZM101.572 252.348H99.572V254.348H101.572V252.348ZM121.408 250.98L120.658 249.126L120.658 249.126L121.408 250.98ZM127.168 247.056L128.633 248.418L128.642 248.407L127.168 247.056ZM130.84 240.72L132.73 241.374L132.73 241.374L130.84 240.72ZM137.3 232.224C137.3 235.875 136.722 239.143 135.598 242.051L139.33 243.493C140.654 240.065 141.3 236.301 141.3 232.224H137.3ZM135.598 242.051C134.467 244.981 132.883 247.454 130.858 249.501L133.702 252.315C136.141 249.85 138.013 246.899 139.33 243.493L135.598 242.051ZM130.858 249.501C128.833 251.548 126.383 253.152 123.478 254.305L124.954 258.023C128.337 256.68 131.263 254.78 133.702 252.315L130.858 249.501ZM123.486 254.302C120.627 255.424 117.423 256 113.848 256V260C117.857 260 121.565 259.352 124.946 258.026L123.486 254.302ZM113.848 256H94.588V260H113.848V256ZM96.588 258V206.412H92.588V258H96.588ZM94.588 208.412H113.848V204.412H94.588V208.412ZM113.848 208.412C117.418 208.412 120.618 208.999 123.473 210.141L124.959 206.427C121.574 205.073 117.862 204.412 113.848 204.412V208.412ZM123.49 210.148C126.385 211.275 128.829 212.874 130.851 214.939L133.709 212.141C131.267 209.646 128.335 207.741 124.942 206.42L123.49 210.148ZM130.858 214.947C132.883 216.994 134.467 219.467 135.598 222.397L139.33 220.955C138.013 217.549 136.141 214.598 133.702 212.133L130.858 214.947ZM135.598 222.397C136.722 225.305 137.3 228.573 137.3 232.224H141.3C141.3 228.147 140.654 224.383 139.33 220.955L135.598 222.397ZM134.136 232.224C134.136 228.876 133.68 225.817 132.73 223.074L128.95 224.382C129.728 226.631 130.136 229.236 130.136 232.224H134.136ZM132.73 223.074C131.788 220.352 130.433 217.994 128.642 216.041L125.694 218.743C127.071 220.246 128.164 222.112 128.95 224.382L132.73 223.074ZM128.642 216.041C126.849 214.085 124.679 212.597 122.158 211.578L120.658 215.286C122.649 216.091 124.319 217.243 125.694 218.743L128.642 216.041ZM122.158 211.578C119.632 210.557 116.852 210.064 113.848 210.064V214.064C116.412 214.064 118.672 214.483 120.658 215.286L122.158 211.578ZM113.848 210.064H101.572V214.064H113.848V210.064ZM99.572 212.064V252.348H103.572V212.064H99.572ZM101.572 254.348H113.848V250.348H101.572V254.348ZM113.848 254.348C116.852 254.348 119.632 253.855 122.158 252.834L120.658 249.126C118.672 249.929 116.412 250.348 113.848 250.348V254.348ZM122.158 252.834C124.672 251.818 126.84 250.346 128.633 248.418L125.703 245.694C124.328 247.174 122.656 248.318 120.658 249.126L122.158 252.834ZM128.642 248.407C130.433 246.454 131.788 244.096 132.73 241.374L128.95 240.066C128.164 242.336 127.071 244.202 125.694 245.705L128.642 248.407ZM132.73 241.374C133.68 238.631 134.136 235.572 134.136 232.224H130.136C130.136 235.212 129.728 237.817 128.95 240.066L132.73 241.374ZM181.185 252.312L183.185 252.325L183.198 250.312H181.185V252.312ZM181.149 258V260H183.137L183.149 258.013L181.149 258ZM149.361 258H147.361V260H149.361V258ZM149.361 206.412V204.412H147.361V206.412H149.361ZM181.149 206.412H183.149V204.412H181.149V206.412ZM181.149 212.1V214.1H183.149V212.1H181.149ZM156.345 212.1V210.1H154.345V212.1H156.345ZM156.345 229.236H154.345V231.236H156.345V229.236ZM176.433 229.236H178.433V227.236H176.433V229.236ZM176.433 234.708V236.708H178.433V234.708H176.433ZM156.345 234.708V232.708H154.345V234.708H156.345ZM156.345 252.312H154.345V254.312H156.345V252.312ZM179.185 252.299L179.149 257.987L183.149 258.013L183.185 252.325L179.185 252.299ZM181.149 256H149.361V260H181.149V256ZM151.361 258V206.412H147.361V258H151.361ZM149.361 208.412H181.149V204.412H149.361V208.412ZM179.149 206.412V212.1H183.149V206.412H179.149ZM181.149 210.1H156.345V214.1H181.149V210.1ZM154.345 212.1V229.236H158.345V212.1H154.345ZM156.345 231.236H176.433V227.236H156.345V231.236ZM174.433 229.236V234.708H178.433V229.236H174.433ZM176.433 232.708H156.345V236.708H176.433V232.708ZM154.345 234.708V252.312H158.345V234.708H154.345ZM156.345 254.312H181.185V250.312H156.345V254.312ZM217.304 214.476L219.019 215.505L219.054 215.447L219.085 215.386L217.304 214.476ZM216.584 215.304L217.731 216.942L217.746 216.932L217.76 216.921L216.584 215.304ZM214.244 214.944L215.433 213.336L215.433 213.336L214.244 214.944ZM212.156 213.612L211.105 215.314L211.134 215.332L211.164 215.348L212.156 213.612ZM209.168 212.244L208.5 214.129L208.513 214.134L209.168 212.244ZM200.816 212.28L201.472 214.17L201.483 214.166L201.494 214.162L200.816 212.28ZM197.828 213.972L196.505 212.472L196.494 212.482L196.483 212.492L197.828 213.972ZM196.028 216.528L197.869 217.31L197.872 217.302L197.876 217.294L196.028 216.528ZM196.46 223.26L194.841 224.434L194.858 224.457L194.875 224.479L196.46 223.26ZM199.268 225.672L198.26 227.4L198.268 227.404L198.276 227.408L199.268 225.672ZM203.228 227.436L202.577 229.327L202.596 229.333L202.614 229.339L203.228 227.436ZM207.764 228.948L207.114 230.839L207.123 230.842L207.764 228.948ZM212.3 230.748L211.466 232.566L211.484 232.574L211.502 232.582L212.3 230.748ZM216.26 233.232L214.943 234.737L214.951 234.744L214.959 234.751L216.26 233.232ZM219.068 236.94L217.262 237.799L217.268 237.811L217.273 237.823L219.068 236.94ZM218.996 248.712L220.859 249.439L220.862 249.431L218.996 248.712ZM215.612 253.86L214.209 252.434L214.204 252.44L214.198 252.446L215.612 253.86ZM210.176 257.316L209.451 255.452L209.444 255.455L210.176 257.316ZM193.724 256.776L192.907 258.602L192.914 258.605L192.921 258.608L193.724 256.776ZM186.704 251.844L184.996 250.804L184.203 252.106L185.248 253.215L186.704 251.844ZM188.72 248.532L187.103 247.356L187.054 247.422L187.012 247.492L188.72 248.532ZM189.404 247.884L190.478 249.571L190.496 249.56L190.514 249.548L189.404 247.884ZM191.384 247.992L190.251 249.64L190.309 249.68L190.37 249.716L191.384 247.992ZM192.752 248.928L191.54 250.519L191.54 250.519L192.752 248.928ZM194.48 250.188L193.329 251.824L193.329 251.824L194.48 250.188ZM196.676 251.448L195.825 253.258L195.835 253.262L195.845 253.267L196.676 251.448ZM199.52 252.42L199.035 254.36L199.056 254.366L199.077 254.37L199.52 252.42ZM207.512 252.096L208.176 253.983L208.176 253.983L207.512 252.096ZM210.788 250.188L212.141 251.661L212.143 251.659L210.788 250.188ZM212.516 239.532L210.87 240.668L210.886 240.691L210.902 240.713L212.516 239.532ZM205.784 235.32L205.17 237.223L205.184 237.228L205.198 237.232L205.784 235.32ZM201.248 233.88L200.625 235.78L200.638 235.785L200.652 235.789L201.248 233.88ZM192.752 229.632L194.087 228.142L194.087 228.142L192.752 229.632ZM189.944 225.78L188.118 226.595L188.125 226.612L188.133 226.629L189.944 225.78ZM189.944 214.728L188.102 213.95L188.097 213.961L188.093 213.972L189.944 214.728ZM193.04 210.192L191.651 208.753L191.645 208.759L191.639 208.765L193.04 210.192ZM198.044 207.024L197.305 205.165L197.297 205.169L198.044 207.024ZM212.732 207.204L212.009 209.069L212.015 209.071L212.732 207.204ZM218.996 211.164L220.777 212.074L221.453 210.75L220.381 209.721L218.996 211.164ZM215.589 213.447C215.473 213.64 215.402 213.691 215.408 213.687L217.76 216.921C218.294 216.533 218.703 216.032 219.019 215.505L215.589 213.447ZM215.437 213.666C215.514 213.612 215.586 213.582 215.64 213.567C215.69 213.553 215.709 213.556 215.684 213.556V217.556C216.359 217.556 217.085 217.395 217.731 216.942L215.437 213.666ZM215.684 213.556C215.813 213.556 215.859 213.587 215.8 213.562C215.742 213.537 215.62 213.474 215.433 213.336L213.055 216.552C213.739 217.058 214.643 217.556 215.684 217.556V213.556ZM215.433 213.336C214.798 212.867 214.031 212.38 213.148 211.876L211.164 215.348C211.961 215.804 212.586 216.205 213.055 216.552L215.433 213.336ZM213.207 211.91C212.236 211.311 211.099 210.797 209.824 210.354L208.513 214.134C209.589 214.507 210.444 214.905 211.105 215.314L213.207 211.91ZM209.836 210.359C208.408 209.853 206.764 209.632 204.956 209.632V213.632C206.46 213.632 207.624 213.819 208.5 214.129L209.836 210.359ZM204.956 209.632C203.215 209.632 201.598 209.873 200.139 210.398L201.494 214.162C202.434 213.823 203.577 213.632 204.956 213.632V209.632ZM200.161 210.39C198.774 210.872 197.542 211.557 196.505 212.472L199.151 215.472C199.746 214.947 200.506 214.504 201.472 214.17L200.161 210.39ZM196.483 212.492C195.474 213.409 194.702 214.505 194.181 215.762L197.876 217.294C198.17 216.583 198.598 215.975 199.173 215.452L196.483 212.492ZM194.187 215.746C193.666 216.973 193.416 218.285 193.416 219.66H197.416C197.416 218.779 197.574 218.003 197.869 217.31L194.187 215.746ZM193.416 219.66C193.416 221.429 193.848 223.065 194.841 224.434L198.079 222.086C197.68 221.535 197.416 220.771 197.416 219.66H193.416ZM194.875 224.479C195.772 225.645 196.914 226.614 198.26 227.4L200.276 223.944C199.319 223.386 198.588 222.747 198.045 222.041L194.875 224.479ZM198.276 227.408C199.575 228.151 201.011 228.788 202.577 229.327L203.879 225.545C202.517 225.076 201.314 224.537 200.26 223.936L198.276 227.408ZM202.614 229.339C204.09 229.815 205.59 230.315 207.114 230.839L208.414 227.057C206.867 226.525 205.343 226.017 203.842 225.533L202.614 229.339ZM207.123 230.842C208.619 231.349 210.066 231.923 211.466 232.566L213.134 228.93C211.606 228.229 210.03 227.603 208.405 227.054L207.123 230.842ZM211.502 232.582C212.812 233.152 213.955 233.873 214.943 234.737L217.577 231.727C216.261 230.575 214.764 229.64 213.099 228.914L211.502 232.582ZM214.959 234.751C215.912 235.568 216.68 236.576 217.262 237.799L220.874 236.081C220.064 234.376 218.96 232.912 217.562 231.713L214.959 234.751ZM217.273 237.823C217.823 238.941 218.148 240.419 218.148 242.34H222.148C222.148 239.989 221.753 237.867 220.863 236.057L217.273 237.823ZM218.148 242.34C218.148 244.364 217.805 246.243 217.13 247.993L220.862 249.431C221.724 247.197 222.148 244.828 222.148 242.34H218.148ZM217.133 247.985C216.466 249.693 215.494 251.171 214.209 252.434L217.015 255.286C218.706 253.621 219.99 251.667 220.859 249.439L217.133 247.985ZM214.198 252.446C212.952 253.692 211.384 254.7 209.451 255.452L210.901 259.18C213.289 258.252 215.344 256.956 217.026 255.274L214.198 252.446ZM209.444 255.455C207.581 256.187 205.401 256.576 202.868 256.576V260.576C205.808 260.576 208.499 260.125 210.908 259.177L209.444 255.455ZM202.868 256.576C199.75 256.576 196.98 256.02 194.527 254.944L192.921 258.608C195.94 259.932 199.266 260.576 202.868 260.576V256.576ZM194.541 254.95C192.032 253.828 189.913 252.334 188.16 250.473L185.248 253.215C187.383 255.482 189.944 257.276 192.907 258.602L194.541 254.95ZM188.413 252.884L190.429 249.572L187.012 247.492L184.996 250.804L188.413 252.884ZM190.338 249.708C190.388 249.638 190.435 249.599 190.478 249.571L188.33 246.197C187.846 246.505 187.436 246.898 187.103 247.356L190.338 249.708ZM190.514 249.548C190.506 249.553 190.482 249.567 190.442 249.58C190.402 249.592 190.366 249.596 190.34 249.596V245.596C189.597 245.596 188.901 245.816 188.295 246.22L190.514 249.548ZM190.34 249.596C190.212 249.596 190.136 249.569 190.126 249.565C190.121 249.563 190.129 249.566 190.151 249.578C190.173 249.59 190.207 249.61 190.251 249.64L192.517 246.344C191.955 245.957 191.211 245.596 190.34 245.596V249.596ZM190.37 249.716C190.691 249.905 191.08 250.168 191.54 250.519L193.964 247.337C193.417 246.92 192.893 246.559 192.398 246.268L190.37 249.716ZM191.54 250.519C192.068 250.921 192.665 251.356 193.329 251.824L195.631 248.552C194.999 248.108 194.444 247.703 193.964 247.337L191.54 250.519ZM193.329 251.824C194.084 252.355 194.918 252.831 195.825 253.258L197.528 249.638C196.802 249.297 196.173 248.933 195.631 248.552L193.329 251.824ZM195.845 253.267C196.814 253.71 197.881 254.072 199.035 254.36L200.005 250.48C199.048 250.24 198.218 249.954 197.508 249.629L195.845 253.267ZM199.077 254.37C200.306 254.65 201.646 254.78 203.084 254.78V250.78C201.882 250.78 200.846 250.67 199.963 250.47L199.077 254.37ZM203.084 254.78C204.921 254.78 206.628 254.527 208.176 253.983L206.848 250.209C205.804 250.577 204.559 250.78 203.084 250.78V254.78ZM208.176 253.983C209.692 253.449 211.028 252.684 212.141 251.661L209.435 248.715C208.772 249.324 207.924 249.831 206.848 250.209L208.176 253.983ZM212.143 251.659C213.269 250.622 214.132 249.386 214.722 247.969L211.03 246.431C210.66 247.318 210.131 248.074 209.433 248.717L212.143 251.659ZM214.722 247.969C215.317 246.543 215.596 244.993 215.596 243.348H211.596C211.596 244.535 211.396 245.553 211.03 246.431L214.722 247.969ZM215.596 243.348C215.596 241.483 215.163 239.763 214.13 238.351L210.902 240.713C211.309 241.269 211.596 242.093 211.596 243.348H215.596ZM214.162 238.396C213.285 237.125 212.135 236.091 210.752 235.284L208.736 238.74C209.658 239.277 210.355 239.923 210.87 240.668L214.162 238.396ZM210.752 235.284C209.447 234.523 207.982 233.902 206.37 233.408L205.198 237.232C206.563 237.65 207.737 238.157 208.736 238.74L210.752 235.284ZM206.398 233.417C204.904 232.935 203.386 232.453 201.845 231.971L200.652 235.789C202.182 236.267 203.688 236.745 205.17 237.223L206.398 233.417ZM201.872 231.98C200.395 231.495 198.942 230.941 197.511 230.318L195.914 233.986C197.459 234.659 199.029 235.257 200.625 235.78L201.872 231.98ZM197.511 230.318C196.209 229.751 195.072 229.025 194.087 228.142L191.418 231.122C192.736 232.303 194.239 233.257 195.914 233.986L197.511 230.318ZM194.087 228.142C193.154 227.306 192.372 226.247 191.755 224.931L188.133 226.629C188.956 228.385 190.047 229.894 191.418 231.122L194.087 228.142ZM191.771 224.965C191.22 223.732 190.9 222.108 190.9 220.02H186.9C186.9 222.492 187.276 224.708 188.118 226.595L191.771 224.965ZM190.9 220.02C190.9 218.458 191.197 216.95 191.796 215.484L188.093 213.972C187.299 215.914 186.9 217.934 186.9 220.02H190.9ZM191.786 215.506C192.402 214.05 193.282 212.757 194.442 211.619L191.639 208.765C190.11 210.267 188.926 211.998 188.102 213.95L191.786 215.506ZM194.429 211.631C195.591 210.51 197.034 209.586 198.791 208.879L197.297 205.169C195.118 206.046 193.225 207.234 191.651 208.753L194.429 211.631ZM198.783 208.882C200.498 208.2 202.52 207.836 204.884 207.836V203.836C202.112 203.836 199.574 204.263 197.305 205.166L198.783 208.882ZM204.884 207.836C207.551 207.836 209.918 208.258 212.009 209.069L213.455 205.339C210.842 204.326 207.977 203.836 204.884 203.836V207.836ZM212.015 209.071C214.148 209.89 216.007 211.067 217.611 212.607L220.381 209.721C218.385 207.805 216.069 206.342 213.449 205.337L212.015 209.071ZM217.215 210.254L215.523 213.566L219.085 215.386L220.777 212.074L217.215 210.254ZM236.994 258V260H238.994V258H236.994ZM230.01 258H228.01V260H230.01V258ZM230.01 206.412V204.412H228.01V206.412H230.01ZM236.994 206.412H238.994V204.412H236.994V206.412ZM236.994 256H230.01V260H236.994V256ZM232.01 258V206.412H228.01V258H232.01ZM230.01 208.412H236.994V204.412H230.01V208.412ZM234.994 206.412V258H238.994V206.412H234.994ZM292.094 233.196H294.094V231.196H292.094V233.196ZM292.094 252.996L293.265 254.617L294.094 254.019V252.996H292.094ZM283.778 257.208L284.372 259.118L284.382 259.114L283.778 257.208ZM262.898 256.668L262.173 258.532L262.185 258.537L262.898 256.668ZM254.33 251.268L252.923 252.689L252.93 252.697L252.937 252.704L254.33 251.268ZM248.894 242.916L250.755 242.185L250.755 242.185L248.894 242.916ZM248.822 221.46L246.955 220.741L246.951 220.753L248.822 221.46ZM254.114 213.144L255.535 214.551L255.542 214.543L254.114 213.144ZM262.43 207.744L263.156 209.607L263.156 209.607L262.43 207.744ZM279.062 206.304L278.711 208.273L278.724 208.275L278.737 208.278L279.062 206.304ZM283.922 207.6L283.2 209.465L283.213 209.47L283.226 209.475L283.922 207.6ZM288.062 209.652L286.982 211.335L286.993 211.343L287.004 211.35L288.062 209.652ZM291.626 212.352L293.322 213.412L294.205 211.999L292.974 210.875L291.626 212.352ZM289.646 215.52L291.322 216.61L291.332 216.595L291.342 216.58L289.646 215.52ZM288.422 216.456L288.907 218.396L288.939 218.388L288.971 218.379L288.422 216.456ZM286.802 216.096L287.831 214.381L287.82 214.375L287.809 214.368L286.802 216.096ZM284.822 214.872L285.906 213.191L285.906 213.191L284.822 214.872ZM282.086 213.504L281.293 215.34L281.318 215.351L281.343 215.361L282.086 213.504ZM278.306 212.352L277.882 214.307L277.889 214.308L278.306 212.352ZM265.274 213.324L266.013 215.182L266.021 215.179L266.029 215.176L265.274 213.324ZM259.262 217.392L260.715 218.766L260.724 218.756L259.262 217.392ZM255.446 223.8L257.33 224.47L257.332 224.465L255.446 223.8ZM255.482 240.936L253.597 241.605L253.601 241.616L253.605 241.627L255.482 240.936ZM259.442 247.452L257.989 248.827L257.999 248.837L258.008 248.847L259.442 247.452ZM280.322 252.132L280.871 254.055L280.879 254.053L280.887 254.05L280.322 252.132ZM285.794 249.864L286.745 251.623L287.794 251.056V249.864H285.794ZM285.794 238.524H287.794V236.524H285.794V238.524ZM276.65 238.128L275.235 239.542L275.266 239.573L275.298 239.602L276.65 238.128ZM276.254 233.196V231.196H274.254V233.196H276.254ZM290.094 233.196V252.996H294.094V233.196H290.094ZM290.923 251.375C288.497 253.126 285.916 254.432 283.173 255.302L284.382 259.114C287.543 258.112 290.506 256.61 293.265 254.617L290.923 251.375ZM283.183 255.298C280.473 256.143 277.46 256.576 274.13 256.576V260.576C277.807 260.576 281.227 260.097 284.372 259.118L283.183 255.298ZM274.13 256.576C270.182 256.576 266.685 255.972 263.61 254.799L262.185 258.537C265.782 259.908 269.773 260.576 274.13 260.576V256.576ZM263.622 254.804C260.514 253.597 257.891 251.935 255.722 249.832L252.937 252.704C255.52 255.209 258.609 257.147 262.173 258.532L263.622 254.804ZM255.737 249.847C253.593 247.725 251.931 245.179 250.755 242.185L247.032 243.647C248.4 247.133 250.362 250.155 252.923 252.689L255.737 249.847ZM250.755 242.185C249.585 239.204 248.986 235.891 248.986 232.224H244.986C244.986 236.333 245.658 240.148 247.032 243.647L250.755 242.185ZM248.986 232.224C248.986 228.497 249.565 225.152 250.693 222.167L246.951 220.753C245.63 224.248 244.986 228.079 244.986 232.224H248.986ZM250.688 222.179C251.844 219.178 253.463 216.645 255.535 214.551L252.692 211.737C250.204 214.251 248.295 217.262 246.955 220.741L250.688 222.179ZM255.542 214.543C257.609 212.433 260.136 210.784 263.156 209.607L261.703 205.881C258.195 207.248 255.178 209.199 252.685 211.745L255.542 214.543ZM263.156 209.607C266.156 208.438 269.553 207.836 273.374 207.836V203.836C269.13 203.836 265.231 204.506 261.703 205.881L263.156 209.607ZM273.374 207.836C275.313 207.836 277.09 207.984 278.711 208.273L279.412 204.335C277.529 204 275.514 203.836 273.374 203.836V207.836ZM278.737 208.278C280.368 208.546 281.853 208.944 283.2 209.465L284.644 205.735C283.014 205.104 281.259 204.638 279.386 204.33L278.737 208.278ZM283.226 209.475C284.586 209.98 285.836 210.601 286.982 211.335L289.141 207.969C287.743 207.071 286.233 206.324 284.617 205.725L283.226 209.475ZM287.004 211.35C288.173 212.077 289.263 212.904 290.277 213.829L292.974 210.875C291.78 209.784 290.494 208.811 289.119 207.954L287.004 211.35ZM289.93 211.292L287.95 214.46L291.342 216.58L293.322 213.412L289.93 211.292ZM287.969 214.43C287.923 214.5 287.894 214.523 287.891 214.525C287.888 214.527 287.887 214.528 287.887 214.528C287.887 214.528 287.883 214.53 287.872 214.533L288.971 218.379C289.983 218.09 290.774 217.454 291.322 216.61L287.969 214.43ZM287.936 214.516C287.98 214.505 288.019 214.501 288.05 214.501C288.08 214.501 288.095 214.505 288.09 214.504C288.077 214.501 287.993 214.478 287.831 214.381L285.773 217.811C286.637 218.33 287.731 218.69 288.907 218.396L287.936 214.516ZM287.809 214.368C287.266 214.051 286.632 213.66 285.906 213.191L283.737 216.553C284.499 217.044 285.185 217.469 285.794 217.824L287.809 214.368ZM285.906 213.191C285.026 212.624 283.993 212.113 282.828 211.647L281.343 215.361C282.338 215.759 283.129 216.16 283.737 216.553L285.906 213.191ZM282.878 211.668C281.672 211.147 280.279 210.728 278.722 210.396L277.889 214.308C279.26 214.6 280.388 214.949 281.293 215.34L282.878 211.668ZM278.729 210.397C277.111 210.047 275.246 209.884 273.158 209.884V213.884C275.053 213.884 276.62 214.033 277.882 214.307L278.729 210.397ZM273.158 209.884C270.031 209.884 267.142 210.401 264.518 211.472L266.029 215.176C268.11 214.327 270.476 213.884 273.158 213.884V209.884ZM264.534 211.466C261.919 212.506 259.665 214.027 257.799 216.028L260.724 218.756C262.17 217.205 263.924 216.014 266.013 215.182L264.534 211.466ZM257.808 216.018C255.94 217.995 254.53 220.38 253.559 223.135L257.332 224.465C258.137 222.18 259.271 220.293 260.715 218.766L257.808 216.018ZM253.561 223.13C252.584 225.875 252.114 228.915 252.114 232.224H256.114C256.114 229.293 256.531 226.717 257.33 224.47L253.561 223.13ZM252.114 232.224C252.114 235.65 252.596 238.786 253.597 241.605L257.366 240.267C256.543 237.95 256.114 235.278 256.114 232.224H252.114ZM253.605 241.627C254.625 244.401 256.082 246.812 257.989 248.827L260.894 246.077C259.393 244.492 258.21 242.559 257.359 240.245L253.605 241.627ZM258.008 248.847C259.95 250.843 262.288 252.354 264.991 253.388L266.42 249.652C264.227 248.814 262.389 247.613 260.875 246.057L258.008 248.847ZM264.991 253.388C267.701 254.424 270.697 254.924 273.95 254.924V250.924C271.107 250.924 268.606 250.488 266.42 249.652L264.991 253.388ZM273.95 254.924C276.491 254.924 278.806 254.645 280.871 254.055L279.772 250.209C278.141 250.675 276.208 250.924 273.95 250.924V254.924ZM280.887 254.05C282.897 253.458 284.85 252.647 286.745 251.623L284.843 248.105C283.185 249.001 281.49 249.702 279.756 250.214L280.887 254.05ZM287.794 249.864V238.524H283.794V249.864H287.794ZM285.794 236.524H277.766V240.524H285.794V236.524ZM277.766 236.524C277.731 236.524 277.754 236.519 277.813 236.54C277.877 236.563 277.945 236.603 278.001 236.654L275.298 239.602C276.016 240.26 276.898 240.524 277.766 240.524V236.524ZM278.064 236.714C278.107 236.757 278.164 236.831 278.205 236.932C278.245 237.032 278.254 237.115 278.254 237.156H274.254C274.254 238.054 274.584 238.891 275.235 239.542L278.064 236.714ZM278.254 237.156V233.196H274.254V237.156H278.254ZM276.254 235.196H292.094V231.196H276.254V235.196ZM344.579 206.412H346.579V204.412H344.579V206.412ZM344.579 258V260H346.579V258H344.579ZM339.683 257.712L338.742 259.477L338.765 259.489L338.789 259.501L339.683 257.712ZM338.603 256.74L337.017 257.958L337.025 257.969L337.034 257.979L338.603 256.74ZM308.759 217.86L310.346 216.642L306.226 211.275L306.766 218.019L308.759 217.86ZM308.867 219.624L310.866 219.541L310.866 219.541L308.867 219.624ZM308.903 258V260H310.903V258H308.903ZM302.783 258H300.783V260H302.783V258ZM302.783 206.412V204.412H300.783V206.412H302.783ZM307.175 206.484L306.741 208.436L306.847 208.46L306.954 208.472L307.175 206.484ZM307.751 206.664L306.759 208.4L306.858 208.457L306.963 208.502L307.751 206.664ZM308.255 207.024L306.841 208.438L306.895 208.493L306.954 208.543L308.255 207.024ZM308.795 207.6L310.381 206.381L310.369 206.366L310.357 206.351L308.795 207.6ZM338.639 246.444L337.053 247.662L341.149 252.993L340.633 246.291L338.639 246.444ZM338.495 244.644L336.497 244.724L336.499 244.767L336.502 244.81L338.495 244.644ZM338.459 206.412V204.412H336.459V206.412H338.459ZM342.579 206.412V258H346.579V206.412H342.579ZM344.579 256H341.087V260H344.579V256ZM341.087 256C340.76 256 340.616 255.942 340.578 255.923L338.789 259.501C339.518 259.866 340.311 260 341.087 260V256ZM340.624 255.947C340.588 255.928 340.429 255.825 340.173 255.501L337.034 257.979C337.497 258.567 338.058 259.112 338.742 259.477L340.624 255.947ZM340.19 255.522L310.346 216.642L307.173 219.078L337.017 257.958L340.19 255.522ZM306.766 218.019C306.812 218.595 306.846 219.158 306.869 219.707L310.866 219.541C310.84 218.938 310.803 218.325 310.753 217.701L306.766 218.019ZM306.869 219.707C306.892 220.259 306.903 220.771 306.903 221.244H310.903C310.903 220.709 310.891 220.141 310.866 219.541L306.869 219.707ZM306.903 221.244V258H310.903V221.244H306.903ZM308.903 256H302.783V260H308.903V256ZM304.783 258V206.412H300.783V258H304.783ZM302.783 208.412H306.383V204.412H302.783V208.412ZM306.383 208.412C306.604 208.412 306.713 208.43 306.741 208.436L307.609 204.532C307.206 204.442 306.787 204.412 306.383 204.412V208.412ZM306.954 208.472C306.932 208.469 306.856 208.456 306.759 208.4L308.744 204.928C308.311 204.68 307.85 204.547 307.396 204.496L306.954 208.472ZM306.963 208.502C306.9 208.475 306.859 208.448 306.841 208.435C306.823 208.423 306.824 208.421 306.841 208.438L309.67 205.61C309.373 205.313 309 205.023 308.539 204.826L306.963 208.502ZM306.954 208.543C306.998 208.581 307.092 208.672 307.234 208.849L310.357 206.351C310.115 206.048 309.848 205.755 309.557 205.505L306.954 208.543ZM307.209 208.818L337.053 247.662L340.225 245.226L310.381 206.381L307.209 208.818ZM340.633 246.291C340.585 245.663 340.537 245.058 340.488 244.478L336.502 244.81C336.55 245.382 336.598 245.977 336.645 246.597L340.633 246.291ZM340.494 244.564C340.471 243.987 340.459 243.45 340.459 242.952H336.459C336.459 243.51 336.472 244.101 336.497 244.724L340.494 244.564ZM340.459 242.952V206.412H336.459V242.952H340.459ZM338.459 208.412H344.579V204.412H338.459V208.412Z" fill="url(#paint0_linear)"/>
<path d="M177.81 293.584L179.229 292.175L178.185 291.124L176.876 291.816L177.81 293.584ZM172.05 298.48L170.392 297.361L170.387 297.368L170.383 297.375L172.05 298.48ZM171.006 308.884L169.203 309.749L169.206 309.757L169.21 309.764L171.006 308.884ZM173.274 311.872L174.588 310.364L174.588 310.364L173.274 311.872ZM176.478 313.744L175.8 315.626L175.817 315.632L175.834 315.638L176.478 313.744ZM187.386 312.88L186.557 311.06L186.549 311.063L187.386 312.88ZM193.038 308.92L194.473 310.313L195.841 308.904L194.457 307.511L193.038 308.92ZM211.074 319V321H215.846L212.5 317.598L211.074 319ZM201.75 317.704L203.197 316.323L203.183 316.309L203.169 316.295L201.75 317.704ZM196.53 312.448L197.949 311.039L196.557 309.638L195.139 311.011L196.53 312.448ZM188.718 317.668L189.515 319.502L189.522 319.499L188.718 317.668ZM173.382 318.604L172.712 320.489L172.72 320.491L173.382 318.604ZM168.45 315.796L167.152 317.318L167.16 317.324L167.167 317.33L168.45 315.796ZM164.922 311.26L163.133 312.154L163.133 312.154L164.922 311.26ZM164.418 300.496L162.549 299.784L162.546 299.792L162.543 299.8L164.418 300.496ZM166.794 296.32L165.226 295.078L165.226 295.078L166.794 296.32ZM170.358 292.9L171.544 294.51L171.544 294.51L170.358 292.9ZM174.858 290.308L175.665 292.138L178.017 291.1L176.433 289.076L174.858 290.308ZM171.618 284.908L169.759 285.646L169.763 285.655L171.618 284.908ZM171.51 274.54L169.667 273.763L169.662 273.775L169.657 273.787L171.51 274.54ZM174.282 270.544L175.652 272.001L175.659 271.994L175.667 271.987L174.282 270.544ZM178.638 267.844L179.349 269.713L179.356 269.711L179.363 269.708L178.638 267.844ZM189.618 267.772L188.875 269.629L188.887 269.634L188.9 269.639L189.618 267.772ZM196.314 273.712L194.512 274.581L194.522 274.6L194.532 274.619L196.314 273.712ZM197.466 277.852L197.855 279.814L199.578 279.472L199.461 277.719L197.466 277.852ZM193.47 278.644L193.081 276.682L193.04 276.69L192.999 276.7L193.47 278.644ZM191.706 277.528L189.775 278.048L189.808 278.17L189.856 278.287L191.706 277.528ZM190.878 275.584L189.115 276.528L189.128 276.553L189.141 276.576L190.878 275.584ZM189.438 273.748L188.054 275.192L188.069 275.206L188.084 275.22L189.438 273.748ZM187.314 272.38L186.507 274.21L186.516 274.214L186.526 274.218L187.314 272.38ZM181.158 272.416L180.431 270.553L180.423 270.556L180.415 270.559L181.158 272.416ZM178.674 274.036L180.088 275.45L180.088 275.45L178.674 274.036ZM177.126 276.448L178.986 277.182L178.989 277.174L178.993 277.166L177.126 276.448ZM177.774 284.188L175.996 285.104L176.007 285.125L176.018 285.146L177.774 284.188ZM181.734 289.192L183.16 287.79L183.154 287.784L183.148 287.778L181.734 289.192ZM196.566 304.276L195.14 305.678L197.01 307.581L198.312 305.252L196.566 304.276ZM198.762 299.2L200.669 299.801L200.672 299.794L198.762 299.2ZM199.842 293.908L197.853 293.699L197.852 293.708L197.851 293.717L199.842 293.908ZM200.274 292.828L198.794 291.483L198.794 291.483L200.274 292.828ZM205.206 292.432L207.206 292.449L207.223 290.432H205.206V292.432ZM203.91 300.568L205.816 301.174L205.817 301.169L203.91 300.568ZM200.274 308.02L198.62 306.895L197.697 308.252L198.848 309.422L200.274 308.02ZM176.876 291.816C174.11 293.277 171.912 295.11 170.392 297.361L173.708 299.599C174.78 298.01 176.422 296.579 178.744 295.352L176.876 291.816ZM170.383 297.375C168.898 299.616 168.142 302.086 168.142 304.744H172.142C172.142 302.89 172.657 301.184 173.717 299.585L170.383 297.375ZM168.142 304.744C168.142 306.552 168.477 308.237 169.203 309.749L172.809 308.019C172.383 307.131 172.142 306.056 172.142 304.744H168.142ZM169.21 309.764C169.896 311.166 170.812 312.379 171.96 313.38L174.588 310.364C173.864 309.733 173.267 308.954 172.802 308.004L169.21 309.764ZM171.96 313.38C173.088 314.363 174.373 315.112 175.8 315.626L177.155 311.862C176.183 311.512 175.332 311.013 174.588 310.364L171.96 313.38ZM175.834 315.638C177.238 316.115 178.679 316.356 180.15 316.356V312.356C179.124 312.356 178.118 312.189 177.122 311.85L175.834 315.638ZM180.15 316.356C183.086 316.356 185.789 315.818 188.223 314.697L186.549 311.063C184.711 311.91 182.59 312.356 180.15 312.356V316.356ZM188.215 314.7C190.595 313.616 192.686 312.153 194.473 310.313L191.603 307.527C190.174 308.999 188.497 310.176 186.557 311.06L188.215 314.7ZM194.457 307.511L179.229 292.175L176.391 294.993L191.619 310.329L194.457 307.511ZM211.074 317H204.846V321H211.074V317ZM204.846 317C204.286 317 203.994 316.929 203.879 316.884L202.429 320.612C203.178 320.903 204.014 321 204.846 321V317ZM203.879 316.884C203.832 316.866 203.602 316.748 203.197 316.323L200.303 319.085C200.905 319.716 201.612 320.294 202.429 320.612L203.879 316.884ZM203.169 316.295L197.949 311.039L195.111 313.857L200.331 319.113L203.169 316.295ZM195.139 311.011C193.058 313.025 190.654 314.634 187.914 315.837L189.522 319.499C192.686 318.11 195.49 316.239 197.921 313.885L195.139 311.011ZM187.921 315.834C185.27 316.985 182.317 317.576 179.034 317.576V321.576C182.807 321.576 186.31 320.895 189.515 319.502L187.921 315.834ZM179.034 317.576C177.344 317.576 175.683 317.292 174.044 316.717L172.72 320.491C174.776 321.212 176.884 321.576 179.034 321.576V317.576ZM174.051 316.719C172.448 316.15 171.012 315.331 169.733 314.262L167.167 317.33C168.816 318.709 170.668 319.762 172.712 320.489L174.051 316.719ZM169.747 314.274C168.494 313.206 167.483 311.909 166.711 310.366L163.133 312.154C164.137 314.163 165.478 315.89 167.152 317.318L169.747 314.274ZM166.711 310.366C165.978 308.9 165.59 307.208 165.59 305.248H161.59C161.59 307.752 162.09 310.068 163.133 312.154L166.711 310.366ZM165.59 305.248C165.59 303.791 165.828 302.444 166.293 301.192L162.543 299.8C161.903 301.524 161.59 303.345 161.59 305.248H165.59ZM166.287 301.208C166.79 299.888 167.48 298.674 168.361 297.562L165.226 295.078C164.092 296.51 163.198 298.08 162.549 299.784L166.287 301.208ZM168.361 297.562C169.254 296.436 170.312 295.418 171.544 294.51L169.171 291.29C167.667 292.398 166.35 293.66 165.226 295.078L168.361 297.562ZM171.544 294.51C172.789 293.593 174.161 292.802 175.665 292.138L174.051 288.478C172.291 289.254 170.663 290.191 169.171 291.29L171.544 294.51ZM176.433 289.076C175.055 287.313 174.083 285.675 173.473 284.161L169.763 285.655C170.545 287.597 171.733 289.559 173.282 291.54L176.433 289.076ZM173.477 284.17C172.873 282.651 172.574 281.089 172.574 279.472H168.574C168.574 281.599 168.97 283.661 169.759 285.646L173.477 284.17ZM172.574 279.472C172.574 277.963 172.841 276.576 173.363 275.293L169.657 273.787C168.93 275.576 168.574 277.477 168.574 279.472H172.574ZM173.353 275.317C173.893 274.035 174.658 272.936 175.652 272.001L172.912 269.087C171.506 270.408 170.422 271.973 169.667 273.763L173.353 275.317ZM175.667 271.987C176.655 271.038 177.872 270.275 179.349 269.713L177.927 265.975C175.996 266.709 174.308 267.746 172.897 269.101L175.667 271.987ZM179.363 269.708C180.827 269.138 182.509 268.836 184.434 268.836V264.836C182.087 264.836 179.904 265.206 177.913 265.98L179.363 269.708ZM184.434 268.836C186.108 268.836 187.58 269.111 188.875 269.629L190.361 265.915C188.536 265.185 186.552 264.836 184.434 264.836V268.836ZM188.9 269.639C190.258 270.161 191.388 270.845 192.317 271.675L194.983 268.693C193.656 267.507 192.098 266.583 190.336 265.905L188.9 269.639ZM192.317 271.675C193.252 272.511 193.98 273.476 194.512 274.581L198.115 272.843C197.352 271.26 196.303 269.873 194.983 268.693L192.317 271.675ZM194.532 274.619C195.084 275.705 195.393 276.822 195.47 277.985L199.461 277.719C199.347 276.002 198.888 274.359 198.096 272.805L194.532 274.619ZM197.077 275.89L193.081 276.682L193.859 280.606L197.855 279.814L197.077 275.89ZM192.999 276.7C192.999 276.7 193.064 276.685 193.173 276.699C193.289 276.714 193.405 276.756 193.504 276.819C193.687 276.935 193.659 277.02 193.556 276.769L189.856 278.287C190.137 278.972 190.595 279.711 191.366 280.199C192.196 280.725 193.116 280.788 193.941 280.588L192.999 276.7ZM193.637 277.008C193.417 276.19 193.067 275.384 192.614 274.592L189.141 276.576C189.457 277.128 189.659 277.618 189.775 278.048L193.637 277.008ZM192.641 274.64C192.168 273.757 191.545 272.969 190.792 272.276L188.084 275.22C188.53 275.631 188.868 276.067 189.115 276.528L192.641 274.64ZM190.822 272.304C190.049 271.564 189.131 270.983 188.102 270.542L186.526 274.218C187.177 274.497 187.675 274.828 188.054 275.192L190.822 272.304ZM188.121 270.55C186.998 270.055 185.752 269.84 184.434 269.84V273.84C185.324 273.84 185.998 273.985 186.507 274.21L188.121 270.55ZM184.434 269.84C183.019 269.84 181.676 270.067 180.431 270.553L181.885 274.279C182.608 273.997 183.449 273.84 184.434 273.84V269.84ZM180.415 270.559C179.217 271.038 178.157 271.725 177.26 272.622L180.088 275.45C180.583 274.955 181.179 274.562 181.901 274.273L180.415 270.559ZM177.26 272.622C176.379 273.503 175.714 274.548 175.259 275.73L178.993 277.166C179.258 276.476 179.625 275.913 180.088 275.45L177.26 272.622ZM175.266 275.714C174.804 276.882 174.586 278.13 174.586 279.436H178.586C178.586 278.582 178.727 277.838 178.986 277.182L175.266 275.714ZM174.586 279.436C174.586 280.43 174.7 281.397 174.934 282.333L178.814 281.363C178.664 280.763 178.586 280.122 178.586 279.436H174.586ZM174.934 282.333C175.167 283.268 175.526 284.192 175.996 285.104L179.552 283.272C179.206 282.6 178.964 281.964 178.814 281.363L174.934 282.333ZM176.018 285.146C176.513 286.052 177.119 286.951 177.828 287.844L180.96 285.356C180.373 284.617 179.899 283.908 179.53 283.23L176.018 285.146ZM177.828 287.844C178.533 288.731 179.366 289.652 180.32 290.606L183.148 287.778C182.278 286.908 181.551 286.101 180.96 285.356L177.828 287.844ZM180.308 290.594L195.14 305.678L197.992 302.874L183.16 287.79L180.308 290.594ZM198.312 305.252C199.289 303.503 200.076 301.685 200.669 299.801L196.854 298.599C196.344 300.219 195.667 301.785 194.82 303.3L198.312 305.252ZM200.672 299.794C201.262 297.894 201.651 295.995 201.833 294.099L197.851 293.717C197.697 295.325 197.366 296.954 196.852 298.606L200.672 299.794ZM201.831 294.117C201.839 294.04 201.85 294.02 201.843 294.039C201.839 294.049 201.83 294.067 201.815 294.092C201.8 294.117 201.78 294.145 201.754 294.173L198.794 291.483C198.196 292.141 197.933 292.94 197.853 293.699L201.831 294.117ZM201.754 294.173C201.665 294.271 201.552 294.348 201.437 294.393C201.331 294.434 201.268 294.432 201.282 294.432V290.432C200.415 290.432 199.492 290.715 198.794 291.483L201.754 294.173ZM201.282 294.432H205.206V290.432H201.282V294.432ZM203.206 292.415C203.184 294.974 202.784 297.489 202.002 299.967L205.817 301.169C206.716 298.319 207.18 295.41 207.206 292.449L203.206 292.415ZM202.004 299.962C201.224 302.414 200.097 304.724 198.62 306.895L201.927 309.145C203.618 306.66 204.916 304.002 205.816 301.174L202.004 299.962ZM198.848 309.422L209.648 320.402L212.5 317.598L201.7 306.618L198.848 309.422ZM273.914 308.812L272.444 310.169L272.447 310.172L273.914 308.812ZM276.686 311.8L278.2 313.106L279.369 311.752L278.152 310.44L276.686 311.8ZM268.982 317.524L268.157 315.702L268.152 315.704L268.982 317.524ZM247.994 317.668L247.206 319.506L247.218 319.512L247.994 317.668ZM240.254 312.268L238.78 313.62L238.787 313.628L240.254 312.268ZM235.286 303.916L237.166 303.234L237.166 303.234L235.286 303.916ZM235.358 282.532L237.229 283.239L237.229 283.239L235.358 282.532ZM240.506 274.18L239.062 272.796L239.054 272.804L240.506 274.18ZM248.498 268.78L249.258 270.63L249.27 270.625L248.498 268.78ZM268.478 268.6L269.25 266.755L269.25 266.755L268.478 268.6ZM275.894 273.388L277.517 274.556L278.539 273.135L277.266 271.934L275.894 273.388ZM273.59 276.592L271.966 275.424L271.917 275.492L271.875 275.563L273.59 276.592ZM273.014 277.204L274.123 278.868L274.142 278.855L274.16 278.842L273.014 277.204ZM270.53 276.736L269.31 278.321L269.33 278.336L269.35 278.351L270.53 276.736ZM268.082 275.152L269.074 273.416L269.074 273.416L268.082 275.152ZM264.302 273.604L263.696 275.51L263.71 275.515L263.724 275.519L264.302 273.604ZM251.414 274.288L252.177 276.137L252.186 276.133L252.194 276.129L251.414 274.288ZM245.69 278.284L244.216 276.932L244.211 276.937L244.206 276.943L245.69 278.284ZM242.018 301.828L240.137 302.509L240.14 302.517L240.143 302.524L242.018 301.828ZM245.798 308.236L244.314 309.577L244.324 309.588L244.333 309.598L245.798 308.236ZM251.45 312.196L250.672 314.039L250.679 314.042L251.45 312.196ZM262.646 313.312L262.918 315.293L262.934 315.291L262.95 315.289L262.646 313.312ZM266.066 312.448L265.382 310.568L265.375 310.571L265.368 310.574L266.066 312.448ZM268.982 311.008L270.07 312.686L270.081 312.679L268.982 311.008ZM271.682 308.884L270.358 307.384L270.343 307.398L270.328 307.411L271.682 308.884ZM272.906 310.344C272.818 310.344 272.709 310.324 272.603 310.275C272.502 310.228 272.451 310.177 272.444 310.169L275.383 307.455C274.761 306.781 273.91 306.344 272.906 306.344V310.344ZM272.447 310.172L275.219 313.16L278.152 310.44L275.38 307.452L272.447 310.172ZM275.171 310.494C273.254 312.716 270.924 314.45 268.157 315.702L269.806 319.346C273.087 317.862 275.893 315.78 278.2 313.106L275.171 310.494ZM268.152 315.704C265.477 316.924 262.14 317.576 258.074 317.576V321.576C262.551 321.576 266.486 320.86 269.811 319.344L268.152 315.704ZM258.074 317.576C254.61 317.576 251.518 316.981 248.769 315.824L247.218 319.512C250.517 320.899 254.145 321.576 258.074 321.576V317.576ZM248.781 315.83C246.002 314.639 243.657 312.997 241.72 310.908L238.787 313.628C241.122 316.147 243.937 318.105 247.206 319.506L248.781 315.83ZM241.727 310.916C239.785 308.799 238.26 306.248 237.166 303.234L233.406 304.598C234.663 308.064 236.45 311.081 238.78 313.62L241.727 310.916ZM237.166 303.234C236.078 300.238 235.522 296.909 235.522 293.224H231.522C231.522 297.315 232.141 301.114 233.406 304.598L237.166 303.234ZM235.522 293.224C235.522 289.548 236.1 286.227 237.229 283.239L233.487 281.825C232.167 285.317 231.522 289.124 231.522 293.224H235.522ZM237.229 283.239C238.366 280.228 239.946 277.676 241.957 275.556L239.054 272.804C236.649 275.34 234.797 278.356 233.487 281.825L237.229 283.239ZM241.949 275.564C243.981 273.445 246.409 271.8 249.258 270.63L247.738 266.93C244.394 268.304 241.494 270.259 239.062 272.796L241.949 275.564ZM249.27 270.625C252.094 269.442 255.248 268.836 258.758 268.836V264.836C254.779 264.836 251.093 265.526 247.725 266.935L249.27 270.625ZM258.758 268.836C262.218 268.836 265.187 269.39 267.705 270.445L269.25 266.755C266.153 265.458 262.641 264.836 258.758 264.836V268.836ZM267.705 270.445C270.299 271.531 272.566 272.998 274.521 274.842L277.266 271.934C274.949 269.746 272.272 268.021 269.25 266.755L267.705 270.445ZM274.27 272.22L271.966 275.424L275.213 277.76L277.517 274.556L274.27 272.22ZM271.875 275.563C271.875 275.562 271.876 275.56 271.878 275.558C271.879 275.556 271.88 275.555 271.881 275.554C271.882 275.554 271.881 275.554 271.88 275.556C271.878 275.557 271.873 275.561 271.867 275.566L274.16 278.842C274.62 278.521 275.009 278.113 275.305 277.621L271.875 275.563ZM271.904 275.54C272.025 275.459 272.123 275.43 272.16 275.421C272.195 275.413 272.185 275.42 272.114 275.42V279.42C272.714 279.42 273.456 279.313 274.123 278.868L271.904 275.54ZM272.114 275.42C272.245 275.42 272.279 275.453 272.186 275.413C272.097 275.374 271.939 275.289 271.71 275.121L269.35 278.351C270.078 278.883 271.036 279.42 272.114 279.42V275.42ZM271.749 275.151C271.028 274.596 270.128 274.018 269.074 273.416L267.089 276.888C268.052 277.438 268.783 277.916 269.31 278.321L271.749 275.151ZM269.074 273.416C267.897 272.743 266.488 272.174 264.879 271.689L263.724 275.519C265.139 275.946 266.25 276.409 267.089 276.888L269.074 273.416ZM264.907 271.698C263.139 271.137 261.061 270.884 258.722 270.884V274.884C260.798 274.884 262.44 275.111 263.696 275.51L264.907 271.698ZM258.722 270.884C255.819 270.884 253.114 271.395 250.633 272.447L252.194 276.129C254.129 275.309 256.296 274.884 258.722 274.884V270.884ZM250.65 272.439C248.173 273.462 246.023 274.963 244.216 276.932L247.163 279.636C248.573 278.101 250.238 276.938 252.177 276.137L250.65 272.439ZM244.206 276.943C242.422 278.915 241.06 281.29 240.095 284.027L243.868 285.357C244.679 283.054 245.789 281.157 247.173 279.625L244.206 276.943ZM240.095 284.027C239.119 286.796 238.65 289.871 238.65 293.224H242.65C242.65 290.241 243.068 287.628 243.868 285.357L240.095 284.027ZM238.65 293.224C238.65 296.627 239.132 299.732 240.137 302.509L243.898 301.147C243.079 298.884 242.65 296.253 242.65 293.224H238.65ZM240.143 302.524C241.155 305.25 242.538 307.613 244.314 309.577L247.281 306.895C245.889 305.355 244.752 303.446 243.892 301.132L240.143 302.524ZM244.333 309.598C246.132 311.532 248.25 313.016 250.672 314.038L252.228 310.354C250.329 309.552 248.679 308.396 247.262 306.874L244.333 309.598ZM250.679 314.042C253.123 315.062 255.738 315.564 258.506 315.564V311.564C256.233 311.564 254.145 311.154 252.22 310.35L250.679 314.042ZM258.506 315.564C260.112 315.564 261.585 315.476 262.918 315.293L262.374 311.331C261.258 311.484 259.971 311.564 258.506 311.564V315.564ZM262.95 315.289C264.313 315.079 265.587 314.76 266.763 314.322L265.368 310.574C264.48 310.904 263.474 311.161 262.341 311.335L262.95 315.289ZM266.749 314.328C267.939 313.895 269.048 313.349 270.07 312.686L267.893 309.33C267.14 309.819 266.305 310.233 265.382 310.568L266.749 314.328ZM270.081 312.679C271.091 312.014 272.076 311.238 273.035 310.357L270.328 307.411C269.511 308.162 268.696 308.802 267.882 309.337L270.081 312.679ZM273.005 310.384C273.087 310.311 273.121 310.3 273.101 310.309C273.09 310.314 273.066 310.323 273.03 310.331C272.994 310.339 272.952 310.344 272.906 310.344V306.344C271.867 306.344 271.008 306.811 270.358 307.384L273.005 310.384ZM329.627 303.88L331.496 304.591L331.498 304.587L329.627 303.88ZM324.443 312.196L322.999 310.812L322.999 310.812L324.443 312.196ZM316.379 317.632L317.134 319.484L317.141 319.481L316.379 317.632ZM295.643 317.632L294.876 319.479L294.888 319.484L295.643 317.632ZM287.615 312.196L286.171 313.58L286.171 313.58L287.615 312.196ZM282.431 303.88L280.56 304.587L280.562 304.591L282.431 303.88ZM282.431 282.604L284.3 283.315L284.302 283.311L282.431 282.604ZM287.615 274.252L289.059 275.636L289.066 275.629L287.615 274.252ZM316.379 268.78L315.612 270.627L315.617 270.629L316.379 268.78ZM324.443 274.252L322.992 275.629L322.999 275.636L324.443 274.252ZM329.627 282.604L327.756 283.311L327.758 283.315L329.627 282.604ZM319.331 278.32L317.847 279.661L317.857 279.671L319.331 278.32ZM313.571 274.288L314.337 272.441L314.337 272.441L313.571 274.288ZM298.487 274.288L297.721 272.441L297.72 272.441L298.487 274.288ZM292.691 278.32L291.217 276.968L291.217 276.969L292.691 278.32ZM289.019 284.692L287.127 284.043L287.127 284.043L289.019 284.692ZM289.019 301.756L287.127 302.405L287.129 302.41L289.019 301.756ZM292.691 308.128L291.207 309.469L291.217 309.48L291.227 309.49L292.691 308.128ZM298.487 312.124L297.72 313.971L297.729 313.975L297.737 313.978L298.487 312.124ZM313.571 312.124L314.321 313.978L314.329 313.975L314.337 313.971L313.571 312.124ZM319.331 308.128L320.805 309.479L320.814 309.469L319.331 308.128ZM323.003 301.756L324.893 302.41L324.895 302.405L323.003 301.756ZM329.463 293.224C329.463 296.874 328.885 300.184 327.756 303.173L331.498 304.587C332.817 301.096 333.463 297.302 333.463 293.224H329.463ZM327.758 303.169C326.623 306.151 325.034 308.69 322.999 310.812L325.887 313.58C328.316 311.046 330.183 308.041 331.496 304.591L327.758 303.169ZM322.999 310.812C320.97 312.928 318.518 314.587 315.617 315.783L317.141 319.481C320.528 318.085 323.452 316.12 325.887 313.58L322.999 310.812ZM315.624 315.78C312.772 316.943 309.576 317.54 306.011 317.54V321.54C310.029 321.54 313.746 320.865 317.134 319.484L315.624 315.78ZM306.011 317.54C302.445 317.54 299.25 316.943 296.398 315.78L294.888 319.484C298.276 320.865 301.992 321.54 306.011 321.54V317.54ZM296.41 315.785C293.533 314.59 291.09 312.931 289.059 310.812L286.171 313.58C288.603 316.117 291.513 318.082 294.876 319.479L296.41 315.785ZM289.059 310.812C287.024 308.69 285.435 306.151 284.3 303.169L280.562 304.591C281.875 308.041 283.742 311.046 286.171 313.58L289.059 310.812ZM284.302 303.173C283.173 300.184 282.595 296.874 282.595 293.224H278.595C278.595 297.302 279.241 301.096 280.56 304.587L284.302 303.173ZM282.595 293.224C282.595 289.573 283.173 286.278 284.3 283.315L280.562 281.893C279.241 285.362 278.595 289.147 278.595 293.224H282.595ZM284.302 283.311C285.438 280.304 287.027 277.755 289.059 275.636L286.171 272.868C283.739 275.405 281.872 278.424 280.56 281.897L284.302 283.311ZM289.066 275.629C291.097 273.488 293.537 271.82 296.41 270.627L294.876 266.933C291.509 268.332 288.597 270.312 286.164 272.875L289.066 275.629ZM296.41 270.627C299.259 269.444 302.45 268.836 306.011 268.836V264.836C301.988 264.836 298.267 265.524 294.876 266.933L296.41 270.627ZM306.011 268.836C309.572 268.836 312.763 269.444 315.612 270.627L317.146 266.933C313.755 265.524 310.034 264.836 306.011 264.836V268.836ZM315.617 270.629C318.514 271.823 320.963 273.491 322.992 275.629L325.894 272.875C323.459 270.309 320.532 268.329 317.141 266.931L315.617 270.629ZM322.999 275.636C325.031 277.755 326.62 280.304 327.756 283.311L331.498 281.897C330.186 278.424 328.319 275.405 325.887 272.868L322.999 275.636ZM327.758 283.315C328.885 286.278 329.463 289.573 329.463 293.224H333.463C333.463 289.147 332.817 285.362 331.496 281.893L327.758 283.315ZM326.299 293.224C326.299 289.876 325.842 286.807 324.895 284.043L321.111 285.341C321.891 287.617 322.299 290.236 322.299 293.224H326.299ZM324.895 284.043C323.954 281.298 322.599 278.925 320.805 276.969L317.857 279.671C319.231 281.171 320.324 283.046 321.111 285.341L324.895 284.043ZM320.814 276.979C319.025 274.999 316.857 273.486 314.337 272.441L312.804 276.135C314.797 276.962 316.469 278.137 317.847 279.661L320.814 276.979ZM314.337 272.441C311.807 271.391 309.021 270.884 306.011 270.884V274.884C308.568 274.884 310.823 275.313 312.804 276.135L314.337 272.441ZM306.011 270.884C303.022 270.884 300.249 271.392 297.721 272.441L299.253 276.135C301.237 275.312 303.48 274.884 306.011 274.884V270.884ZM297.72 272.441C295.203 273.485 293.028 274.995 291.217 276.968L294.164 279.672C295.57 278.141 297.259 276.963 299.253 276.135L297.72 272.441ZM291.217 276.969C289.423 278.925 288.068 281.298 287.127 284.043L290.911 285.341C291.698 283.046 292.791 281.171 294.165 279.671L291.217 276.969ZM287.127 284.043C286.179 286.807 285.723 289.876 285.723 293.224H289.723C289.723 290.236 290.13 287.617 290.911 285.341L287.127 284.043ZM285.723 293.224C285.723 296.572 286.179 299.641 287.127 302.405L290.911 301.107C290.13 298.831 289.723 296.212 289.723 293.224H285.723ZM287.129 302.41C288.07 305.13 289.423 307.496 291.207 309.469L294.174 306.787C292.791 305.256 291.695 303.374 290.909 301.102L287.129 302.41ZM291.227 309.49C293.037 311.436 295.209 312.929 297.72 313.971L299.253 310.277C297.253 309.447 295.561 308.276 294.155 306.766L291.227 309.49ZM297.737 313.978C300.261 314.999 303.028 315.492 306.011 315.492V311.492C303.474 311.492 301.225 311.073 299.237 310.27L297.737 313.978ZM306.011 315.492C309.015 315.492 311.795 314.999 314.321 313.978L312.821 310.27C310.835 311.073 308.575 311.492 306.011 311.492V315.492ZM314.337 313.971C316.851 312.928 319.016 311.431 320.805 309.479L317.857 306.777C316.478 308.281 314.803 309.448 312.804 310.277L314.337 313.971ZM320.814 309.469C322.599 307.496 323.951 305.13 324.893 302.41L321.113 301.102C320.326 303.374 319.231 305.256 317.847 306.787L320.814 309.469ZM324.895 302.405C325.842 299.641 326.299 296.572 326.299 293.224H322.299C322.299 296.212 321.891 298.831 321.111 301.107L324.895 302.405ZM379.147 311.908L377.725 310.501L377.725 310.501L379.147 311.908ZM371.083 317.164L371.814 319.026L371.821 319.023L371.083 317.164ZM341.455 319H339.455V321H341.455V319ZM341.455 267.412V265.412H339.455V267.412H341.455ZM371.083 269.284L370.34 271.141L370.349 271.144L370.358 271.148L371.083 269.284ZM379.147 274.54L377.718 275.939L377.725 275.947L379.147 274.54ZM384.331 282.676L386.197 281.955L386.197 281.955L384.331 282.676ZM368.275 274.432L367.526 276.286L367.526 276.286L368.275 274.432ZM348.439 273.064V271.064H346.439V273.064H348.439ZM348.439 313.348H346.439V315.348H348.439V313.348ZM368.275 311.98L367.526 310.126L367.526 310.126L368.275 311.98ZM374.035 308.056L375.5 309.418L375.509 309.407L374.035 308.056ZM377.707 301.72L379.597 302.374L379.597 302.374L377.707 301.72ZM384.167 293.224C384.167 296.875 383.589 300.143 382.466 303.051L386.197 304.493C387.521 301.065 388.167 297.301 388.167 293.224H384.167ZM382.466 303.051C381.334 305.981 379.751 308.454 377.725 310.501L380.569 313.315C383.008 310.85 384.881 307.899 386.197 304.493L382.466 303.051ZM377.725 310.501C375.7 312.548 373.25 314.152 370.345 315.305L371.821 319.023C375.205 317.68 378.13 315.78 380.569 313.315L377.725 310.501ZM370.353 315.302C367.494 316.424 364.29 317 360.715 317V321C364.725 321 368.432 320.352 371.814 319.026L370.353 315.302ZM360.715 317H341.455V321H360.715V317ZM343.455 319V267.412H339.455V319H343.455ZM341.455 269.412H360.715V265.412H341.455V269.412ZM360.715 269.412C364.285 269.412 367.485 269.999 370.34 271.141L371.826 267.427C368.441 266.073 364.729 265.412 360.715 265.412V269.412ZM370.358 271.148C373.252 272.275 375.696 273.874 377.718 275.939L380.576 273.141C378.134 270.646 375.202 268.741 371.809 267.42L370.358 271.148ZM377.725 275.947C379.751 277.994 381.334 280.467 382.466 283.397L386.197 281.955C384.881 278.549 383.008 275.598 380.569 273.133L377.725 275.947ZM382.466 283.397C383.589 286.305 384.167 289.573 384.167 293.224H388.167C388.167 289.147 387.521 285.383 386.197 281.955L382.466 283.397ZM381.003 293.224C381.003 289.876 380.547 286.817 379.597 284.074L375.817 285.382C376.596 287.631 377.003 290.236 377.003 293.224H381.003ZM379.597 284.074C378.655 281.352 377.3 278.994 375.509 277.041L372.561 279.743C373.938 281.246 375.031 283.112 375.817 285.382L379.597 284.074ZM375.509 277.041C373.717 275.085 371.546 273.597 369.025 272.578L367.526 276.286C369.516 277.091 371.186 278.243 372.561 279.743L375.509 277.041ZM369.025 272.578C366.499 271.557 363.719 271.064 360.715 271.064V275.064C363.279 275.064 365.54 275.483 367.526 276.286L369.025 272.578ZM360.715 271.064H348.439V275.064H360.715V271.064ZM346.439 273.064V313.348H350.439V273.064H346.439ZM348.439 315.348H360.715V311.348H348.439V315.348ZM360.715 315.348C363.719 315.348 366.499 314.855 369.025 313.834L367.526 310.126C365.54 310.929 363.279 311.348 360.715 311.348V315.348ZM369.025 313.834C371.54 312.818 373.707 311.346 375.5 309.418L372.57 306.694C371.195 308.174 369.523 309.318 367.526 310.126L369.025 313.834ZM375.509 309.407C377.3 307.454 378.655 305.096 379.597 302.374L375.817 301.066C375.031 303.336 373.938 305.202 372.561 306.705L375.509 309.407ZM379.597 302.374C380.547 299.631 381.003 296.572 381.003 293.224H377.003C377.003 296.212 376.596 298.817 375.817 301.066L379.597 302.374ZM428.053 313.312L430.053 313.325L430.065 311.312H428.053V313.312ZM428.017 319V321H430.004L430.017 319.013L428.017 319ZM396.229 319H394.229V321H396.229V319ZM396.229 267.412V265.412H394.229V267.412H396.229ZM428.017 267.412H430.017V265.412H428.017V267.412ZM428.017 273.1V275.1H430.017V273.1H428.017ZM403.213 273.1V271.1H401.213V273.1H403.213ZM403.213 290.236H401.213V292.236H403.213V290.236ZM423.301 290.236H425.301V288.236H423.301V290.236ZM423.301 295.708V297.708H425.301V295.708H423.301ZM403.213 295.708V293.708H401.213V295.708H403.213ZM403.213 313.312H401.213V315.312H403.213V313.312ZM426.053 313.299L426.017 318.987L430.017 319.013L430.053 313.325L426.053 313.299ZM428.017 317H396.229V321H428.017V317ZM398.229 319V267.412H394.229V319H398.229ZM396.229 269.412H428.017V265.412H396.229V269.412ZM426.017 267.412V273.1H430.017V267.412H426.017ZM428.017 271.1H403.213V275.1H428.017V271.1ZM401.213 273.1V290.236H405.213V273.1H401.213ZM403.213 292.236H423.301V288.236H403.213V292.236ZM421.301 290.236V295.708H425.301V290.236H421.301ZM423.301 293.708H403.213V297.708H423.301V293.708ZM401.213 295.708V313.312H405.213V295.708H401.213ZM403.213 315.312H428.053V311.312H403.213V315.312Z" fill="url(#paint1_linear)"/>
<defs>
<linearGradient id="paint0_linear" x1="220" y1="187" x2="220" y2="273" gradientUnits="userSpaceOnUse">
<stop stop-color="#FF6060"/>
<stop offset="1" stop-color="#202020"/>
</linearGradient>
<linearGradient id="paint1_linear" x1="287" y1="248" x2="287" y2="334" gradientUnits="userSpaceOnUse">
<stop stop-color="#FF6060"/>
<stop offset="1" stop-color="#202020"/>
</linearGradient>
</defs>
</svg>
