<svg width="520" height="520" viewBox="0 0 520 520" fill="none" xmlns="http://www.w3.org/2000/svg">
<rect width="520" height="520" fill="url(#paint0_linear)"/>
<path d="M125.28 237.908L123.858 236.501L123.858 236.501L125.28 237.908ZM117.216 243.164L117.946 245.026L117.954 245.023L117.216 243.164ZM87.588 245H85.588V247H87.588V245ZM87.588 193.412V191.412H85.588V193.412H87.588ZM117.216 195.284L116.473 197.141L116.482 197.144L116.49 197.148L117.216 195.284ZM125.28 200.54L123.851 201.939L123.858 201.947L125.28 200.54ZM130.464 208.676L132.33 207.955L132.33 207.955L130.464 208.676ZM114.408 200.432L113.658 202.286L113.658 202.286L114.408 200.432ZM94.572 199.064V197.064H92.572V199.064H94.572ZM94.572 239.348H92.572V241.348H94.572V239.348ZM114.408 237.98L113.658 236.126L113.658 236.126L114.408 237.98ZM120.168 234.056L121.633 235.418L121.642 235.407L120.168 234.056ZM123.84 227.72L125.73 228.374L125.73 228.374L123.84 227.72ZM130.3 219.224C130.3 222.875 129.722 226.143 128.598 229.051L132.33 230.493C133.654 227.065 134.3 223.301 134.3 219.224H130.3ZM128.598 229.051C127.467 231.981 125.883 234.454 123.858 236.501L126.702 239.315C129.141 236.85 131.013 233.899 132.33 230.493L128.598 229.051ZM123.858 236.501C121.833 238.548 119.383 240.152 116.478 241.305L117.954 245.023C121.337 243.68 124.263 241.78 126.702 239.315L123.858 236.501ZM116.486 241.302C113.627 242.424 110.423 243 106.848 243V247C110.857 247 114.565 246.352 117.946 245.026L116.486 241.302ZM106.848 243H87.588V247H106.848V243ZM89.588 245V193.412H85.588V245H89.588ZM87.588 195.412H106.848V191.412H87.588V195.412ZM106.848 195.412C110.418 195.412 113.618 195.999 116.473 197.141L117.959 193.427C114.574 192.073 110.862 191.412 106.848 191.412V195.412ZM116.49 197.148C119.385 198.275 121.829 199.874 123.851 201.939L126.709 199.141C124.267 196.646 121.335 194.741 117.942 193.42L116.49 197.148ZM123.858 201.947C125.883 203.994 127.467 206.467 128.598 209.397L132.33 207.955C131.013 204.549 129.141 201.598 126.702 199.133L123.858 201.947ZM128.598 209.397C129.722 212.305 130.3 215.573 130.3 219.224H134.3C134.3 215.147 133.654 211.383 132.33 207.955L128.598 209.397ZM127.136 219.224C127.136 215.876 126.68 212.817 125.73 210.074L121.95 211.382C122.728 213.631 123.136 216.236 123.136 219.224H127.136ZM125.73 210.074C124.788 207.352 123.433 204.994 121.642 203.041L118.694 205.743C120.071 207.246 121.164 209.112 121.95 211.382L125.73 210.074ZM121.642 203.041C119.849 201.085 117.679 199.597 115.158 198.578L113.658 202.286C115.649 203.091 117.319 204.243 118.694 205.743L121.642 203.041ZM115.158 198.578C112.632 197.557 109.852 197.064 106.848 197.064V201.064C109.412 201.064 111.672 201.483 113.658 202.286L115.158 198.578ZM106.848 197.064H94.572V201.064H106.848V197.064ZM92.572 199.064V239.348H96.572V199.064H92.572ZM94.572 241.348H106.848V237.348H94.572V241.348ZM106.848 241.348C109.852 241.348 112.632 240.855 115.158 239.834L113.658 236.126C111.672 236.929 109.412 237.348 106.848 237.348V241.348ZM115.158 239.834C117.672 238.818 119.84 237.346 121.633 235.418L118.703 232.694C117.328 234.174 115.656 235.318 113.658 236.126L115.158 239.834ZM121.642 235.407C123.433 233.454 124.788 231.096 125.73 228.374L121.95 227.066C121.164 229.336 120.071 231.202 118.694 232.705L121.642 235.407ZM125.73 228.374C126.68 225.631 127.136 222.572 127.136 219.224H123.136C123.136 222.212 122.728 224.817 121.95 227.066L125.73 228.374ZM174.185 239.312L176.185 239.325L176.198 237.312H174.185V239.312ZM174.149 245V247H176.137L176.149 245.013L174.149 245ZM142.361 245H140.361V247H142.361V245ZM142.361 193.412V191.412H140.361V193.412H142.361ZM174.149 193.412H176.149V191.412H174.149V193.412ZM174.149 199.1V201.1H176.149V199.1H174.149ZM149.345 199.1V197.1H147.345V199.1H149.345ZM149.345 216.236H147.345V218.236H149.345V216.236ZM169.433 216.236H171.433V214.236H169.433V216.236ZM169.433 221.708V223.708H171.433V221.708H169.433ZM149.345 221.708V219.708H147.345V221.708H149.345ZM149.345 239.312H147.345V241.312H149.345V239.312ZM172.185 239.299L172.149 244.987L176.149 245.013L176.185 239.325L172.185 239.299ZM174.149 243H142.361V247H174.149V243ZM144.361 245V193.412H140.361V245H144.361ZM142.361 195.412H174.149V191.412H142.361V195.412ZM172.149 193.412V199.1H176.149V193.412H172.149ZM174.149 197.1H149.345V201.1H174.149V197.1ZM147.345 199.1V216.236H151.345V199.1H147.345ZM149.345 218.236H169.433V214.236H149.345V218.236ZM167.433 216.236V221.708H171.433V216.236H167.433ZM169.433 219.708H149.345V223.708H169.433V219.708ZM147.345 221.708V239.312H151.345V221.708H147.345ZM149.345 241.312H174.185V237.312H149.345V241.312ZM210.304 201.476L212.019 202.505L212.054 202.447L212.085 202.386L210.304 201.476ZM209.584 202.304L210.731 203.942L210.746 203.932L210.76 203.921L209.584 202.304ZM207.244 201.944L208.433 200.336L208.433 200.336L207.244 201.944ZM205.156 200.612L204.105 202.314L204.134 202.332L204.164 202.348L205.156 200.612ZM202.168 199.244L201.5 201.129L201.513 201.134L202.168 199.244ZM193.816 199.28L194.472 201.17L194.483 201.166L194.494 201.162L193.816 199.28ZM190.828 200.972L189.505 199.472L189.494 199.482L189.483 199.492L190.828 200.972ZM189.028 203.528L190.869 204.31L190.872 204.302L190.876 204.294L189.028 203.528ZM189.46 210.26L187.841 211.434L187.858 211.457L187.875 211.479L189.46 210.26ZM192.268 212.672L191.26 214.4L191.268 214.404L191.276 214.408L192.268 212.672ZM196.228 214.436L195.577 216.327L195.596 216.333L195.614 216.339L196.228 214.436ZM200.764 215.948L200.114 217.839L200.123 217.842L200.764 215.948ZM205.3 217.748L204.466 219.566L204.484 219.574L204.502 219.582L205.3 217.748ZM209.26 220.232L207.943 221.737L207.951 221.744L207.959 221.751L209.26 220.232ZM212.068 223.94L210.262 224.799L210.268 224.811L210.273 224.823L212.068 223.94ZM211.996 235.712L213.859 236.439L213.862 236.431L211.996 235.712ZM208.612 240.86L207.209 239.434L207.204 239.44L207.198 239.446L208.612 240.86ZM203.176 244.316L202.451 242.452L202.444 242.455L203.176 244.316ZM186.724 243.776L185.907 245.602L185.914 245.605L185.921 245.608L186.724 243.776ZM179.704 238.844L177.996 237.804L177.203 239.106L178.248 240.215L179.704 238.844ZM181.72 235.532L180.103 234.356L180.054 234.422L180.012 234.492L181.72 235.532ZM182.404 234.884L183.478 236.571L183.496 236.56L183.514 236.548L182.404 234.884ZM184.384 234.992L183.251 236.64L183.309 236.68L183.37 236.716L184.384 234.992ZM185.752 235.928L184.54 237.519L184.54 237.519L185.752 235.928ZM187.48 237.188L186.329 238.824L186.329 238.824L187.48 237.188ZM189.676 238.448L188.825 240.258L188.835 240.262L188.845 240.267L189.676 238.448ZM192.52 239.42L192.035 241.36L192.056 241.366L192.077 241.37L192.52 239.42ZM200.512 239.096L201.176 240.983L201.176 240.983L200.512 239.096ZM203.788 237.188L205.141 238.661L205.143 238.659L203.788 237.188ZM205.516 226.532L203.87 227.668L203.886 227.691L203.902 227.713L205.516 226.532ZM198.784 222.32L198.17 224.223L198.184 224.228L198.198 224.232L198.784 222.32ZM194.248 220.88L193.625 222.78L193.638 222.785L193.652 222.789L194.248 220.88ZM185.752 216.632L187.087 215.142L187.087 215.142L185.752 216.632ZM182.944 212.78L181.118 213.595L181.125 213.612L181.133 213.629L182.944 212.78ZM182.944 201.728L181.102 200.95L181.097 200.961L181.093 200.972L182.944 201.728ZM186.04 197.192L184.651 195.753L184.645 195.759L184.639 195.765L186.04 197.192ZM191.044 194.024L190.305 192.165L190.297 192.169L191.044 194.024ZM205.732 194.204L205.009 196.069L205.015 196.071L205.732 194.204ZM211.996 198.164L213.777 199.074L214.453 197.75L213.381 196.721L211.996 198.164ZM208.589 200.447C208.473 200.64 208.402 200.691 208.408 200.687L210.76 203.921C211.294 203.533 211.703 203.032 212.019 202.505L208.589 200.447ZM208.437 200.666C208.514 200.612 208.586 200.582 208.64 200.567C208.69 200.553 208.709 200.556 208.684 200.556V204.556C209.359 204.556 210.085 204.395 210.731 203.942L208.437 200.666ZM208.684 200.556C208.813 200.556 208.859 200.587 208.8 200.562C208.742 200.537 208.62 200.474 208.433 200.336L206.055 203.552C206.739 204.058 207.643 204.556 208.684 204.556V200.556ZM208.433 200.336C207.798 199.867 207.031 199.38 206.148 198.876L204.164 202.348C204.961 202.804 205.586 203.205 206.055 203.552L208.433 200.336ZM206.207 198.91C205.236 198.311 204.099 197.797 202.824 197.354L201.513 201.134C202.589 201.507 203.444 201.905 204.105 202.314L206.207 198.91ZM202.836 197.359C201.408 196.853 199.764 196.632 197.956 196.632V200.632C199.46 200.632 200.624 200.819 201.5 201.129L202.836 197.359ZM197.956 196.632C196.215 196.632 194.598 196.873 193.139 197.398L194.494 201.162C195.434 200.823 196.577 200.632 197.956 200.632V196.632ZM193.161 197.39C191.774 197.872 190.542 198.557 189.505 199.472L192.151 202.472C192.746 201.947 193.506 201.504 194.472 201.17L193.161 197.39ZM189.483 199.492C188.474 200.409 187.702 201.505 187.181 202.762L190.876 204.294C191.17 203.583 191.598 202.975 192.173 202.452L189.483 199.492ZM187.187 202.746C186.666 203.973 186.416 205.285 186.416 206.66H190.416C190.416 205.779 190.574 205.003 190.869 204.31L187.187 202.746ZM186.416 206.66C186.416 208.429 186.848 210.065 187.841 211.434L191.079 209.086C190.68 208.535 190.416 207.771 190.416 206.66H186.416ZM187.875 211.479C188.772 212.645 189.914 213.614 191.26 214.4L193.276 210.944C192.319 210.386 191.588 209.747 191.045 209.041L187.875 211.479ZM191.276 214.408C192.575 215.151 194.011 215.788 195.577 216.327L196.879 212.545C195.517 212.076 194.314 211.537 193.26 210.936L191.276 214.408ZM195.614 216.339C197.09 216.815 198.59 217.315 200.114 217.839L201.414 214.057C199.867 213.525 198.343 213.017 196.842 212.533L195.614 216.339ZM200.123 217.842C201.619 218.349 203.066 218.923 204.466 219.566L206.134 215.93C204.606 215.229 203.03 214.603 201.405 214.054L200.123 217.842ZM204.502 219.582C205.812 220.152 206.955 220.873 207.943 221.737L210.577 218.727C209.261 217.575 207.764 216.64 206.099 215.914L204.502 219.582ZM207.959 221.751C208.912 222.568 209.68 223.576 210.262 224.799L213.874 223.081C213.064 221.376 211.96 219.912 210.562 218.713L207.959 221.751ZM210.273 224.823C210.823 225.941 211.148 227.419 211.148 229.34H215.148C215.148 226.989 214.753 224.867 213.863 223.057L210.273 224.823ZM211.148 229.34C211.148 231.364 210.805 233.243 210.13 234.993L213.862 236.431C214.724 234.197 215.148 231.828 215.148 229.34H211.148ZM210.133 234.985C209.466 236.693 208.494 238.171 207.209 239.434L210.015 242.286C211.706 240.621 212.99 238.667 213.859 236.439L210.133 234.985ZM207.198 239.446C205.952 240.692 204.384 241.7 202.451 242.452L203.901 246.18C206.289 245.252 208.344 243.956 210.026 242.274L207.198 239.446ZM202.444 242.455C200.581 243.187 198.401 243.576 195.868 243.576V247.576C198.808 247.576 201.499 247.125 203.908 246.177L202.444 242.455ZM195.868 243.576C192.75 243.576 189.98 243.02 187.527 241.944L185.921 245.608C188.94 246.932 192.266 247.576 195.868 247.576V243.576ZM187.541 241.95C185.032 240.828 182.913 239.334 181.16 237.473L178.248 240.215C180.383 242.482 182.944 244.276 185.907 245.602L187.541 241.95ZM181.413 239.884L183.429 236.572L180.012 234.492L177.996 237.804L181.413 239.884ZM183.338 236.708C183.388 236.638 183.435 236.599 183.478 236.571L181.33 233.197C180.846 233.505 180.436 233.898 180.103 234.356L183.338 236.708ZM183.514 236.548C183.506 236.553 183.482 236.567 183.442 236.58C183.402 236.592 183.366 236.596 183.34 236.596V232.596C182.597 232.596 181.901 232.816 181.295 233.22L183.514 236.548ZM183.34 236.596C183.212 236.596 183.136 236.569 183.126 236.565C183.121 236.563 183.129 236.566 183.151 236.578C183.173 236.59 183.207 236.61 183.251 236.64L185.517 233.344C184.955 232.957 184.211 232.596 183.34 232.596V236.596ZM183.37 236.716C183.691 236.905 184.08 237.168 184.54 237.519L186.964 234.337C186.417 233.92 185.893 233.559 185.398 233.268L183.37 236.716ZM184.54 237.519C185.068 237.921 185.665 238.356 186.329 238.824L188.631 235.552C187.999 235.108 187.444 234.703 186.964 234.337L184.54 237.519ZM186.329 238.824C187.084 239.355 187.918 239.831 188.825 240.258L190.528 236.638C189.802 236.297 189.173 235.933 188.631 235.552L186.329 238.824ZM188.845 240.267C189.814 240.71 190.881 241.072 192.035 241.36L193.005 237.48C192.048 237.24 191.218 236.954 190.508 236.629L188.845 240.267ZM192.077 241.37C193.306 241.65 194.646 241.78 196.084 241.78V237.78C194.882 237.78 193.846 237.67 192.963 237.47L192.077 241.37ZM196.084 241.78C197.921 241.78 199.628 241.527 201.176 240.983L199.848 237.209C198.804 237.577 197.559 237.78 196.084 237.78V241.78ZM201.176 240.983C202.692 240.449 204.028 239.684 205.141 238.661L202.435 235.715C201.772 236.324 200.924 236.831 199.848 237.209L201.176 240.983ZM205.143 238.659C206.269 237.622 207.132 236.386 207.722 234.969L204.03 233.431C203.66 234.318 203.131 235.074 202.433 235.717L205.143 238.659ZM207.722 234.969C208.317 233.543 208.596 231.993 208.596 230.348H204.596C204.596 231.535 204.396 232.553 204.03 233.431L207.722 234.969ZM208.596 230.348C208.596 228.483 208.163 226.763 207.13 225.351L203.902 227.713C204.309 228.269 204.596 229.093 204.596 230.348H208.596ZM207.162 225.396C206.285 224.125 205.135 223.091 203.752 222.284L201.736 225.74C202.658 226.277 203.355 226.923 203.87 227.668L207.162 225.396ZM203.752 222.284C202.447 221.523 200.982 220.902 199.37 220.408L198.198 224.232C199.563 224.65 200.737 225.157 201.736 225.74L203.752 222.284ZM199.398 220.417C197.904 219.935 196.386 219.453 194.845 218.971L193.652 222.789C195.182 223.267 196.688 223.745 198.17 224.223L199.398 220.417ZM194.872 218.98C193.395 218.495 191.942 217.941 190.511 217.318L188.914 220.986C190.459 221.659 192.029 222.257 193.625 222.78L194.872 218.98ZM190.511 217.318C189.209 216.751 188.072 216.025 187.087 215.142L184.418 218.122C185.736 219.303 187.239 220.257 188.914 220.986L190.511 217.318ZM187.087 215.142C186.154 214.306 185.372 213.247 184.755 211.931L181.133 213.629C181.956 215.385 183.047 216.894 184.418 218.122L187.087 215.142ZM184.771 211.965C184.22 210.732 183.9 209.108 183.9 207.02H179.9C179.9 209.492 180.276 211.708 181.118 213.595L184.771 211.965ZM183.9 207.02C183.9 205.458 184.197 203.95 184.796 202.484L181.093 200.972C180.299 202.914 179.9 204.934 179.9 207.02H183.9ZM184.786 202.506C185.402 201.05 186.282 199.757 187.442 198.619L184.639 195.765C183.11 197.267 181.926 198.998 181.102 200.95L184.786 202.506ZM187.429 198.631C188.591 197.51 190.034 196.586 191.791 195.879L190.297 192.169C188.118 193.046 186.225 194.234 184.651 195.753L187.429 198.631ZM191.783 195.882C193.498 195.2 195.52 194.836 197.884 194.836V190.836C195.112 190.836 192.574 191.263 190.305 192.166L191.783 195.882ZM197.884 194.836C200.551 194.836 202.918 195.258 205.009 196.069L206.455 192.339C203.842 191.326 200.977 190.836 197.884 190.836V194.836ZM205.015 196.071C207.148 196.89 209.007 198.067 210.611 199.607L213.381 196.721C211.385 194.805 209.069 193.342 206.449 192.337L205.015 196.071ZM210.215 197.254L208.523 200.566L212.085 202.386L213.777 199.074L210.215 197.254ZM229.994 245V247H231.994V245H229.994ZM223.01 245H221.01V247H223.01V245ZM223.01 193.412V191.412H221.01V193.412H223.01ZM229.994 193.412H231.994V191.412H229.994V193.412ZM229.994 243H223.01V247H229.994V243ZM225.01 245V193.412H221.01V245H225.01ZM223.01 195.412H229.994V191.412H223.01V195.412ZM227.994 193.412V245H231.994V193.412H227.994ZM285.094 220.196H287.094V218.196H285.094V220.196ZM285.094 239.996L286.265 241.617L287.094 241.019V239.996H285.094ZM276.778 244.208L277.372 246.118L277.382 246.114L276.778 244.208ZM255.898 243.668L255.173 245.532L255.185 245.537L255.898 243.668ZM247.33 238.268L245.923 239.689L245.93 239.697L245.937 239.704L247.33 238.268ZM241.894 229.916L243.755 229.185L243.755 229.185L241.894 229.916ZM241.822 208.46L239.955 207.741L239.951 207.753L241.822 208.46ZM247.114 200.144L248.535 201.551L248.542 201.543L247.114 200.144ZM255.43 194.744L256.156 196.607L256.156 196.607L255.43 194.744ZM272.062 193.304L271.711 195.273L271.724 195.275L271.737 195.278L272.062 193.304ZM276.922 194.6L276.2 196.465L276.213 196.47L276.226 196.475L276.922 194.6ZM281.062 196.652L279.982 198.335L279.993 198.343L280.004 198.35L281.062 196.652ZM284.626 199.352L286.322 200.412L287.205 198.999L285.974 197.875L284.626 199.352ZM282.646 202.52L284.322 203.61L284.332 203.595L284.342 203.58L282.646 202.52ZM281.422 203.456L281.907 205.396L281.939 205.388L281.971 205.379L281.422 203.456ZM279.802 203.096L280.831 201.381L280.82 201.375L280.809 201.368L279.802 203.096ZM277.822 201.872L278.906 200.191L278.906 200.191L277.822 201.872ZM275.086 200.504L274.293 202.34L274.318 202.351L274.343 202.361L275.086 200.504ZM271.306 199.352L270.882 201.307L270.889 201.308L271.306 199.352ZM258.274 200.324L259.013 202.182L259.021 202.179L259.029 202.176L258.274 200.324ZM252.262 204.392L253.715 205.766L253.724 205.756L252.262 204.392ZM248.446 210.8L250.33 211.47L250.332 211.465L248.446 210.8ZM248.482 227.936L246.597 228.605L246.601 228.616L246.605 228.627L248.482 227.936ZM252.442 234.452L250.989 235.827L250.999 235.837L251.008 235.847L252.442 234.452ZM273.322 239.132L273.871 241.055L273.879 241.053L273.887 241.05L273.322 239.132ZM278.794 236.864L279.745 238.623L280.794 238.056V236.864H278.794ZM278.794 225.524H280.794V223.524H278.794V225.524ZM269.65 225.128L268.235 226.542L268.266 226.573L268.298 226.602L269.65 225.128ZM269.254 220.196V218.196H267.254V220.196H269.254ZM283.094 220.196V239.996H287.094V220.196H283.094ZM283.923 238.375C281.497 240.126 278.916 241.432 276.173 242.302L277.382 246.114C280.543 245.112 283.506 243.61 286.265 241.617L283.923 238.375ZM276.183 242.298C273.473 243.143 270.46 243.576 267.13 243.576V247.576C270.807 247.576 274.227 247.097 277.372 246.118L276.183 242.298ZM267.13 243.576C263.182 243.576 259.685 242.972 256.61 241.799L255.185 245.537C258.782 246.908 262.773 247.576 267.13 247.576V243.576ZM256.622 241.804C253.514 240.597 250.891 238.935 248.722 236.832L245.937 239.704C248.52 242.209 251.609 244.147 255.173 245.532L256.622 241.804ZM248.737 236.847C246.593 234.725 244.931 232.179 243.755 229.185L240.032 230.647C241.4 234.133 243.362 237.155 245.923 239.689L248.737 236.847ZM243.755 229.185C242.585 226.204 241.986 222.891 241.986 219.224H237.986C237.986 223.333 238.658 227.148 240.032 230.647L243.755 229.185ZM241.986 219.224C241.986 215.497 242.565 212.152 243.693 209.167L239.951 207.753C238.63 211.248 237.986 215.079 237.986 219.224H241.986ZM243.688 209.179C244.844 206.178 246.463 203.645 248.535 201.551L245.692 198.737C243.204 201.251 241.295 204.262 239.955 207.741L243.688 209.179ZM248.542 201.543C250.609 199.433 253.136 197.784 256.156 196.607L254.703 192.881C251.195 194.248 248.178 196.199 245.685 198.745L248.542 201.543ZM256.156 196.607C259.156 195.438 262.553 194.836 266.374 194.836V190.836C262.13 190.836 258.231 191.506 254.703 192.881L256.156 196.607ZM266.374 194.836C268.313 194.836 270.09 194.984 271.711 195.273L272.412 191.335C270.529 191 268.514 190.836 266.374 190.836V194.836ZM271.737 195.278C273.368 195.546 274.853 195.944 276.2 196.465L277.644 192.735C276.014 192.104 274.259 191.638 272.386 191.33L271.737 195.278ZM276.226 196.475C277.586 196.98 278.836 197.601 279.982 198.335L282.141 194.969C280.743 194.071 279.233 193.324 277.617 192.725L276.226 196.475ZM280.004 198.35C281.173 199.077 282.263 199.904 283.277 200.829L285.974 197.875C284.78 196.784 283.494 195.811 282.119 194.954L280.004 198.35ZM282.93 198.292L280.95 201.46L284.342 203.58L286.322 200.412L282.93 198.292ZM280.969 201.43C280.923 201.5 280.894 201.523 280.891 201.525C280.888 201.527 280.887 201.528 280.887 201.528C280.887 201.528 280.883 201.53 280.872 201.533L281.971 205.379C282.983 205.09 283.774 204.454 284.322 203.61L280.969 201.43ZM280.936 201.516C280.98 201.505 281.019 201.501 281.05 201.501C281.08 201.501 281.095 201.505 281.09 201.504C281.077 201.501 280.993 201.478 280.831 201.381L278.773 204.811C279.637 205.33 280.731 205.69 281.907 205.396L280.936 201.516ZM280.809 201.368C280.266 201.051 279.632 200.66 278.906 200.191L276.737 203.553C277.499 204.044 278.185 204.469 278.794 204.824L280.809 201.368ZM278.906 200.191C278.026 199.624 276.993 199.113 275.828 198.647L274.343 202.361C275.338 202.759 276.129 203.16 276.737 203.553L278.906 200.191ZM275.878 198.668C274.672 198.147 273.279 197.728 271.722 197.396L270.889 201.308C272.26 201.6 273.388 201.949 274.293 202.34L275.878 198.668ZM271.729 197.397C270.111 197.047 268.246 196.884 266.158 196.884V200.884C268.053 200.884 269.62 201.033 270.882 201.307L271.729 197.397ZM266.158 196.884C263.031 196.884 260.142 197.401 257.518 198.472L259.029 202.176C261.11 201.327 263.476 200.884 266.158 200.884V196.884ZM257.534 198.466C254.919 199.506 252.665 201.027 250.799 203.028L253.724 205.756C255.17 204.205 256.924 203.014 259.013 202.182L257.534 198.466ZM250.808 203.018C248.94 204.995 247.53 207.38 246.559 210.135L250.332 211.465C251.137 209.18 252.271 207.293 253.715 205.766L250.808 203.018ZM246.561 210.13C245.584 212.875 245.114 215.915 245.114 219.224H249.114C249.114 216.293 249.531 213.717 250.33 211.47L246.561 210.13ZM245.114 219.224C245.114 222.65 245.596 225.786 246.597 228.605L250.366 227.267C249.543 224.95 249.114 222.278 249.114 219.224H245.114ZM246.605 228.627C247.625 231.401 249.082 233.812 250.989 235.827L253.894 233.077C252.393 231.492 251.21 229.559 250.359 227.245L246.605 228.627ZM251.008 235.847C252.95 237.843 255.288 239.354 257.991 240.388L259.42 236.652C257.227 235.814 255.389 234.613 253.875 233.057L251.008 235.847ZM257.991 240.388C260.701 241.424 263.697 241.924 266.95 241.924V237.924C264.107 237.924 261.606 237.488 259.42 236.652L257.991 240.388ZM266.95 241.924C269.491 241.924 271.806 241.645 273.871 241.055L272.772 237.209C271.141 237.675 269.208 237.924 266.95 237.924V241.924ZM273.887 241.05C275.897 240.458 277.85 239.647 279.745 238.623L277.843 235.105C276.185 236.001 274.49 236.702 272.756 237.214L273.887 241.05ZM280.794 236.864V225.524H276.794V236.864H280.794ZM278.794 223.524H270.766V227.524H278.794V223.524ZM270.766 223.524C270.731 223.524 270.754 223.519 270.813 223.54C270.877 223.563 270.945 223.603 271.001 223.654L268.298 226.602C269.016 227.26 269.898 227.524 270.766 227.524V223.524ZM271.064 223.714C271.107 223.757 271.164 223.831 271.205 223.932C271.245 224.032 271.254 224.115 271.254 224.156H267.254C267.254 225.054 267.584 225.891 268.235 226.542L271.064 223.714ZM271.254 224.156V220.196H267.254V224.156H271.254ZM269.254 222.196H285.094V218.196H269.254V222.196ZM337.579 193.412H339.579V191.412H337.579V193.412ZM337.579 245V247H339.579V245H337.579ZM332.683 244.712L331.742 246.477L331.765 246.489L331.789 246.501L332.683 244.712ZM331.603 243.74L330.017 244.958L330.025 244.969L330.034 244.979L331.603 243.74ZM301.759 204.86L303.346 203.642L299.226 198.275L299.766 205.019L301.759 204.86ZM301.867 206.624L303.866 206.541L303.866 206.541L301.867 206.624ZM301.903 245V247H303.903V245H301.903ZM295.783 245H293.783V247H295.783V245ZM295.783 193.412V191.412H293.783V193.412H295.783ZM300.175 193.484L299.741 195.436L299.847 195.46L299.954 195.472L300.175 193.484ZM300.751 193.664L299.759 195.4L299.858 195.457L299.963 195.502L300.751 193.664ZM301.255 194.024L299.841 195.438L299.895 195.493L299.954 195.543L301.255 194.024ZM301.795 194.6L303.381 193.381L303.369 193.366L303.357 193.351L301.795 194.6ZM331.639 233.444L330.053 234.662L334.149 239.993L333.633 233.291L331.639 233.444ZM331.495 231.644L329.497 231.724L329.499 231.767L329.502 231.81L331.495 231.644ZM331.459 193.412V191.412H329.459V193.412H331.459ZM335.579 193.412V245H339.579V193.412H335.579ZM337.579 243H334.087V247H337.579V243ZM334.087 243C333.76 243 333.616 242.942 333.578 242.923L331.789 246.501C332.518 246.866 333.311 247 334.087 247V243ZM333.624 242.947C333.588 242.928 333.429 242.825 333.173 242.501L330.034 244.979C330.497 245.567 331.058 246.112 331.742 246.477L333.624 242.947ZM333.19 242.522L303.346 203.642L300.173 206.078L330.017 244.958L333.19 242.522ZM299.766 205.019C299.812 205.595 299.846 206.158 299.869 206.707L303.866 206.541C303.84 205.938 303.803 205.325 303.753 204.701L299.766 205.019ZM299.869 206.707C299.892 207.259 299.903 207.771 299.903 208.244H303.903C303.903 207.709 303.891 207.141 303.866 206.541L299.869 206.707ZM299.903 208.244V245H303.903V208.244H299.903ZM301.903 243H295.783V247H301.903V243ZM297.783 245V193.412H293.783V245H297.783ZM295.783 195.412H299.383V191.412H295.783V195.412ZM299.383 195.412C299.604 195.412 299.713 195.43 299.741 195.436L300.609 191.532C300.206 191.442 299.787 191.412 299.383 191.412V195.412ZM299.954 195.472C299.932 195.469 299.856 195.456 299.759 195.4L301.744 191.928C301.311 191.68 300.85 191.547 300.396 191.496L299.954 195.472ZM299.963 195.502C299.9 195.475 299.859 195.448 299.841 195.435C299.823 195.423 299.824 195.421 299.841 195.438L302.67 192.61C302.373 192.313 302 192.023 301.539 191.826L299.963 195.502ZM299.954 195.543C299.998 195.581 300.092 195.672 300.234 195.849L303.357 193.351C303.115 193.048 302.848 192.755 302.557 192.505L299.954 195.543ZM300.209 195.818L330.053 234.662L333.225 232.226L303.381 193.381L300.209 195.818ZM333.633 233.291C333.585 232.663 333.537 232.058 333.488 231.478L329.502 231.81C329.55 232.382 329.598 232.977 329.645 233.597L333.633 233.291ZM333.494 231.564C333.471 230.987 333.459 230.45 333.459 229.952H329.459C329.459 230.51 329.472 231.101 329.497 231.724L333.494 231.564ZM333.459 229.952V193.412H329.459V229.952H333.459ZM331.459 195.412H337.579V191.412H331.459V195.412Z" fill="white"/>
<path d="M184.81 305.584L186.229 304.175L185.185 303.124L183.876 303.816L184.81 305.584ZM179.05 310.48L177.392 309.361L177.387 309.368L177.383 309.375L179.05 310.48ZM178.006 320.884L176.203 321.749L176.206 321.757L176.21 321.764L178.006 320.884ZM180.274 323.872L181.588 322.364L181.588 322.364L180.274 323.872ZM183.478 325.744L182.8 327.626L182.817 327.632L182.834 327.638L183.478 325.744ZM194.386 324.88L193.557 323.06L193.549 323.063L194.386 324.88ZM200.038 320.92L201.473 322.313L202.841 320.904L201.457 319.511L200.038 320.92ZM218.074 331V333H222.846L219.5 329.598L218.074 331ZM208.75 329.704L210.197 328.323L210.183 328.309L210.169 328.295L208.75 329.704ZM203.53 324.448L204.949 323.039L203.557 321.638L202.139 323.011L203.53 324.448ZM195.718 329.668L196.515 331.502L196.522 331.499L195.718 329.668ZM180.382 330.604L179.712 332.489L179.72 332.491L180.382 330.604ZM175.45 327.796L174.152 329.318L174.16 329.324L174.167 329.33L175.45 327.796ZM171.922 323.26L170.133 324.154L170.133 324.154L171.922 323.26ZM171.418 312.496L169.549 311.784L169.546 311.792L169.543 311.8L171.418 312.496ZM173.794 308.32L172.226 307.078L172.226 307.078L173.794 308.32ZM177.358 304.9L178.544 306.51L178.544 306.51L177.358 304.9ZM181.858 302.308L182.665 304.138L185.017 303.1L183.433 301.076L181.858 302.308ZM178.618 296.908L176.759 297.646L176.763 297.655L178.618 296.908ZM178.51 286.54L176.667 285.763L176.662 285.775L176.657 285.787L178.51 286.54ZM181.282 282.544L182.652 284.001L182.659 283.994L182.667 283.987L181.282 282.544ZM185.638 279.844L186.349 281.713L186.356 281.711L186.363 281.708L185.638 279.844ZM196.618 279.772L195.875 281.629L195.887 281.634L195.9 281.639L196.618 279.772ZM203.314 285.712L201.512 286.581L201.522 286.6L201.532 286.619L203.314 285.712ZM204.466 289.852L204.855 291.814L206.578 291.472L206.461 289.719L204.466 289.852ZM200.47 290.644L200.081 288.682L200.04 288.69L199.999 288.7L200.47 290.644ZM198.706 289.528L196.775 290.048L196.808 290.17L196.856 290.287L198.706 289.528ZM197.878 287.584L196.115 288.528L196.128 288.553L196.141 288.576L197.878 287.584ZM196.438 285.748L195.054 287.192L195.069 287.206L195.084 287.22L196.438 285.748ZM194.314 284.38L193.507 286.21L193.516 286.214L193.526 286.218L194.314 284.38ZM188.158 284.416L187.431 282.553L187.423 282.556L187.415 282.559L188.158 284.416ZM185.674 286.036L187.088 287.45L187.088 287.45L185.674 286.036ZM184.126 288.448L185.986 289.182L185.989 289.174L185.993 289.166L184.126 288.448ZM184.774 296.188L182.996 297.104L183.007 297.125L183.018 297.146L184.774 296.188ZM188.734 301.192L190.16 299.79L190.154 299.784L190.148 299.778L188.734 301.192ZM203.566 316.276L202.14 317.678L204.01 319.581L205.312 317.252L203.566 316.276ZM205.762 311.2L207.669 311.801L207.672 311.794L205.762 311.2ZM206.842 305.908L204.853 305.699L204.852 305.708L204.851 305.717L206.842 305.908ZM207.274 304.828L205.794 303.483L205.794 303.483L207.274 304.828ZM212.206 304.432L214.206 304.449L214.223 302.432H212.206V304.432ZM210.91 312.568L212.816 313.174L212.817 313.169L210.91 312.568ZM207.274 320.02L205.62 318.895L204.697 320.252L205.848 321.422L207.274 320.02ZM183.876 303.816C181.11 305.277 178.912 307.11 177.392 309.361L180.708 311.599C181.78 310.01 183.422 308.579 185.744 307.352L183.876 303.816ZM177.383 309.375C175.898 311.616 175.142 314.086 175.142 316.744H179.142C179.142 314.89 179.657 313.184 180.717 311.585L177.383 309.375ZM175.142 316.744C175.142 318.552 175.477 320.237 176.203 321.749L179.809 320.019C179.383 319.131 179.142 318.056 179.142 316.744H175.142ZM176.21 321.764C176.896 323.166 177.812 324.379 178.96 325.38L181.588 322.364C180.864 321.733 180.267 320.954 179.802 320.004L176.21 321.764ZM178.96 325.38C180.088 326.363 181.373 327.112 182.8 327.626L184.155 323.862C183.183 323.512 182.332 323.013 181.588 322.364L178.96 325.38ZM182.834 327.638C184.238 328.115 185.679 328.356 187.15 328.356V324.356C186.124 324.356 185.118 324.189 184.122 323.85L182.834 327.638ZM187.15 328.356C190.086 328.356 192.789 327.818 195.223 326.697L193.549 323.063C191.711 323.91 189.59 324.356 187.15 324.356V328.356ZM195.215 326.7C197.595 325.616 199.686 324.153 201.473 322.313L198.603 319.527C197.174 320.999 195.497 322.176 193.557 323.06L195.215 326.7ZM201.457 319.511L186.229 304.175L183.391 306.993L198.619 322.329L201.457 319.511ZM218.074 329H211.846V333H218.074V329ZM211.846 329C211.286 329 210.994 328.929 210.879 328.884L209.429 332.612C210.178 332.903 211.014 333 211.846 333V329ZM210.879 328.884C210.832 328.866 210.602 328.748 210.197 328.323L207.303 331.085C207.905 331.716 208.612 332.294 209.429 332.612L210.879 328.884ZM210.169 328.295L204.949 323.039L202.111 325.857L207.331 331.113L210.169 328.295ZM202.139 323.011C200.058 325.025 197.654 326.634 194.914 327.837L196.522 331.499C199.686 330.11 202.49 328.239 204.921 325.885L202.139 323.011ZM194.921 327.834C192.27 328.985 189.317 329.576 186.034 329.576V333.576C189.807 333.576 193.31 332.895 196.515 331.502L194.921 327.834ZM186.034 329.576C184.344 329.576 182.683 329.292 181.044 328.717L179.72 332.491C181.776 333.212 183.884 333.576 186.034 333.576V329.576ZM181.051 328.719C179.448 328.15 178.012 327.331 176.733 326.262L174.167 329.33C175.816 330.709 177.668 331.762 179.712 332.489L181.051 328.719ZM176.747 326.274C175.494 325.206 174.483 323.909 173.711 322.366L170.133 324.154C171.137 326.163 172.478 327.89 174.152 329.318L176.747 326.274ZM173.711 322.366C172.978 320.9 172.59 319.208 172.59 317.248H168.59C168.59 319.752 169.09 322.068 170.133 324.154L173.711 322.366ZM172.59 317.248C172.59 315.791 172.828 314.444 173.293 313.192L169.543 311.8C168.903 313.524 168.59 315.345 168.59 317.248H172.59ZM173.287 313.208C173.79 311.888 174.48 310.674 175.361 309.562L172.226 307.078C171.092 308.51 170.198 310.08 169.549 311.784L173.287 313.208ZM175.361 309.562C176.254 308.436 177.312 307.418 178.544 306.51L176.171 303.29C174.667 304.398 173.35 305.66 172.226 307.078L175.361 309.562ZM178.544 306.51C179.789 305.593 181.161 304.802 182.665 304.138L181.051 300.478C179.291 301.254 177.663 302.191 176.171 303.29L178.544 306.51ZM183.433 301.076C182.055 299.313 181.083 297.675 180.473 296.161L176.763 297.655C177.545 299.597 178.733 301.559 180.282 303.54L183.433 301.076ZM180.477 296.17C179.873 294.651 179.574 293.089 179.574 291.472H175.574C175.574 293.599 175.97 295.661 176.759 297.646L180.477 296.17ZM179.574 291.472C179.574 289.963 179.841 288.576 180.363 287.293L176.657 285.787C175.93 287.576 175.574 289.477 175.574 291.472H179.574ZM180.353 287.317C180.893 286.035 181.658 284.936 182.652 284.001L179.912 281.087C178.506 282.408 177.422 283.973 176.667 285.763L180.353 287.317ZM182.667 283.987C183.655 283.038 184.872 282.275 186.349 281.713L184.927 277.975C182.996 278.709 181.308 279.746 179.897 281.101L182.667 283.987ZM186.363 281.708C187.827 281.138 189.509 280.836 191.434 280.836V276.836C189.087 276.836 186.904 277.206 184.913 277.98L186.363 281.708ZM191.434 280.836C193.108 280.836 194.58 281.111 195.875 281.629L197.361 277.915C195.536 277.185 193.552 276.836 191.434 276.836V280.836ZM195.9 281.639C197.258 282.161 198.388 282.845 199.317 283.675L201.983 280.693C200.656 279.507 199.098 278.583 197.336 277.905L195.9 281.639ZM199.317 283.675C200.252 284.511 200.98 285.476 201.512 286.581L205.115 284.843C204.352 283.26 203.303 281.873 201.983 280.693L199.317 283.675ZM201.532 286.619C202.084 287.705 202.393 288.822 202.47 289.985L206.461 289.719C206.347 288.002 205.888 286.359 205.096 284.805L201.532 286.619ZM204.077 287.89L200.081 288.682L200.859 292.606L204.855 291.814L204.077 287.89ZM199.999 288.7C199.999 288.7 200.064 288.685 200.173 288.699C200.289 288.714 200.405 288.756 200.504 288.819C200.687 288.935 200.659 289.02 200.556 288.769L196.856 290.287C197.137 290.972 197.595 291.711 198.366 292.199C199.196 292.725 200.116 292.788 200.941 292.588L199.999 288.7ZM200.637 289.008C200.417 288.19 200.067 287.384 199.614 286.592L196.141 288.576C196.457 289.128 196.659 289.618 196.775 290.048L200.637 289.008ZM199.641 286.64C199.168 285.757 198.545 284.969 197.792 284.276L195.084 287.22C195.53 287.631 195.868 288.067 196.115 288.528L199.641 286.64ZM197.822 284.304C197.049 283.564 196.131 282.983 195.102 282.542L193.526 286.218C194.177 286.497 194.675 286.828 195.054 287.192L197.822 284.304ZM195.121 282.55C193.998 282.055 192.752 281.84 191.434 281.84V285.84C192.324 285.84 192.998 285.985 193.507 286.21L195.121 282.55ZM191.434 281.84C190.019 281.84 188.676 282.067 187.431 282.553L188.885 286.279C189.608 285.997 190.449 285.84 191.434 285.84V281.84ZM187.415 282.559C186.217 283.038 185.157 283.725 184.26 284.622L187.088 287.45C187.583 286.955 188.179 286.562 188.901 286.273L187.415 282.559ZM184.26 284.622C183.379 285.503 182.714 286.548 182.259 287.73L185.993 289.166C186.258 288.476 186.625 287.913 187.088 287.45L184.26 284.622ZM182.266 287.714C181.804 288.882 181.586 290.13 181.586 291.436H185.586C185.586 290.582 185.727 289.838 185.986 289.182L182.266 287.714ZM181.586 291.436C181.586 292.43 181.7 293.397 181.934 294.333L185.814 293.363C185.664 292.763 185.586 292.122 185.586 291.436H181.586ZM181.934 294.333C182.167 295.268 182.526 296.192 182.996 297.104L186.552 295.272C186.206 294.6 185.964 293.964 185.814 293.363L181.934 294.333ZM183.018 297.146C183.513 298.052 184.119 298.951 184.828 299.844L187.96 297.356C187.373 296.617 186.899 295.908 186.53 295.23L183.018 297.146ZM184.828 299.844C185.533 300.731 186.366 301.652 187.32 302.606L190.148 299.778C189.278 298.908 188.551 298.101 187.96 297.356L184.828 299.844ZM187.308 302.594L202.14 317.678L204.992 314.874L190.16 299.79L187.308 302.594ZM205.312 317.252C206.289 315.503 207.076 313.685 207.669 311.801L203.854 310.599C203.344 312.219 202.667 313.785 201.82 315.3L205.312 317.252ZM207.672 311.794C208.262 309.894 208.651 307.995 208.833 306.099L204.851 305.717C204.697 307.325 204.366 308.954 203.852 310.606L207.672 311.794ZM208.831 306.117C208.839 306.04 208.85 306.02 208.843 306.039C208.839 306.049 208.83 306.067 208.815 306.092C208.8 306.117 208.78 306.145 208.754 306.173L205.794 303.483C205.196 304.141 204.933 304.94 204.853 305.699L208.831 306.117ZM208.754 306.173C208.665 306.271 208.552 306.348 208.437 306.393C208.331 306.434 208.268 306.432 208.282 306.432V302.432C207.415 302.432 206.492 302.715 205.794 303.483L208.754 306.173ZM208.282 306.432H212.206V302.432H208.282V306.432ZM210.206 304.415C210.184 306.974 209.784 309.489 209.002 311.967L212.817 313.169C213.716 310.319 214.18 307.41 214.206 304.449L210.206 304.415ZM209.004 311.962C208.224 314.414 207.097 316.724 205.62 318.895L208.927 321.145C210.618 318.66 211.916 316.002 212.816 313.174L209.004 311.962ZM205.848 321.422L216.648 332.402L219.5 329.598L208.7 318.618L205.848 321.422ZM280.914 320.812L279.444 322.169L279.447 322.172L280.914 320.812ZM283.686 323.8L285.2 325.106L286.369 323.752L285.152 322.44L283.686 323.8ZM275.982 329.524L275.157 327.702L275.152 327.704L275.982 329.524ZM254.994 329.668L254.206 331.506L254.218 331.512L254.994 329.668ZM247.254 324.268L245.78 325.62L245.787 325.628L247.254 324.268ZM242.286 315.916L244.166 315.234L244.166 315.234L242.286 315.916ZM242.358 294.532L244.229 295.239L244.229 295.239L242.358 294.532ZM247.506 286.18L246.062 284.796L246.054 284.804L247.506 286.18ZM255.498 280.78L256.258 282.63L256.27 282.625L255.498 280.78ZM275.478 280.6L276.25 278.755L276.25 278.755L275.478 280.6ZM282.894 285.388L284.517 286.556L285.539 285.135L284.266 283.934L282.894 285.388ZM280.59 288.592L278.966 287.424L278.917 287.492L278.875 287.563L280.59 288.592ZM280.014 289.204L281.123 290.868L281.142 290.855L281.16 290.842L280.014 289.204ZM277.53 288.736L276.31 290.321L276.33 290.336L276.35 290.351L277.53 288.736ZM275.082 287.152L276.074 285.416L276.074 285.416L275.082 287.152ZM271.302 285.604L270.696 287.51L270.71 287.515L270.724 287.519L271.302 285.604ZM258.414 286.288L259.177 288.137L259.186 288.133L259.194 288.129L258.414 286.288ZM252.69 290.284L251.216 288.932L251.211 288.937L251.206 288.943L252.69 290.284ZM249.018 313.828L247.137 314.509L247.14 314.517L247.143 314.524L249.018 313.828ZM252.798 320.236L251.314 321.577L251.324 321.588L251.333 321.598L252.798 320.236ZM258.45 324.196L257.672 326.039L257.679 326.042L258.45 324.196ZM269.646 325.312L269.918 327.293L269.934 327.291L269.95 327.289L269.646 325.312ZM273.066 324.448L272.382 322.568L272.375 322.571L272.368 322.574L273.066 324.448ZM275.982 323.008L277.07 324.686L277.081 324.679L275.982 323.008ZM278.682 320.884L277.358 319.384L277.343 319.398L277.328 319.411L278.682 320.884ZM279.906 322.344C279.818 322.344 279.709 322.324 279.603 322.275C279.502 322.228 279.451 322.177 279.444 322.169L282.383 319.455C281.761 318.781 280.91 318.344 279.906 318.344V322.344ZM279.447 322.172L282.219 325.16L285.152 322.44L282.38 319.452L279.447 322.172ZM282.171 322.494C280.254 324.716 277.924 326.45 275.157 327.702L276.806 331.346C280.087 329.862 282.893 327.78 285.2 325.106L282.171 322.494ZM275.152 327.704C272.477 328.924 269.14 329.576 265.074 329.576V333.576C269.551 333.576 273.486 332.86 276.811 331.344L275.152 327.704ZM265.074 329.576C261.61 329.576 258.518 328.981 255.769 327.824L254.218 331.512C257.517 332.899 261.145 333.576 265.074 333.576V329.576ZM255.781 327.83C253.002 326.639 250.657 324.997 248.72 322.908L245.787 325.628C248.122 328.147 250.937 330.105 254.206 331.506L255.781 327.83ZM248.727 322.916C246.785 320.799 245.26 318.248 244.166 315.234L240.406 316.598C241.663 320.064 243.45 323.081 245.78 325.62L248.727 322.916ZM244.166 315.234C243.078 312.238 242.522 308.909 242.522 305.224H238.522C238.522 309.315 239.141 313.114 240.406 316.598L244.166 315.234ZM242.522 305.224C242.522 301.548 243.1 298.227 244.229 295.239L240.487 293.825C239.167 297.317 238.522 301.124 238.522 305.224H242.522ZM244.229 295.239C245.366 292.228 246.946 289.676 248.957 287.556L246.054 284.804C243.649 287.34 241.797 290.356 240.487 293.825L244.229 295.239ZM248.949 287.564C250.981 285.445 253.409 283.8 256.258 282.63L254.738 278.93C251.394 280.304 248.494 282.259 246.062 284.796L248.949 287.564ZM256.27 282.625C259.094 281.442 262.248 280.836 265.758 280.836V276.836C261.779 276.836 258.093 277.526 254.725 278.935L256.27 282.625ZM265.758 280.836C269.218 280.836 272.187 281.39 274.705 282.445L276.25 278.755C273.153 277.458 269.641 276.836 265.758 276.836V280.836ZM274.705 282.445C277.299 283.531 279.566 284.998 281.521 286.842L284.266 283.934C281.949 281.746 279.272 280.021 276.25 278.755L274.705 282.445ZM281.27 284.22L278.966 287.424L282.213 289.76L284.517 286.556L281.27 284.22ZM278.875 287.563C278.875 287.562 278.876 287.56 278.878 287.558C278.879 287.556 278.88 287.555 278.881 287.554C278.882 287.554 278.881 287.554 278.88 287.556C278.878 287.557 278.873 287.561 278.867 287.566L281.16 290.842C281.62 290.521 282.009 290.113 282.305 289.621L278.875 287.563ZM278.904 287.54C279.025 287.459 279.123 287.43 279.16 287.421C279.195 287.413 279.185 287.42 279.114 287.42V291.42C279.714 291.42 280.456 291.313 281.123 290.868L278.904 287.54ZM279.114 287.42C279.245 287.42 279.279 287.453 279.186 287.413C279.097 287.374 278.939 287.289 278.71 287.121L276.35 290.351C277.078 290.883 278.036 291.42 279.114 291.42V287.42ZM278.749 287.151C278.028 286.596 277.128 286.018 276.074 285.416L274.089 288.888C275.052 289.438 275.783 289.916 276.31 290.321L278.749 287.151ZM276.074 285.416C274.897 284.743 273.488 284.174 271.879 283.689L270.724 287.519C272.139 287.946 273.25 288.409 274.089 288.888L276.074 285.416ZM271.907 283.698C270.139 283.137 268.061 282.884 265.722 282.884V286.884C267.798 286.884 269.44 287.111 270.696 287.51L271.907 283.698ZM265.722 282.884C262.819 282.884 260.114 283.395 257.633 284.447L259.194 288.129C261.129 287.309 263.296 286.884 265.722 286.884V282.884ZM257.65 284.439C255.173 285.462 253.023 286.963 251.216 288.932L254.163 291.636C255.573 290.101 257.238 288.938 259.177 288.137L257.65 284.439ZM251.206 288.943C249.422 290.915 248.06 293.29 247.095 296.027L250.868 297.357C251.679 295.054 252.789 293.157 254.173 291.625L251.206 288.943ZM247.095 296.027C246.119 298.796 245.65 301.871 245.65 305.224H249.65C249.65 302.241 250.068 299.628 250.868 297.357L247.095 296.027ZM245.65 305.224C245.65 308.627 246.132 311.732 247.137 314.509L250.898 313.147C250.079 310.884 249.65 308.253 249.65 305.224H245.65ZM247.143 314.524C248.155 317.25 249.538 319.613 251.314 321.577L254.281 318.895C252.889 317.355 251.752 315.446 250.892 313.132L247.143 314.524ZM251.333 321.598C253.132 323.532 255.25 325.016 257.672 326.038L259.228 322.354C257.329 321.552 255.679 320.396 254.262 318.874L251.333 321.598ZM257.679 326.042C260.123 327.062 262.738 327.564 265.506 327.564V323.564C263.233 323.564 261.145 323.154 259.22 322.35L257.679 326.042ZM265.506 327.564C267.112 327.564 268.585 327.476 269.918 327.293L269.374 323.331C268.258 323.484 266.971 323.564 265.506 323.564V327.564ZM269.95 327.289C271.313 327.079 272.587 326.76 273.763 326.322L272.368 322.574C271.48 322.904 270.474 323.161 269.341 323.335L269.95 327.289ZM273.749 326.328C274.939 325.895 276.048 325.349 277.07 324.686L274.893 321.33C274.14 321.819 273.305 322.233 272.382 322.568L273.749 326.328ZM277.081 324.679C278.091 324.014 279.076 323.238 280.035 322.357L277.328 319.411C276.511 320.162 275.696 320.802 274.882 321.337L277.081 324.679ZM280.005 322.384C280.087 322.311 280.121 322.3 280.101 322.309C280.09 322.314 280.066 322.323 280.03 322.331C279.994 322.339 279.952 322.344 279.906 322.344V318.344C278.867 318.344 278.008 318.811 277.358 319.384L280.005 322.384ZM336.627 315.88L338.496 316.591L338.498 316.587L336.627 315.88ZM331.443 324.196L329.999 322.812L329.999 322.812L331.443 324.196ZM323.379 329.632L324.134 331.484L324.141 331.481L323.379 329.632ZM302.643 329.632L301.876 331.479L301.888 331.484L302.643 329.632ZM294.615 324.196L293.171 325.58L293.171 325.58L294.615 324.196ZM289.431 315.88L287.56 316.587L287.562 316.591L289.431 315.88ZM289.431 294.604L291.3 295.315L291.302 295.311L289.431 294.604ZM294.615 286.252L296.059 287.636L296.066 287.629L294.615 286.252ZM323.379 280.78L322.612 282.627L322.617 282.629L323.379 280.78ZM331.443 286.252L329.992 287.629L329.999 287.636L331.443 286.252ZM336.627 294.604L334.756 295.311L334.758 295.315L336.627 294.604ZM326.331 290.32L324.847 291.661L324.857 291.671L326.331 290.32ZM320.571 286.288L321.337 284.441L321.337 284.441L320.571 286.288ZM305.487 286.288L304.721 284.441L304.72 284.441L305.487 286.288ZM299.691 290.32L298.217 288.968L298.217 288.969L299.691 290.32ZM296.019 296.692L294.127 296.043L294.127 296.043L296.019 296.692ZM296.019 313.756L294.127 314.405L294.129 314.41L296.019 313.756ZM299.691 320.128L298.207 321.469L298.217 321.48L298.227 321.49L299.691 320.128ZM305.487 324.124L304.72 325.971L304.729 325.975L304.737 325.978L305.487 324.124ZM320.571 324.124L321.321 325.978L321.329 325.975L321.337 325.971L320.571 324.124ZM326.331 320.128L327.805 321.479L327.814 321.469L326.331 320.128ZM330.003 313.756L331.893 314.41L331.895 314.405L330.003 313.756ZM336.463 305.224C336.463 308.874 335.885 312.184 334.756 315.173L338.498 316.587C339.817 313.096 340.463 309.302 340.463 305.224H336.463ZM334.758 315.169C333.623 318.151 332.034 320.69 329.999 322.812L332.887 325.58C335.316 323.046 337.183 320.041 338.496 316.591L334.758 315.169ZM329.999 322.812C327.97 324.928 325.518 326.587 322.617 327.783L324.141 331.481C327.528 330.085 330.452 328.12 332.887 325.58L329.999 322.812ZM322.624 327.78C319.772 328.943 316.576 329.54 313.011 329.54V333.54C317.029 333.54 320.746 332.865 324.134 331.484L322.624 327.78ZM313.011 329.54C309.445 329.54 306.25 328.943 303.398 327.78L301.888 331.484C305.276 332.865 308.992 333.54 313.011 333.54V329.54ZM303.41 327.785C300.533 326.59 298.09 324.931 296.059 322.812L293.171 325.58C295.603 328.117 298.513 330.082 301.876 331.479L303.41 327.785ZM296.059 322.812C294.024 320.69 292.435 318.151 291.3 315.169L287.562 316.591C288.875 320.041 290.742 323.046 293.171 325.58L296.059 322.812ZM291.302 315.173C290.173 312.184 289.595 308.874 289.595 305.224H285.595C285.595 309.302 286.241 313.096 287.56 316.587L291.302 315.173ZM289.595 305.224C289.595 301.573 290.173 298.278 291.3 295.315L287.562 293.893C286.241 297.362 285.595 301.147 285.595 305.224H289.595ZM291.302 295.311C292.438 292.304 294.027 289.755 296.059 287.636L293.171 284.868C290.739 287.405 288.872 290.424 287.56 293.897L291.302 295.311ZM296.066 287.629C298.097 285.488 300.537 283.82 303.41 282.627L301.876 278.933C298.509 280.332 295.597 282.312 293.164 284.875L296.066 287.629ZM303.41 282.627C306.259 281.444 309.45 280.836 313.011 280.836V276.836C308.988 276.836 305.267 277.524 301.876 278.933L303.41 282.627ZM313.011 280.836C316.572 280.836 319.763 281.444 322.612 282.627L324.146 278.933C320.755 277.524 317.034 276.836 313.011 276.836V280.836ZM322.617 282.629C325.514 283.823 327.963 285.491 329.992 287.629L332.894 284.875C330.459 282.309 327.532 280.329 324.141 278.931L322.617 282.629ZM329.999 287.636C332.031 289.755 333.62 292.304 334.756 295.311L338.498 293.897C337.186 290.424 335.319 287.405 332.887 284.868L329.999 287.636ZM334.758 295.315C335.885 298.278 336.463 301.573 336.463 305.224H340.463C340.463 301.147 339.817 297.362 338.496 293.893L334.758 295.315ZM333.299 305.224C333.299 301.876 332.842 298.807 331.895 296.043L328.111 297.341C328.891 299.617 329.299 302.236 329.299 305.224H333.299ZM331.895 296.043C330.954 293.298 329.599 290.925 327.805 288.969L324.857 291.671C326.231 293.171 327.324 295.046 328.111 297.341L331.895 296.043ZM327.814 288.979C326.025 286.999 323.857 285.486 321.337 284.441L319.804 288.135C321.797 288.962 323.469 290.137 324.847 291.661L327.814 288.979ZM321.337 284.441C318.807 283.391 316.021 282.884 313.011 282.884V286.884C315.568 286.884 317.823 287.313 319.804 288.135L321.337 284.441ZM313.011 282.884C310.022 282.884 307.249 283.392 304.721 284.441L306.253 288.135C308.237 287.312 310.48 286.884 313.011 286.884V282.884ZM304.72 284.441C302.203 285.485 300.028 286.995 298.217 288.968L301.164 291.672C302.57 290.141 304.259 288.963 306.253 288.135L304.72 284.441ZM298.217 288.969C296.423 290.925 295.068 293.298 294.127 296.043L297.911 297.341C298.698 295.046 299.791 293.171 301.165 291.671L298.217 288.969ZM294.127 296.043C293.179 298.807 292.723 301.876 292.723 305.224H296.723C296.723 302.236 297.13 299.617 297.911 297.341L294.127 296.043ZM292.723 305.224C292.723 308.572 293.179 311.641 294.127 314.405L297.911 313.107C297.13 310.831 296.723 308.212 296.723 305.224H292.723ZM294.129 314.41C295.07 317.13 296.423 319.496 298.207 321.469L301.174 318.787C299.791 317.256 298.695 315.374 297.909 313.102L294.129 314.41ZM298.227 321.49C300.037 323.436 302.209 324.929 304.72 325.971L306.253 322.277C304.253 321.447 302.561 320.276 301.155 318.766L298.227 321.49ZM304.737 325.978C307.261 326.999 310.028 327.492 313.011 327.492V323.492C310.474 323.492 308.225 323.073 306.237 322.27L304.737 325.978ZM313.011 327.492C316.015 327.492 318.795 326.999 321.321 325.978L319.821 322.27C317.835 323.073 315.575 323.492 313.011 323.492V327.492ZM321.337 325.971C323.851 324.928 326.016 323.431 327.805 321.479L324.857 318.777C323.478 320.281 321.803 321.448 319.804 322.277L321.337 325.971ZM327.814 321.469C329.599 319.496 330.951 317.13 331.893 314.41L328.113 313.102C327.326 315.374 326.231 317.256 324.847 318.787L327.814 321.469ZM331.895 314.405C332.842 311.641 333.299 308.572 333.299 305.224H329.299C329.299 308.212 328.891 310.831 328.111 313.107L331.895 314.405ZM386.147 323.908L384.725 322.501L384.725 322.501L386.147 323.908ZM378.083 329.164L378.814 331.026L378.821 331.023L378.083 329.164ZM348.455 331H346.455V333H348.455V331ZM348.455 279.412V277.412H346.455V279.412H348.455ZM378.083 281.284L377.34 283.141L377.349 283.144L377.358 283.148L378.083 281.284ZM386.147 286.54L384.718 287.939L384.725 287.947L386.147 286.54ZM391.331 294.676L393.197 293.955L393.197 293.955L391.331 294.676ZM375.275 286.432L374.526 288.286L374.526 288.286L375.275 286.432ZM355.439 285.064V283.064H353.439V285.064H355.439ZM355.439 325.348H353.439V327.348H355.439V325.348ZM375.275 323.98L374.526 322.126L374.526 322.126L375.275 323.98ZM381.035 320.056L382.5 321.418L382.509 321.407L381.035 320.056ZM384.707 313.72L386.597 314.374L386.597 314.374L384.707 313.72ZM391.167 305.224C391.167 308.875 390.589 312.143 389.466 315.051L393.197 316.493C394.521 313.065 395.167 309.301 395.167 305.224H391.167ZM389.466 315.051C388.334 317.981 386.751 320.454 384.725 322.501L387.569 325.315C390.008 322.85 391.881 319.899 393.197 316.493L389.466 315.051ZM384.725 322.501C382.7 324.548 380.25 326.152 377.345 327.305L378.821 331.023C382.205 329.68 385.13 327.78 387.569 325.315L384.725 322.501ZM377.353 327.302C374.494 328.424 371.29 329 367.715 329V333C371.725 333 375.432 332.352 378.814 331.026L377.353 327.302ZM367.715 329H348.455V333H367.715V329ZM350.455 331V279.412H346.455V331H350.455ZM348.455 281.412H367.715V277.412H348.455V281.412ZM367.715 281.412C371.285 281.412 374.485 281.999 377.34 283.141L378.826 279.427C375.441 278.073 371.729 277.412 367.715 277.412V281.412ZM377.358 283.148C380.252 284.275 382.696 285.874 384.718 287.939L387.576 285.141C385.134 282.646 382.202 280.741 378.809 279.42L377.358 283.148ZM384.725 287.947C386.751 289.994 388.334 292.467 389.466 295.397L393.197 293.955C391.881 290.549 390.008 287.598 387.569 285.133L384.725 287.947ZM389.466 295.397C390.589 298.305 391.167 301.573 391.167 305.224H395.167C395.167 301.147 394.521 297.383 393.197 293.955L389.466 295.397ZM388.003 305.224C388.003 301.876 387.547 298.817 386.597 296.074L382.817 297.382C383.596 299.631 384.003 302.236 384.003 305.224H388.003ZM386.597 296.074C385.655 293.352 384.3 290.994 382.509 289.041L379.561 291.743C380.938 293.246 382.031 295.112 382.817 297.382L386.597 296.074ZM382.509 289.041C380.717 287.085 378.546 285.597 376.025 284.578L374.526 288.286C376.516 289.091 378.186 290.243 379.561 291.743L382.509 289.041ZM376.025 284.578C373.499 283.557 370.719 283.064 367.715 283.064V287.064C370.279 287.064 372.54 287.483 374.526 288.286L376.025 284.578ZM367.715 283.064H355.439V287.064H367.715V283.064ZM353.439 285.064V325.348H357.439V285.064H353.439ZM355.439 327.348H367.715V323.348H355.439V327.348ZM367.715 327.348C370.719 327.348 373.499 326.855 376.025 325.834L374.526 322.126C372.54 322.929 370.279 323.348 367.715 323.348V327.348ZM376.025 325.834C378.54 324.818 380.707 323.346 382.5 321.418L379.57 318.694C378.195 320.174 376.523 321.318 374.526 322.126L376.025 325.834ZM382.509 321.407C384.3 319.454 385.655 317.096 386.597 314.374L382.817 313.066C382.031 315.336 380.938 317.202 379.561 318.705L382.509 321.407ZM386.597 314.374C387.547 311.631 388.003 308.572 388.003 305.224H384.003C384.003 308.212 383.596 310.817 382.817 313.066L386.597 314.374ZM435.053 325.312L437.053 325.325L437.065 323.312H435.053V325.312ZM435.017 331V333H437.004L437.017 331.013L435.017 331ZM403.229 331H401.229V333H403.229V331ZM403.229 279.412V277.412H401.229V279.412H403.229ZM435.017 279.412H437.017V277.412H435.017V279.412ZM435.017 285.1V287.1H437.017V285.1H435.017ZM410.213 285.1V283.1H408.213V285.1H410.213ZM410.213 302.236H408.213V304.236H410.213V302.236ZM430.301 302.236H432.301V300.236H430.301V302.236ZM430.301 307.708V309.708H432.301V307.708H430.301ZM410.213 307.708V305.708H408.213V307.708H410.213ZM410.213 325.312H408.213V327.312H410.213V325.312ZM433.053 325.299L433.017 330.987L437.017 331.013L437.053 325.325L433.053 325.299ZM435.017 329H403.229V333H435.017V329ZM405.229 331V279.412H401.229V331H405.229ZM403.229 281.412H435.017V277.412H403.229V281.412ZM433.017 279.412V285.1H437.017V279.412H433.017ZM435.017 283.1H410.213V287.1H435.017V283.1ZM408.213 285.1V302.236H412.213V285.1H408.213ZM410.213 304.236H430.301V300.236H410.213V304.236ZM428.301 302.236V307.708H432.301V302.236H428.301ZM430.301 305.708H410.213V309.708H430.301V305.708ZM408.213 307.708V325.312H412.213V307.708H408.213ZM410.213 327.312H435.053V323.312H410.213V327.312Z" fill="white"/>
<defs>
<linearGradient id="paint0_linear" x1="260" y1="0" x2="260" y2="520" gradientUnits="userSpaceOnUse">
<stop stop-color="#FA5C5C"/>
<stop offset="1" stop-color="#FF6593" stop-opacity="0.25"/>
</linearGradient>
</defs>
</svg>
