<svg width="139" height="222" viewBox="0 0 139 222" fill="none" xmlns="http://www.w3.org/2000/svg">
<path d="M129.503 66.9738L128.39 66.7717L133.926 36.2746C134.347 33.9566 134.307 31.5785 133.809 29.2759C133.31 26.9734 132.363 24.7916 131.022 22.855C129.68 20.9184 127.971 19.265 125.99 17.9892C124.01 16.7134 121.797 15.8402 119.479 15.4194L54.867 3.69008C50.1857 2.84026 45.3585 3.88488 41.4474 6.59415C37.5363 9.30341 34.8617 13.4554 34.0118 18.1367L3.63949 185.446C3.2187 187.764 3.25859 190.142 3.75688 192.445C4.25516 194.748 5.20208 196.929 6.54358 198.866C7.88507 200.802 9.59487 202.456 11.5754 203.732C13.5558 205.007 15.7682 205.881 18.0861 206.302L82.6984 218.031C87.3797 218.881 92.2069 217.836 96.118 215.127C100.029 212.417 102.704 208.266 103.554 203.584L124.449 88.48L125.562 88.6821L129.503 66.9738Z" fill="#BCB3B3"/>
<path d="M119.358 20.1406L110.924 18.6095C111.139 19.6309 111.1 20.6894 110.81 21.692C110.519 22.6946 109.987 23.6104 109.259 24.3588C108.532 25.1072 107.631 25.6651 106.637 25.9835C105.643 26.3019 104.586 26.371 103.559 26.1847L66.5439 19.4651C65.5169 19.2786 64.5516 18.8424 63.7329 18.1949C62.9143 17.5475 62.2674 16.7086 61.8493 15.7523C61.4312 14.7959 61.2547 13.7514 61.3354 12.7108C61.416 11.6701 61.7514 10.6653 62.3119 9.78482L54.4344 8.3548C52.7034 8.04056 50.9275 8.07035 49.208 8.44246C47.4884 8.81458 45.8591 9.52173 44.4128 10.5235C42.9666 11.5254 41.7319 12.8022 40.7791 14.2812C39.8264 15.7602 39.1743 17.4124 38.86 19.1434L8.53227 186.208C8.21803 187.939 8.24783 189.715 8.61994 191.434C8.99205 193.154 9.69919 194.783 10.701 196.229C11.7028 197.675 12.9797 198.91 14.4587 199.863C15.9377 200.816 17.5899 201.468 19.3209 201.782L84.2444 213.568C85.9754 213.882 87.7513 213.852 89.4708 213.48C91.1903 213.108 92.8197 212.401 94.2659 211.399C95.7122 210.397 96.9469 209.12 97.8996 207.641C98.8524 206.162 99.5045 204.51 99.8187 202.779L130.147 35.715C130.461 33.984 130.431 32.208 130.059 30.4885C129.687 28.769 128.98 27.1396 127.978 25.6934C126.976 24.2472 125.699 23.0124 124.22 22.0597C122.741 21.1069 121.089 20.4548 119.358 20.1406Z" fill="white"/>
<circle cx="68.4138" cy="115.829" r="38.7585" transform="rotate(10.2891 68.4138 115.829)" fill="#BCB3B3"/>
<path d="M73.1733 122.578C65.3692 125.699 62.2718 122.378 63.0683 117.99C63.8649 113.602 69.3842 112.497 72.158 113.609C74.9263 114.719 78.9017 117.87 77.4424 123.353C76.6142 126.465 72.5669 129.25 67.5356 129.358C62.5043 129.467 58.3443 126.054 57.8337 121.709C57.3232 117.364 59.3334 114.027 60.4568 112.373C62.2933 109.669 66.721 105.472 69.5419 102.713C73.7347 98.6129 75.8622 97.0384 75.7139 94.0208C75.5931 91.563 73.3625 88.3137 70.4681 90.9657C63.3434 97.4936 69.9654 125.687 69.9654 125.687C69.9654 125.687 71.9036 139.03 68.7209 141.489C67.4349 142.483 66.6172 143.36 64.9981 143.337C62.5249 143.3 59.707 141.185 60.5256 138.833C61.2727 136.687 64.7372 136.591 66.4694 138.043" stroke="white" stroke-width="4"/>
</svg>
