<svg width="103" height="206" viewBox="0 0 103 206" fill="none" xmlns="http://www.w3.org/2000/svg">
<path d="M102.679 48.935H101.547V17.9394C101.547 15.5836 101.083 13.2508 100.182 11.0743C99.28 8.89779 97.9586 6.92016 96.2928 5.25434C94.627 3.58851 92.6493 2.2671 90.4728 1.36556C88.2963 0.464021 85.9636 1.99605e-06 83.6077 0H17.9394C13.1816 -9.07004e-06 8.61864 1.89002 5.25435 5.2543C1.89005 8.61858 1.00778e-05 13.1815 0 17.9393V187.983C-2.49501e-06 190.339 0.464014 192.672 1.36555 194.849C2.26709 197.025 3.58849 199.003 5.25431 200.668C6.92014 202.334 8.89776 203.656 11.0743 204.557C13.2508 205.459 15.5835 205.923 17.9394 205.923H83.6076C88.3655 205.923 92.9284 204.033 96.2927 200.669C99.657 197.304 101.547 192.741 101.547 187.984V70.9981H102.679V48.935Z" fill="#757575"/>
<path d="M84.3315 4.66699H75.7596C76.1538 5.63344 76.3042 6.682 76.1977 7.7203C76.0912 8.75861 75.731 9.75479 75.1488 10.6211C74.5666 11.4874 73.7803 12.1972 72.8592 12.688C71.938 13.1788 70.9103 13.4356 69.8666 13.4357H32.246C31.2023 13.4356 30.1746 13.1789 29.2534 12.688C28.3323 12.1972 27.546 11.4874 26.9638 10.6211C26.3816 9.75479 26.0214 8.75861 25.9149 7.72031C25.8084 6.68201 25.9589 5.63344 26.3531 4.66699H18.3469C16.5876 4.66699 14.8455 5.01351 13.2201 5.68677C11.5947 6.36003 10.1178 7.34684 8.87383 8.59086C7.62981 9.83488 6.643 11.3117 5.96974 12.9371C5.29648 14.5625 4.94995 16.3046 4.94995 18.0639V187.858C4.94995 189.618 5.29648 191.36 5.96974 192.985C6.64299 194.611 7.6298 196.088 8.87382 197.332C10.1178 198.576 11.5947 199.562 13.2201 200.236C14.8455 200.909 16.5876 201.255 18.3469 201.255H84.3315C86.0908 201.255 87.8328 200.909 89.4582 200.236C91.0836 199.562 92.5605 198.576 93.8045 197.332C95.0485 196.088 96.0353 194.611 96.7086 192.985C97.3819 191.36 97.7284 189.618 97.7284 187.858V18.0639C97.7284 16.3046 97.3819 14.5625 96.7086 12.9371C96.0353 11.3117 95.0485 9.83488 93.8045 8.59086C92.5605 7.34684 91.0836 6.36003 89.4582 5.68677C87.8328 5.01351 86.0908 4.66699 84.3315 4.66699Z" fill="white"/>
<circle cx="51.2981" cy="107.916" r="35.7585" fill="#757575" stroke="#5A5A5A" stroke-width="6"/>
<path d="M57.1864 113.706C50.0653 118.171 46.4244 115.456 46.4244 110.996C46.4244 106.537 51.6575 104.464 54.5854 105.062C57.5075 105.66 61.9819 108.051 61.5253 113.706C61.2662 116.916 57.7814 120.379 52.8505 121.384C47.9195 122.39 43.2168 119.775 41.9384 115.591C40.66 111.407 42.0416 107.764 42.8515 105.936C44.1756 102.948 47.7825 98.0279 50.0653 94.8095C53.4583 90.0261 55.2703 88.0969 54.5854 85.1543C54.0276 82.7576 51.2525 79.959 48.8783 83.0853C43.0341 90.7808 54.5854 117.338 54.5854 117.338C54.5854 117.338 58.8756 130.12 56.1834 133.108C55.0956 134.316 54.4478 135.325 52.8505 135.591C50.4106 135.997 47.2601 134.419 47.6455 131.959C47.9973 129.714 51.3889 129 53.3527 130.12" stroke="white" stroke-width="4"/>
</svg>
