<svg width="31" height="26" viewBox="0 0 31 26" fill="none" xmlns="http://www.w3.org/2000/svg">
<g clip-path="url(#clip0)">
<path d="M19.7 22.6H3.4C1.8 22.6 0.5 21.3 0.5 19.7V3.4C0.5 1.8 1.8 0.5 3.4 0.5H19.7C21.3 0.5 22.6 1.8 22.6 3.4V19.7C22.6 21.3 21.3 22.6 19.7 22.6Z" fill="#860000" stroke="#860000" stroke-miterlimit="10"/>
<path d="M5.09998 10.5L8.89998 5.30005L30.5 20.3L26.8 25.5L5.09998 10.5Z" fill="white"/>
<path d="M6 9.3L8 6.5L29.6 21.5L27.6 24.3L6 9.3Z" fill="#860000"/>
<path d="M2.09998 4.40002L4.79998 10.2L8.49998 5.00002L2.09998 4.40002Z" fill="white"/>
</g>
<defs>
<clipPath id="clip0">
<rect width="30.5" height="25.5" fill="white"/>
</clipPath>
</defs>
</svg>
