<svg width="520" height="520" viewBox="0 0 520 520" fill="none" xmlns="http://www.w3.org/2000/svg">
<rect width="520" height="520" fill="white"/>
<path d="M198.5 269.337C203.865 269.337 208.215 264.979 208.215 259.604C208.215 254.228 203.865 249.87 198.5 249.87C193.135 249.87 188.785 254.228 188.785 259.604C188.785 264.979 193.135 269.337 198.5 269.337Z" fill="#FA5C5C"/>
<path d="M198.5 224.397C201.354 224.397 203.667 222.079 203.667 219.219C203.667 216.36 201.354 214.042 198.5 214.042C195.646 214.042 193.333 216.36 193.333 219.219C193.333 222.079 195.646 224.397 198.5 224.397Z" fill="#FA5C5C"/>
<path d="M181.965 217.355C184.819 217.355 187.132 215.037 187.132 212.178C187.132 209.318 184.819 207 181.965 207C179.111 207 176.797 209.318 176.797 212.178C176.797 215.037 179.111 217.355 181.965 217.355Z" stroke="#FA5C5C" stroke-width="5" stroke-miterlimit="10"/>
<path d="M214.829 217.355C217.682 217.355 219.996 215.037 219.996 212.178C219.996 209.318 217.682 207 214.829 207C211.975 207 209.661 209.318 209.661 212.178C209.661 215.037 211.975 217.355 214.829 217.355Z" stroke="#FA5C5C" stroke-width="5" stroke-miterlimit="10"/>
<path d="M198.5 259.604L198.5 219.219" stroke="#FA5C5C" stroke-width="5" stroke-miterlimit="10"/>
<path d="M182.378 217.148L182.378 232.059L198.5 238.48" stroke="#FA5C5C" stroke-width="5" stroke-miterlimit="10"/>
<path d="M214.829 217.148L214.829 232.059L198.5 238.48" stroke="#FA5C5C" stroke-width="5" stroke-miterlimit="10"/>
<path d="M238.805 264.988C241.659 264.988 243.973 262.67 243.973 259.811C243.973 256.951 241.659 254.633 238.805 254.633C235.951 254.633 233.638 256.951 233.638 259.811C233.638 262.67 235.951 264.988 238.805 264.988Z" fill="#FA5C5C"/>
<path d="M245.833 248.42C248.686 248.42 251 246.102 251 243.243C251 240.383 248.686 238.065 245.833 238.065C242.979 238.065 240.665 240.383 240.665 243.243C240.665 246.102 242.979 248.42 245.833 248.42Z" stroke="#FA5C5C" stroke-width="5" stroke-miterlimit="10"/>
<path d="M245.833 281.349C248.687 281.349 251 279.031 251 276.172C251 273.312 248.687 270.994 245.833 270.994C242.979 270.994 240.665 273.312 240.665 276.172C240.665 279.031 242.979 281.349 245.833 281.349Z" stroke="#FA5C5C" stroke-width="5" stroke-miterlimit="10"/>
<path d="M198.5 259.811L238.805 259.811" stroke="#FA5C5C" stroke-width="5" stroke-miterlimit="10"/>
<path d="M240.872 243.45L225.99 243.45L219.583 259.811" stroke="#FA5C5C" stroke-width="5" stroke-miterlimit="10"/>
<path d="M240.872 276.172L225.99 276.172L219.583 259.811" stroke="#FA5C5C" stroke-width="5" stroke-miterlimit="10"/>
<path d="M198.5 305.166C201.354 305.166 203.667 302.848 203.667 299.988C203.667 297.129 201.354 294.811 198.5 294.811C195.646 294.811 193.333 297.129 193.333 299.988C193.333 302.848 195.646 305.166 198.5 305.166Z" fill="#FA5C5C"/>
<path d="M215.035 312C217.889 312 220.203 309.682 220.203 306.823C220.203 303.963 217.889 301.645 215.035 301.645C212.181 301.645 209.868 303.963 209.868 306.823C209.868 309.682 212.181 312 215.035 312Z" stroke="#FA5C5C" stroke-width="5" stroke-miterlimit="10"/>
<path d="M182.171 312C185.025 312 187.338 309.682 187.338 306.823C187.338 303.963 185.025 301.645 182.171 301.645C179.317 301.645 177.004 303.963 177.004 306.823C177.004 309.682 179.317 312 182.171 312Z" stroke="#FA5C5C" stroke-width="5" stroke-miterlimit="10"/>
<path d="M198.5 259.604L198.5 299.988" stroke="#FA5C5C" stroke-width="5" stroke-miterlimit="10"/>
<path d="M214.828 301.852L214.828 287.148L198.5 280.728" stroke="#FA5C5C" stroke-width="5" stroke-miterlimit="10"/>
<path d="M182.171 301.852L182.171 287.148L198.5 280.728" stroke="#FA5C5C" stroke-width="5" stroke-miterlimit="10"/>
<path d="M158.195 264.781C161.049 264.781 163.362 262.463 163.362 259.603C163.362 256.744 161.049 254.426 158.195 254.426C155.341 254.426 153.028 256.744 153.028 259.603C153.028 262.463 155.341 264.781 158.195 264.781Z" fill="#FA5C5C"/>
<path d="M151.167 281.556C154.021 281.556 156.335 279.238 156.335 276.379C156.335 273.519 154.021 271.201 151.167 271.201C148.313 271.201 146 273.519 146 276.379C146 279.238 148.313 281.556 151.167 281.556Z" stroke="#FA5C5C" stroke-width="5" stroke-miterlimit="10"/>
<path d="M151.167 248.627C154.021 248.627 156.335 246.309 156.335 243.45C156.335 240.59 154.021 238.272 151.167 238.272C148.313 238.272 146 240.59 146 243.45C146 246.309 148.313 248.627 151.167 248.627Z" stroke="#FA5C5C" stroke-width="5" stroke-miterlimit="10"/>
<path d="M198.5 259.603L158.195 259.603" stroke="#FA5C5C" stroke-width="5" stroke-miterlimit="10"/>
<path d="M156.128 275.964L171.01 275.964L177.417 259.603" stroke="#FA5C5C" stroke-width="5" stroke-miterlimit="10"/>
<path d="M156.128 243.45L171.01 243.45L177.417 259.604" stroke="#FA5C5C" stroke-width="5" stroke-miterlimit="10"/>
<path d="M70.6695 241.5C72.8695 241.5 74.8862 242.032 76.7195 243.095C78.5528 244.122 80.0195 245.533 81.1195 247.33C82.2562 249.09 82.8245 251.088 82.8245 253.325C82.8245 255.635 82.2195 257.725 81.0095 259.595C79.8362 261.428 78.2595 262.895 76.2795 263.995C74.3362 265.095 72.1912 265.645 69.8445 265.645H55.9845V280H50.0445V241.5H70.6695ZM69.4595 259.925C70.7428 259.925 71.9162 259.632 72.9795 259.045C74.0795 258.422 74.9412 257.615 75.5645 256.625C76.2245 255.635 76.5545 254.535 76.5545 253.325C76.5545 252.188 76.2245 251.162 75.5645 250.245C74.9412 249.328 74.0795 248.595 72.9795 248.045C71.9162 247.495 70.7428 247.22 69.4595 247.22H55.9845V259.925H69.4595ZM130.799 253.435C130.799 255.195 130.414 256.845 129.644 258.385C128.91 259.888 127.902 261.227 126.619 262.4C125.335 263.537 123.85 264.38 122.164 264.93L132.834 280.055L125.464 280L115.509 265.755H103.519V280H97.5787V241.5H118.369C120.569 241.5 122.604 242.013 124.474 243.04C126.38 244.067 127.902 245.478 129.039 247.275C130.212 249.072 130.799 251.125 130.799 253.435ZM116.939 247.22H103.519V260.035H117.379C118.699 260.035 119.89 259.742 120.954 259.155C122.054 258.532 122.915 257.725 123.539 256.735C124.199 255.708 124.529 254.608 124.529 253.435C124.529 252.225 124.18 251.162 123.484 250.245C122.787 249.292 121.852 248.558 120.679 248.045C119.542 247.495 118.295 247.22 116.939 247.22Z" fill="#7C1313"/>
<path d="M276.288 281.55C274.125 281.55 272.218 281.238 270.568 280.615C268.918 279.955 267.525 279.167 266.388 278.25C265.252 277.297 264.335 276.38 263.638 275.5C262.942 274.583 262.465 273.868 262.208 273.355L266.113 269.285C266.957 270.385 267.818 271.448 268.698 272.475C269.578 273.502 270.623 274.345 271.833 275.005C273.043 275.665 274.528 275.995 276.288 275.995C278.232 275.995 279.9 275.573 281.293 274.73C282.723 273.85 283.805 272.677 284.538 271.21C285.308 269.743 285.693 268.13 285.693 266.37V248.275H276.838V242.5H298.508V248.275H291.633V266.92C291.633 269.413 291.028 271.778 289.818 274.015C288.645 276.252 286.922 278.067 284.648 279.46C282.375 280.853 279.588 281.55 276.288 281.55ZM309.973 242.5H339.783V248.22H315.913V258.395H336.758V264.115H315.913V275.28H339.783V281H309.973V242.5ZM390.6 275.555C389.646 276.435 388.345 277.333 386.695 278.25C385.045 279.167 383.156 279.955 381.03 280.615C378.903 281.238 376.63 281.55 374.21 281.55C371.24 281.55 368.471 281.092 365.905 280.175C363.338 279.222 361.083 277.883 359.14 276.16C357.233 274.437 355.748 272.365 354.685 269.945C353.621 267.488 353.09 264.757 353.09 261.75C353.09 258.927 353.64 256.323 354.74 253.94C355.876 251.557 357.435 249.485 359.415 247.725C361.395 245.965 363.668 244.608 366.235 243.655C368.801 242.665 371.515 242.17 374.375 242.17C376.721 242.17 378.976 242.5 381.14 243.16C383.303 243.783 385.228 244.59 386.915 245.58C388.638 246.57 390.013 247.597 391.04 248.66L387.355 253.445C385.558 251.868 383.56 250.585 381.36 249.595C379.16 248.568 376.685 248.055 373.935 248.055C372.065 248.055 370.25 248.367 368.49 248.99C366.73 249.613 365.135 250.53 363.705 251.74C362.311 252.913 361.193 254.343 360.35 256.03C359.543 257.717 359.14 259.623 359.14 261.75C359.14 264.83 359.873 267.415 361.34 269.505C362.806 271.558 364.731 273.117 367.115 274.18C369.535 275.207 372.101 275.72 374.815 275.72C376.795 275.72 378.573 275.463 380.15 274.95C381.726 274.4 383.138 273.74 384.385 272.97C385.631 272.2 386.75 271.43 387.74 270.66L390.6 275.555ZM414.606 281V248.22H401.076V242.5H434.461V248.22H420.546V281H414.606ZM448.571 269.175C450.551 271.412 452.641 273.153 454.841 274.4C457.041 275.61 459.717 276.215 462.871 276.215C464.557 276.215 466.189 275.995 467.766 275.555C469.379 275.115 470.699 274.455 471.726 273.575C472.752 272.695 473.266 271.577 473.266 270.22C473.266 268.387 472.239 267.103 470.186 266.37C468.169 265.637 465.309 265.013 461.606 264.5C458.562 264.097 455.922 263.437 453.686 262.52C451.449 261.603 449.707 260.393 448.461 258.89C447.251 257.35 446.646 255.443 446.646 253.17C446.646 250.823 447.361 248.825 448.791 247.175C450.221 245.488 452.146 244.205 454.566 243.325C457.022 242.408 459.736 241.95 462.706 241.95C466.336 241.95 469.489 242.537 472.166 243.71C474.842 244.883 476.951 246.552 478.491 248.715L474.476 253.005C473.156 251.318 471.487 249.943 469.471 248.88C467.491 247.817 465.181 247.285 462.541 247.285C459.827 247.285 457.554 247.762 455.721 248.715C453.887 249.632 452.971 250.933 452.971 252.62C452.971 253.977 453.411 255.058 454.291 255.865C455.207 256.635 456.454 257.24 458.031 257.68C459.644 258.12 461.532 258.487 463.696 258.78C465.749 259.073 467.711 259.44 469.581 259.88C471.487 260.32 473.192 260.925 474.696 261.695C476.199 262.465 477.391 263.455 478.271 264.665C479.151 265.875 479.591 267.397 479.591 269.23C479.591 271.723 478.894 273.905 477.501 275.775C476.144 277.608 474.182 279.038 471.616 280.065C469.086 281.055 466.097 281.55 462.651 281.55C458.947 281.55 455.592 280.963 452.586 279.79C449.616 278.617 446.994 276.71 444.721 274.07L448.571 269.175Z" fill="#7C1313"/>
</svg>
